<svg width="36" height="36" viewBox="0 0 36 36" fill="none" xmlns="http://www.w3.org/2000/svg">
<path d="M9.00781 9.49219C9.00781 4.53434 13.0422 0.5 18 0.5C22.9579 0.5 26.9922 4.53434 26.9922 9.49219C26.9922 14.45 22.9579 18.4844 18 18.4844C13.0422 18.4844 9.00781 14.45 9.00781 9.49219Z" stroke="#5EB83E"/>
<path d="M20.1094 21.5938C23.6304 21.5938 26.9478 22.9918 29.4539 25.5364L29.8101 25.1856L29.4539 25.5364C31.9483 28.0691 33.3203 31.4093 33.3203 34.9453C33.3203 35.2516 33.072 35.5 32.7656 35.5H3.23438C2.92805 35.5 2.67969 35.2516 2.67969 34.9453C2.67969 31.4093 4.05174 28.0691 6.54613 25.5364L6.2107 25.2061L6.54613 25.5364C9.05225 22.9918 12.3696 21.5938 15.8906 21.5938H20.1094Z" stroke="#5EB83E"/>
</svg>
