<svg width="24" height="24" viewBox="0 0 24 24" fill="none" xmlns="http://www.w3.org/2000/svg">
<g clip-path="url(#clip0_1923_531)">
<path d="M8.21867 13.5743L9.07488 13.0057C10.1551 12.2884 10.8 11.0593 10.8 9.71781C10.8 8.32905 9.7234 7.19922 8.40008 7.19922C7.07676 7.19922 6.00016 8.32905 6.00016 9.71781V10.555H7.59567V9.71781C7.59567 9.25232 7.95653 8.87363 8.40008 8.87363C8.84363 8.87363 9.20449 9.25232 9.20449 9.71781C9.20449 10.482 8.83714 11.1821 8.22175 11.5907L7.36555 12.1594C6.51051 12.7272 6 13.7001 6 14.762V15.5992H10.7998V13.9248H7.85803C7.95482 13.788 8.07624 13.6688 8.21867 13.5743Z" fill="#005B9F"/>
<path d="M16.9857 15.5992V12.7201H17.9969V11.0659H16.9857V8.68092H14.9802V11.0659H13.1134L13.7498 7.43594L11.7649 7.19922L10.7969 12.7201H14.9802V15.5992H16.9857Z" fill="#005B9F"/>
<path d="M21 12C21 16.9706 16.9706 21 12 21C7.01486 21 3.00002 16.9852 3.00002 12C3.00002 7.02938 7.0294 3 12 3C14.4853 3 16.7349 4.00781 18.3633 5.63672L17.3152 6.68484C17.4 6.91125 17.4103 6.93844 17.4952 7.16437L22.0186 7.46953L22.3181 7.17L22.013 2.64656C21.7871 2.56125 21.7599 2.55141 21.5335 2.46656L20.4844 3.51516C18.3127 1.34344 15.3136 0.00046875 12 0H11.9921C5.38033 0.00421875 -0.0121669 5.41078 2.0618e-05 12.023C0.0122081 18.6398 5.38033 24 12 24C18.6272 24 24 18.6272 24 12H21Z" fill="#005B9F"/>
</g>
<defs>
<clipPath id="clip0_1923_531">
<rect width="24" height="24" fill="white"/>
</clipPath>
</defs>
</svg>
