<svg width="24" height="24" viewBox="0 0 24 24" fill="none" xmlns="http://www.w3.org/2000/svg">
<path d="M22.9853 5.74241C22.9853 5.71728 23.0026 5.69282 23.0014 5.66797L16.2891 12.1357L22.9934 18.3968C22.9973 18.3521 22.9853 18.307 22.9853 18.2613V5.74241Z" fill="#5EB83E"/>
<path d="M15.2535 13.1289L12.5133 15.7653C12.3746 15.8987 12.1955 15.9656 12.0163 15.9656C11.8409 15.9656 11.6654 15.9016 11.5277 15.7732L8.795 13.2268L2.04688 19.7312C2.21096 19.7902 2.38708 19.8359 2.57152 19.8359H21.4613C21.7352 19.8359 21.992 19.7525 22.2154 19.6281L15.2535 13.1289Z" fill="#5EB83E"/>
<path d="M12.0139 14.2625L22.258 4.39447C22.026 4.25657 21.7561 4.16406 21.4667 4.16406H2.57693C2.20012 4.16406 1.85485 4.31037 1.58594 4.53351L12.0139 14.2625Z" fill="#5EB83E"/>
<path d="M1 5.98438V18.2628C1 18.4037 1.0324 18.5396 1.06756 18.6695L7.73197 12.2518L1 5.98438Z" fill="#5EB83E"/>
</svg>
