<svg width="44" height="44" viewBox="0 0 44 44" fill="none" xmlns="http://www.w3.org/2000/svg">
<path d="M3.75975 21.2965L3.75972 21.2965C3.09383 21.0704 3.07576 20.135 3.7327 19.8834C3.7327 19.8834 3.73271 19.8834 3.73271 19.8834L38.6055 6.5297L38.4267 6.06277L38.6055 6.5297C39.7789 6.08033 40.9813 7.11575 40.7111 8.34284L34.4728 36.6678C34.2907 37.4946 33.3133 37.8548 32.6384 37.3438L32.6384 37.3437L23.6793 30.5617L23.3349 30.301L23.0269 30.6038L18.1262 35.4229C18.1262 35.4229 18.1262 35.4229 18.1262 35.4229C18.0087 35.5383 17.811 35.4468 17.8228 35.2827L17.8228 35.2827L18.4005 27.2782L34.1715 12.7617L33.8329 12.3938L34.1715 12.7617C34.8784 12.111 34.0394 10.9954 33.218 11.4977C33.2179 11.4977 33.2179 11.4978 33.2179 11.4978L12.3936 24.2288L3.75975 21.2965Z" stroke="#5EB83E"/>
</svg>
