<svg width="44" height="44" viewBox="0 0 44 44" fill="none" xmlns="http://www.w3.org/2000/svg">
<path d="M21.5225 33.4087H21.5063L21.491 33.4097L21.4908 33.4097L21.4905 33.4097L21.4901 33.4097L21.49 33.4097L21.4821 33.4101C21.4742 33.4105 21.4612 33.4111 21.4433 33.4117C21.4075 33.4129 21.3519 33.4141 21.278 33.4139C21.1303 33.4136 20.9098 33.4079 20.6281 33.3854C20.0646 33.3406 19.2582 33.229 18.3025 32.9615C16.3932 32.4271 13.8852 31.2701 11.5185 28.7702L11.5168 28.7684C8.91816 26.0505 6.44137 21.9546 4.60449 18.5079C3.68904 16.7901 2.93802 15.2441 2.41598 14.1278C2.15502 13.5698 1.95143 13.1195 1.81328 12.8091C1.74421 12.6539 1.69152 12.5338 1.6562 12.4527L1.61638 12.3609L1.60649 12.3379L1.60409 12.3323L1.60353 12.331L1.60341 12.3307L1.14354 12.5269L1.6034 12.3307L1.59557 12.3123L1.58779 12.2975L1.58376 12.289C1.5793 12.2794 1.57204 12.2631 1.56356 12.2415C1.54615 12.1971 1.52607 12.1367 1.51314 12.0706C1.4844 11.9236 1.50619 11.839 1.54031 11.7945L1.54793 11.7846L1.55505 11.7743C1.56007 11.767 1.58665 11.7365 1.66605 11.699C1.74287 11.6628 1.84091 11.6335 1.94837 11.612C2.05375 11.5908 2.15433 11.5798 2.2294 11.5743C2.26643 11.5716 2.29601 11.5703 2.31533 11.5696L2.33595 11.5691L2.3385 11.5691V11.5691L2.34427 11.5691L7.96086 11.5043C8.29246 11.5045 8.55133 11.5373 8.76737 11.6456L8.87317 11.6987H8.92847C8.93311 11.702 8.93846 11.7059 8.94469 11.7105L8.98391 11.7394C8.99187 11.7452 9.00073 11.7516 9.01027 11.7583C9.1626 11.8897 9.30973 12.0739 9.36289 12.2161L9.36284 12.2161L9.36555 12.223C10.0228 13.9043 10.8095 15.4484 11.6541 16.9799L11.654 16.98L11.6595 16.9894C12.9202 19.162 13.8672 20.5386 14.6254 21.3122C15.004 21.6984 15.3722 21.9731 15.746 22.1002C16.1461 22.2363 16.5241 22.1929 16.8581 22.0017C17.1364 21.8488 17.3258 21.5919 17.4583 21.335C17.5947 21.0706 17.6957 20.7579 17.7727 20.4317C17.927 19.7786 18.0025 18.995 18.0374 18.2564C18.0725 17.5133 18.0672 16.7946 18.0534 16.2633C18.0465 15.9972 18.0374 15.777 18.03 15.6228C18.0263 15.5457 18.023 15.4851 18.0206 15.4434L18.0178 15.3955L18.0176 15.3931L18.0176 15.383C18.0174 15.3667 18.0171 15.3435 18.0164 15.314C18.0151 15.2551 18.0126 15.1711 18.0076 15.068C17.9975 14.8621 17.9774 14.5773 17.937 14.2615C17.8596 13.6566 17.6968 12.8387 17.3183 12.2792L17.2917 12.2399L17.2582 12.2063C16.8337 11.7805 16.333 11.4362 15.7439 11.253C15.8711 11.1488 16.0249 11.0498 16.1926 10.9797L16.2031 10.9753L16.2133 10.9705C16.6758 10.7522 17.3423 10.6272 18.2162 10.5635C19.0824 10.5003 20.096 10.5 21.2318 10.5C22.1885 10.5 23.1521 10.6236 24.0616 10.812C24.481 10.9133 24.6959 11.0711 24.8294 11.2647C24.9768 11.4786 25.0733 11.8056 25.1134 12.3377C25.1533 12.8671 25.1338 13.53 25.1018 14.3779C25.0989 14.4545 25.0959 14.5324 25.0928 14.6117C25.0626 15.4007 25.0272 16.3237 25.0272 17.3864C25.0272 17.6008 25.0209 17.8425 25.0143 18.0985C24.9996 18.6655 24.983 19.3026 25.0288 19.8687C25.0938 20.671 25.2945 21.5925 26.0198 22.0754C26.2538 22.2394 26.5561 22.3074 26.903 22.2192C27.2267 22.1369 27.567 21.925 27.9385 21.5874C28.6825 20.9113 29.6985 19.5939 31.1247 17.1878L31.1289 17.1808L31.1328 17.1736C32.0049 15.5861 32.817 13.8952 33.4393 12.1969C33.5966 11.9464 33.6982 11.805 33.8346 11.7195C34.0003 11.6156 34.1846 11.5932 34.2871 11.6189L34.3495 11.6345L34.4138 11.6339L40.7116 11.5691L40.7519 11.5686L40.791 11.5619L40.7912 11.5618L40.7914 11.5618L40.7917 11.5618L40.7929 11.5616L40.8043 11.5598C40.8151 11.5581 40.8322 11.5555 40.8547 11.5525C40.8998 11.5464 40.9662 11.5383 41.0475 11.5313C41.2118 11.517 41.4281 11.5075 41.6477 11.5233C41.8724 11.5394 42.0698 11.5799 42.2141 11.6463C42.3509 11.7092 42.4059 11.7778 42.4298 11.8472C42.4669 11.9551 42.4823 12.1556 42.4012 12.4939C42.3217 12.8259 42.1598 13.2464 41.899 13.7638C41.3776 14.798 40.4937 16.1556 39.2088 17.8633L39.2068 17.866C38.6687 18.5912 38.1767 19.2339 37.7476 19.7944C37.3538 20.3088 37.013 20.754 36.738 21.1304C36.1592 21.9227 35.7456 22.5714 35.6152 23.1823C35.4696 23.8653 35.6854 24.4285 36.124 24.9976C36.5179 25.5087 37.1406 26.0871 37.9402 26.8298C37.9838 26.8703 38.0279 26.9113 38.0725 26.9528C41.3687 30.0368 42.0875 31.4824 42.1625 31.6333L42.1644 31.6372L42.1746 31.6576L42.1866 31.6769C42.5047 32.1918 42.5227 32.4973 42.4863 32.6602C42.4512 32.8171 42.3401 32.9545 42.1322 33.0769C41.9215 33.2009 41.6595 33.279 41.4321 33.3249C41.3218 33.3472 41.2267 33.3605 41.1604 33.3681C41.1274 33.3719 41.1018 33.3742 41.0855 33.3756L41.0727 33.3766L35.4658 33.4735L35.4166 33.4744L35.374 33.4837C35.3747 33.4835 35.3743 33.4836 35.3729 33.4839C35.37 33.4844 35.3629 33.4856 35.3517 33.4871C35.3292 33.4902 35.2906 33.4946 35.2371 33.4974C35.1303 33.503 34.9647 33.5019 34.7518 33.4707C34.3286 33.4085 33.7077 33.2255 32.9826 32.7208L32.9822 32.7205C32.5049 32.389 32.0207 31.9127 31.526 31.368C31.238 31.0509 30.9689 30.7369 30.6992 30.422C30.492 30.1802 30.2844 29.9379 30.0675 29.6933C29.5936 29.1591 29.1039 28.6487 28.6142 28.3067C28.13 27.9685 27.5412 27.7232 26.9218 27.9261C26.3641 28.1088 25.9876 28.532 25.7358 28.9841C25.4841 29.4361 25.3308 29.9619 25.2348 30.4412C25.1379 30.9248 25.0945 31.3868 25.075 31.7255C25.0652 31.8957 25.0613 32.0366 25.0599 32.1359C25.0592 32.1857 25.0591 32.2251 25.0592 32.2526L25.0594 32.2849L25.0595 32.2923C25.0587 32.5525 24.9693 32.7924 24.8218 33.0535C24.5829 33.2276 24.2885 33.3578 24.0007 33.4087H21.5225ZM2.33969 11.5691L2.33963 11.5691L2.33969 11.5691Z" stroke="#5EB83E"/>
</svg>
