<svg width="24" height="24" viewBox="0 0 24 24" fill="none" xmlns="http://www.w3.org/2000/svg">
<g clip-path="url(#clip0_1923_515)">
<path d="M4.78709 18.8071C4.65001 18.7503 4.49917 18.7355 4.35365 18.7644C4.20813 18.7934 4.07447 18.8649 3.96959 18.9698L0.96959 21.9698C0.864733 22.0747 0.793328 22.2083 0.764403 22.3538C0.735477 22.4993 0.750329 22.6501 0.807082 22.7871C0.863834 22.9241 0.959939 23.0412 1.08325 23.1236C1.20655 23.2061 1.35153 23.2501 1.49984 23.2501H4.49984C4.69875 23.2501 4.88952 23.1711 5.03017 23.0304C5.17082 22.8898 5.24984 22.699 5.24984 22.5001V19.5001C5.24988 19.3518 5.20593 19.2068 5.12357 19.0834C5.0412 18.9601 4.9241 18.8639 4.78709 18.8071Z" fill="#005B9F"/>
<path d="M10.7873 12.8071C10.6502 12.7503 10.4993 12.7355 10.3538 12.7644C10.2083 12.7934 10.0746 12.8649 9.96975 12.9698L6.96975 15.9698C6.82909 16.1105 6.75004 16.3012 6.75 16.5001V22.5001C6.75 22.699 6.82902 22.8898 6.96967 23.0304C7.11032 23.1711 7.30109 23.2501 7.5 23.2501H10.5C10.6989 23.2501 10.8897 23.1711 11.0303 23.0304C11.171 22.8898 11.25 22.699 11.25 22.5001V13.5001C11.25 13.3518 11.2061 13.2068 11.1237 13.0834C11.0414 12.9601 10.9243 12.8639 10.7873 12.8071Z" fill="#005B9F"/>
<path d="M16.7872 6.80709C16.6502 6.75031 16.4993 6.73547 16.3538 6.76444C16.2083 6.79341 16.0746 6.86489 15.9697 6.96984L12.9697 9.96984C12.8291 10.1105 12.75 10.3012 12.75 10.5001V22.5001C12.75 22.699 12.829 22.8898 12.9697 23.0304C13.1103 23.1711 13.3011 23.2501 13.5 23.2501H16.5C16.6989 23.2501 16.8897 23.1711 17.0303 23.0304C17.171 22.8898 17.25 22.699 17.25 22.5001V7.50009C17.25 7.35176 17.2061 7.20676 17.1237 7.08341C17.0414 6.96005 16.9243 6.8639 16.7872 6.80709Z" fill="#005B9F"/>
<path d="M22.7872 0.807087C22.6502 0.750308 22.4993 0.735465 22.3538 0.764435C22.2083 0.793406 22.0746 0.864887 21.9697 0.969837L18.9697 3.96984C18.8291 4.11046 18.75 4.30119 18.75 4.50009V22.5001C18.75 22.699 18.829 22.8898 18.9697 23.0304C19.1103 23.1711 19.3011 23.2501 19.5 23.2501H22.5C22.6989 23.2501 22.8897 23.1711 23.0303 23.0304C23.171 22.8898 23.25 22.699 23.25 22.5001V1.50009C23.25 1.35176 23.2061 1.20676 23.1237 1.08341C23.0414 0.960054 22.9243 0.863895 22.7872 0.807087Z" fill="#005B9F"/>
</g>
<defs>
<clipPath id="clip0_1923_515">
<rect width="24" height="24" fill="white"/>
</clipPath>
</defs>
</svg>
