<svg width="160" height="94" viewBox="0 0 160 94" fill="none" xmlns="http://www.w3.org/2000/svg">
<path d="M134.737 94L-1.52588e-05 94L25.2631 3.47972e-06L160 1.52588e-05L134.737 94Z" fill="url(#paint0_linear_1933_146)"/>
<path fill-rule="evenodd" clip-rule="evenodd" d="M79.064 25.8178C79.064 27.7637 78.676 29.6906 77.9221 31.4884C77.1683 33.2862 76.0633 34.9197 74.6704 36.2956C73.2774 37.6716 71.6238 38.7631 69.8038 39.5077C67.9838 40.2524 66.0332 40.6357 64.0632 40.6357C60.0848 40.6357 56.2693 39.0745 53.4561 36.2956C50.6429 33.5167 49.0625 29.7478 49.0625 25.8178C49.0625 21.8879 50.6429 18.1189 53.4561 15.34C56.2693 12.5612 60.0848 11 64.0632 11C66.0332 11 67.9838 11.3833 69.8038 12.1279C71.6238 12.8726 73.2774 13.9641 74.6704 15.34C76.0633 16.716 77.1683 18.3495 77.9221 20.1473C78.676 21.9451 79.064 23.8719 79.064 25.8178ZM77.4537 25.8178C77.4537 22.3098 76.0429 18.9454 73.5317 16.4648C71.0205 13.9842 67.6146 12.5907 64.0632 12.5907C60.5119 12.5907 57.106 13.9842 54.5948 16.4648C52.0836 18.9454 50.6728 22.3098 50.6728 25.8178C50.6728 29.3259 52.0836 32.6903 54.5948 35.1709C57.106 37.6514 60.5119 39.045 64.0632 39.045C67.6146 39.045 71.0205 37.6514 73.5317 35.1709C76.0429 32.6903 77.4537 29.3259 77.4537 25.8178ZM123 37.0635V48.8761C122.514 51.0006 121.289 52.3315 119.326 52.8688C118.614 53.0607 117.843 53.038 117.085 53.0156C116.894 53.01 116.704 53.0044 116.516 53.0023C116.311 53.0023 116.188 53.1019 116.149 53.3012C114.598 61.1158 103.515 61.2012 101.964 53.2958C101.928 53.1144 101.816 53.0236 101.629 53.0236H81.9214C81.7232 53.0236 81.6026 53.1197 81.5593 53.3119C79.8355 61.1531 69.0173 61.1958 67.3691 53.3012C67.3367 53.1268 67.2304 53.0378 67.0503 53.0343C65.8039 52.9951 64.5196 52.9987 63.1975 53.045C59.8255 53.1624 57.1993 51.7319 55.9349 48.6519C55.852 48.4526 55.7007 48.353 55.4809 48.353H49.5098C49.1027 48.353 48.8434 48.1608 48.7317 47.7765C48.6452 47.4918 48.829 47.1894 49.2829 46.8691C49.3918 46.7926 49.5221 46.7516 49.6557 46.7517H55.2216C55.4269 46.7517 55.5296 46.6502 55.5296 46.4474L55.535 40.816C55.535 40.4067 55.7349 40.1488 56.1348 40.042C56.2032 40.0242 56.2699 40.0206 56.3347 40.0313C56.8247 40.0989 57.0714 40.3765 57.075 40.864L57.0804 46.3513C57.0804 46.6182 57.2137 46.7517 57.4803 46.7517H65.6832C66.2272 46.7517 66.5442 47.0168 66.6342 47.547C66.6558 47.668 66.6396 47.7872 66.5856 47.9046C66.4451 48.2035 66.2073 48.353 65.8723 48.353H58.5503C57.5704 48.353 57.4389 48.6822 58.1558 49.3405C58.534 49.6892 58.9123 50.0362 59.2906 50.3814C60.0471 51.0753 60.9405 51.4223 61.9708 51.4223H66.9693C67.1746 51.4223 67.2953 51.3208 67.3313 51.118C68.7525 42.9938 80.257 42.9831 81.5863 51.1287C81.6188 51.3244 81.7358 51.4223 81.9376 51.4223H97.3058C97.3708 51.4223 97.4332 51.3971 97.4797 51.3522C97.5261 51.3073 97.5529 51.2463 97.5544 51.1821V48.5932C97.5544 48.4295 97.4715 48.3495 97.3058 48.353H82.6617C82.233 48.353 81.9772 48.1466 81.8944 47.7338C81.8835 47.6911 81.8799 47.6466 81.8835 47.6004C81.9376 47.0346 82.2528 46.7517 82.8292 46.7517H97.3706C97.4859 46.7517 97.5435 46.6947 97.5435 46.5808L97.549 42.2892C97.549 42.2394 97.5237 42.2145 97.4733 42.2145H74.5075C74.4012 42.2145 74.2969 42.1869 74.2048 42.1344C73.7654 41.8747 73.596 41.622 73.6969 41.3765C73.9022 40.8711 74.2769 40.6185 74.8209 40.6185C82.5482 40.6114 90.0468 40.6131 97.3166 40.6238C97.4679 40.6238 97.5435 40.5455 97.5435 40.389C97.5435 40.3107 97.549 39.0812 97.5598 36.7005C97.5598 36.551 97.4841 36.4763 97.3328 36.4763H81.7322C81.5756 36.4762 81.4253 36.4191 81.3108 36.3162C80.828 35.8998 80.9019 35.4639 81.5323 35.0084C81.6517 34.9218 81.7955 34.875 81.943 34.875H97.2139C97.4553 34.875 97.5742 34.7575 97.5706 34.5227C97.5201 30.8075 97.5309 26.9163 97.603 22.8488C97.6786 18.2156 96.1656 15.3652 91.1726 15.3812C85.6896 15.399 80.6875 15.399 76.1664 15.3812C76.0857 15.3811 76.0059 15.3655 75.9317 15.3353C75.8576 15.3051 75.7904 15.2608 75.7341 15.205C75.5324 15.0058 75.4477 14.7994 75.4801 14.5858C75.5594 14.0627 75.8674 13.8012 76.4042 13.8012C81.6674 13.7727 86.8262 13.7781 91.8804 13.8172C94.6399 13.8385 96.7618 15.0004 98.246 17.3028C98.3433 17.4558 98.4838 17.5323 98.6675 17.5323C99.3609 17.5353 100.075 17.5181 100.796 17.5006C102.64 17.456 104.533 17.4101 106.265 17.6978C108.405 18.0501 109.978 19.5767 110.183 21.7279C110.201 21.9165 110.3 22.0428 110.48 22.1069C111.975 22.6513 113.189 23.5676 114.122 24.8558C117.076 28.9304 120.036 32.9996 123 37.0635ZM107.621 20.0945C107.038 19.454 106.31 19.1337 105.438 19.1337L99.1106 19.123C99.0314 19.123 98.9935 19.1622 98.9972 19.2404L99.116 21.6798C99.1196 21.7581 99.1611 21.7973 99.2403 21.7973H107.848C108.738 21.7973 108.886 21.4717 108.292 20.8204C108.039 20.5464 107.816 20.3044 107.621 20.0945ZM106.773 38.7342C106.611 38.6986 106.514 38.6008 106.481 38.4406L104.271 27.4821C104.08 26.539 104.473 26.0675 105.449 26.0675H112.598C112.865 26.0675 112.923 25.9608 112.771 25.7473C111.626 24.1299 110.005 23.3452 108 23.3719C104.959 23.4146 102.09 23.4182 99.3916 23.3826C99.1899 23.379 99.089 23.4769 99.089 23.6762V51.2888C99.089 51.3778 99.134 51.4223 99.2241 51.4223H101.769C101.834 51.4223 101.872 51.3902 101.883 51.3262C103.207 42.9938 114.76 42.8924 116.165 51.1394C116.175 51.2001 116.205 51.256 116.25 51.2991C116.294 51.3422 116.352 51.3704 116.413 51.3796C120.823 51.9988 121.644 49.4366 121.39 45.8282C121.232 43.6041 121.248 41.4103 121.439 39.2467C121.46 39.0047 121.349 38.8837 121.104 38.8837C116.838 38.8623 112.678 38.8694 108.621 38.905C107.973 38.9086 107.357 38.8517 106.773 38.7342ZM107.843 37.1382C107.851 37.1769 107.871 37.2118 107.902 37.2371C107.932 37.2624 107.971 37.2765 108.011 37.277H120.844C120.876 37.2763 120.907 37.267 120.934 37.2501C120.96 37.2333 120.982 37.2095 120.996 37.1814C121.01 37.1533 121.015 37.122 121.013 37.0909C121.01 37.0597 120.998 37.0299 120.979 37.0048L114.23 27.7383C114.214 27.7166 114.193 27.699 114.168 27.6869C114.144 27.6749 114.117 27.6687 114.09 27.6689H106.152C106.126 27.6692 106.102 27.675 106.079 27.6859C106.056 27.6967 106.036 27.7124 106.02 27.7317C106.004 27.751 105.993 27.7736 105.986 27.7978C105.98 27.822 105.979 27.8472 105.984 27.8717L107.843 37.1382ZM80.0679 52.1055C80.0679 50.6374 79.4775 49.2295 78.4266 48.1914C77.3757 47.1534 75.9504 46.5702 74.4642 46.5702C72.9781 46.5702 71.5527 47.1534 70.5018 48.1914C69.451 49.2295 68.8606 50.6374 68.8606 52.1055C68.8606 53.5736 69.451 54.9815 70.5018 56.0196C71.5527 57.0577 72.9781 57.6409 74.4642 57.6409C75.9504 57.6409 77.3757 57.0577 78.4266 56.0196C79.4775 54.9815 80.0679 53.5736 80.0679 52.1055ZM114.652 52.1055C114.652 50.6374 114.061 49.2295 113.01 48.1914C111.96 47.1534 110.534 46.5702 109.048 46.5702C107.562 46.5702 106.137 47.1534 105.086 48.1914C104.035 49.2295 103.444 50.6374 103.444 52.1055C103.444 53.5736 104.035 54.9815 105.086 56.0196C106.137 57.0577 107.562 57.6409 109.048 57.6409C110.534 57.6409 111.96 57.0577 113.01 56.0196C114.061 54.9815 114.652 53.5736 114.652 52.1055ZM62.999 31.4124C62.8621 31.5796 62.7252 31.5779 62.5883 31.4071L58.395 26.176C58.1392 25.8557 57.8096 25.7401 57.4061 25.829C57.136 25.8895 56.9828 26.1617 56.9468 26.6457C56.9365 26.7833 56.979 26.9188 57.0657 27.0247L62.1992 33.4141C62.2724 33.5062 62.3656 33.5807 62.4722 33.6321C62.5787 33.6835 62.6958 33.7104 62.8146 33.7109C62.9335 33.7114 63.0512 33.6855 63.1589 33.635C63.2665 33.5846 63.3615 33.5109 63.4367 33.4194L73.4282 21.2598C73.7488 20.8719 73.792 20.4556 73.5579 20.0108C73.5002 19.904 73.412 19.8382 73.2931 19.8133C72.868 19.7208 72.5168 19.8417 72.2394 20.1762L62.999 31.4124ZM69.5858 42.2848C65.9978 43.3737 62.4367 43.3417 58.9027 42.1887C58.7743 42.1465 58.6566 42.0793 58.5568 41.9912C57.7535 41.283 57.885 40.8275 58.9513 40.6247C59.0754 40.6002 59.2038 40.6076 59.3242 40.646C67.0839 43.2456 75.0652 39.7386 78.4804 32.4845C79.9106 29.449 80.1988 26.0364 79.345 22.2465C79.2549 21.8408 79.3936 21.5366 79.7611 21.3337C80.1069 21.1416 80.4942 21.3942 80.9229 22.0917C80.9765 22.1837 81.0149 22.2828 81.0363 22.3853C82.29 29.4775 80.2582 35.189 74.9409 39.5198C73.4603 40.7261 71.6753 41.6478 69.5858 42.2848ZM118.041 45.3333C118.372 45.9209 118.822 46.251 119.29 46.251C119.759 46.251 120.209 45.9209 120.54 45.3333C120.871 44.7457 121.057 43.9487 121.057 43.1177C121.057 42.2867 120.871 41.4897 120.54 40.9021C120.209 40.3145 119.759 39.9844 119.29 39.9844C118.822 39.9844 118.372 40.3145 118.041 40.9021C117.71 41.4897 117.523 42.2867 117.523 43.1177C117.523 43.9487 117.71 44.7457 118.041 45.3333ZM119.468 43.8121C119.431 43.9995 119.381 44.1049 119.328 44.1052C119.302 44.1053 119.276 44.0796 119.251 44.0296C119.227 43.9796 119.204 43.9062 119.185 43.8136C119.166 43.721 119.151 43.611 119.14 43.4899C119.129 43.3689 119.124 43.2391 119.123 43.108C119.122 42.8433 119.141 42.5893 119.178 42.4019C119.214 42.2145 119.265 42.1091 119.318 42.1088C119.344 42.1087 119.37 42.1344 119.395 42.1844C119.419 42.2344 119.441 42.3079 119.461 42.4005C119.48 42.4931 119.495 42.603 119.506 42.7241C119.516 42.8451 119.522 42.9749 119.523 43.106C119.524 43.3707 119.505 43.6247 119.468 43.8121ZM52.2318 40.6362L44.2343 40.6225C43.7985 40.6217 43.4447 40.97 43.4439 41.4004L43.4439 41.4324C43.4431 41.8629 43.7957 42.2124 44.2314 42.2131L52.2289 42.2269C52.6647 42.2277 53.0185 41.8794 53.0193 41.449L53.0193 41.4169C53.0201 40.9865 52.6675 40.637 52.2318 40.6362ZM76.9839 54.5799C77.6508 53.9212 78.0254 53.0278 78.0254 52.0963C78.0254 51.1648 77.6508 50.2714 76.9839 49.6127C76.3171 48.954 75.4127 48.584 74.4697 48.584C73.5267 48.584 72.6223 48.954 71.9555 49.6127C71.2887 50.2714 70.9141 51.1648 70.9141 52.0963C70.9141 53.0278 71.2887 53.9212 71.9555 54.5799C72.6223 55.2385 73.5267 55.6086 74.4697 55.6086C75.4127 55.6086 76.3171 55.2385 76.9839 54.5799ZM76.2678 51.3757C76.365 51.6075 76.4151 51.856 76.4151 52.107C76.4151 52.3579 76.365 52.6064 76.2678 52.8382C76.1706 53.0701 76.0281 53.2808 75.8484 53.4582C75.6688 53.6356 75.4555 53.7764 75.2208 53.8724C74.9861 53.9685 74.7346 54.0179 74.4805 54.0179C73.9674 54.0179 73.4754 53.8166 73.1126 53.4582C72.7498 53.0998 72.546 52.6138 72.546 52.107C72.546 51.6001 72.7498 51.1141 73.1126 50.7557C73.4754 50.3973 73.9674 50.196 74.4805 50.196C74.7346 50.196 74.9861 50.2454 75.2208 50.3415C75.4555 50.4375 75.6688 50.5783 75.8484 50.7557C76.0281 50.9332 76.1706 51.1438 76.2678 51.3757ZM112.611 52.0963C112.611 53.0278 112.237 53.9212 111.57 54.5799C110.903 55.2385 109.999 55.6086 109.056 55.6086C108.113 55.6086 107.208 55.2385 106.541 54.5799C105.875 53.9212 105.5 53.0278 105.5 52.0963C105.5 51.1648 105.875 50.2714 106.541 49.6127C107.208 48.954 108.113 48.584 109.056 48.584C109.999 48.584 110.903 48.954 111.57 49.6127C112.237 50.2714 112.611 51.1648 112.611 52.0963ZM110.434 50.7557C110.072 50.3973 109.58 50.196 109.066 50.196C108.553 50.196 108.061 50.3973 107.699 50.7557C107.336 51.1141 107.132 51.6001 107.132 52.107C107.132 52.6138 107.336 53.0998 107.699 53.4582C108.061 53.8166 108.553 54.0179 109.066 54.0179C109.58 54.0179 110.072 53.8166 110.434 53.4582C110.797 53.0998 111.001 52.6138 111.001 52.107C111.001 51.6001 110.797 51.1141 110.434 50.7557ZM49.5255 89.8559H51.3736C54.8248 88.0126 56.9935 86.6745 57.8797 85.8418C59.7926 84.0536 59.0739 81.8865 57.6419 80.125C57.6161 80.0926 57.5993 80.0541 57.5929 80.0134C57.5865 79.9726 57.5908 79.9309 57.6055 79.8923C57.6202 79.8537 57.6446 79.8195 57.6766 79.7929C57.7085 79.7664 57.7468 79.7484 57.7878 79.7407C59.2468 79.5023 60.65 79.4702 61.9973 79.6446C64.4975 79.9649 67.3596 80.4293 70.5839 81.0378C74.8852 81.8491 80.2457 82.0306 84.2066 80.2851C88.9511 78.1963 93.5083 75.3227 97.8781 71.6645C99.9855 69.8977 107.508 63.2788 103.703 60.3803C101.299 58.5495 98.2834 60.4658 96.3542 62.1045C94.5206 63.6631 92.5932 65.3232 90.5722 67.0847C90.0751 67.5188 89.5473 67.8818 88.9889 68.1736C88.7836 68.2803 88.6935 68.2198 88.7188 67.9921C88.9889 65.3979 86.7086 63.93 84.3742 63.471C82.3388 63.076 80.2295 62.7913 78.0464 62.6169C75.6958 62.4354 73.8423 62.0831 71.8916 61.0903C71.5085 60.8955 71.1318 60.701 70.7591 60.5085C67.904 59.0336 65.2871 57.6818 61.8839 57.3324C60.3096 57.1687 58.8596 57.3698 57.5338 57.9356C53.989 59.4569 50.9197 62.2753 48.4826 65.2591C48.3205 65.4548 48.1908 65.4371 48.0935 65.2057C48.0071 65.0029 47.899 64.8143 47.7693 64.6399C46.2455 62.5795 44.383 62.261 42.1819 63.6845C40.604 64.7022 39.0495 65.6986 37.5184 66.6737C36.7835 67.1434 36.2774 67.9779 36 69.1771V69.6362C36.0648 69.8086 36.1215 69.9851 36.1782 70.1616C36.3056 70.5587 36.4331 70.9558 36.6539 71.3069C40.3464 77.0896 44.0498 82.8669 47.7639 88.6389C48.0125 89.0232 48.5997 89.4289 49.5255 89.8559ZM67.4011 70.6076C67.3398 70.7464 67.3236 70.8923 67.3524 71.0453C67.3777 71.1788 67.4438 71.3017 67.5422 71.3979C67.6405 71.4941 67.7665 71.5591 67.9036 71.5845C71.607 72.2392 75.676 72.5168 80.1106 72.4172C84.7686 72.314 88.6899 70.8603 91.8745 68.0562C93.9928 66.1915 96.0426 64.4496 98.024 62.8304C99.0291 62.0084 100.095 61.471 101.223 61.2184C102.423 60.9515 103.509 62.003 103.017 63.2254C102.034 65.7022 99.4127 68.275 97.3161 70.0418C92.5536 74.0488 87.9568 76.9881 83.5258 78.8599C79.9971 80.3492 75.1716 80.2584 71.4538 79.5859C68.4422 79.0379 65.544 78.5521 62.7593 78.1287C60.7815 77.8262 58.8217 77.8938 56.88 78.3315C56.7882 78.3517 56.6924 78.3436 56.6054 78.3083C56.5184 78.273 56.4445 78.2121 56.3937 78.134L49.3688 67.1647C49.2716 67.0153 49.277 66.8694 49.385 66.727C50.3901 65.3783 51.9446 63.7734 54.0484 61.9123C57.8887 58.521 62.118 57.9765 66.7364 60.2789C67.2883 60.5546 67.8392 60.8449 68.3932 61.1368C70.7356 62.3711 73.1327 63.6342 75.8903 63.9407C78.0122 64.1791 80.1448 64.4246 82.2883 64.6773C83.4447 64.8161 84.5129 65.0919 85.4927 65.5047C87.8379 66.5028 87.7083 69.1985 85.2874 70.0151C84.185 70.3888 82.9854 70.6219 81.6885 70.7144C77.3799 71.024 72.9489 70.8123 68.3953 70.0792C67.927 70.0045 67.5956 70.1806 67.4011 70.6076ZM45.0694 64.4677C45.5603 64.5761 45.9875 64.8727 46.2571 65.2923L57.1614 82.2652C57.431 82.6848 57.5207 83.1929 57.411 83.6778C57.3012 84.1628 57.001 84.5848 56.5763 84.851L51.521 88.0201C51.0963 88.2863 50.5819 88.375 50.091 88.2666C49.6 88.1582 49.1728 87.8616 48.9033 87.4421L37.9989 70.4691C37.7294 70.0496 37.6396 69.5414 37.7494 69.0565C37.8591 68.5716 38.1594 68.1496 38.5841 67.8833L43.6394 64.7142C44.0641 64.448 44.5785 64.3593 45.0694 64.4677Z" fill="url(#paint1_linear_1933_146)"/>
<defs>
<linearGradient id="paint0_linear_1933_146" x1="80" y1="94" x2="80" y2="8.26497e-06" gradientUnits="userSpaceOnUse">
<stop stop-color="#CDE5F6"/>
<stop offset="1" stop-color="white" stop-opacity="0"/>
</linearGradient>
<linearGradient id="paint1_linear_1933_146" x1="79.5002" y1="11" x2="79.5002" y2="89.8559" gradientUnits="userSpaceOnUse">
<stop stop-color="#5EB83E"/>
<stop offset="1" stop-color="#005B9F"/>
</linearGradient>
</defs>
</svg>
