<svg width="160" height="94" viewBox="0 0 160 94" fill="none" xmlns="http://www.w3.org/2000/svg">
<path d="M134.737 94L-1.52588e-05 94L25.2631 3.47972e-06L160 1.52588e-05L134.737 94Z" fill="url(#paint0_linear_1933_144)"/>
<path fill-rule="evenodd" clip-rule="evenodd" d="M77.0832 26.1195H83.2719C83.915 26.1195 84.2351 26.4355 84.2322 27.0673L84.2189 30.8673C84.2189 31.0557 84.3114 31.1717 84.4964 31.2152C85.6387 31.4847 86.7047 31.9021 87.6943 32.4673C87.8911 32.5804 88.0496 32.5427 88.17 32.3543L92.1519 26.1413C92.2518 25.9876 92.2283 25.8543 92.0814 25.7413C89.9539 24.1239 89.7645 20.8673 91.7026 19.0413C95.7154 15.263 101.728 20.4369 98.4639 24.876C97.3305 26.4152 95.7345 26.9775 93.676 26.563C93.535 26.534 93.4249 26.5804 93.3456 26.7021L89.2976 33.0065C89.1831 33.1833 89.2125 33.3297 89.3857 33.4456C90.6044 34.2804 91.6821 35.2514 92.6188 36.3586C92.6898 36.4419 92.7353 36.5432 92.7501 36.651C92.7649 36.7588 92.7484 36.8685 92.7025 36.9673C92.6056 37.1789 92.4118 37.305 92.1211 37.3456C92.0262 37.3576 91.93 37.3464 91.8408 37.313C91.7517 37.2796 91.6725 37.2251 91.6101 37.1543C89.3755 34.6644 86.7076 33.034 83.6067 32.263C83.1603 32.1528 82.9328 31.8688 82.9239 31.4108C82.9063 30.1094 82.9107 28.876 82.9372 27.7108C82.9401 27.5195 82.8447 27.4239 82.6509 27.4239H76.2551C76.0507 27.4239 75.8546 27.3437 75.7101 27.201C75.5655 27.0583 75.4843 26.8648 75.4843 26.663V16.1195C75.4843 15.9688 75.4094 15.876 75.2597 15.8413C72.5199 15.1891 70.9254 12.4282 72.0045 9.79343C72.9824 7.40647 75.7442 6.33256 78.0875 7.43256C80.2326 8.43691 81.2634 10.9195 80.378 13.0847C79.7672 14.5862 78.6528 15.505 77.0348 15.8413C76.8821 15.8731 76.8057 15.9659 76.8057 16.1195V25.8456C76.8057 26.0282 76.8982 26.1195 77.0832 26.1195ZM79.3913 11.4717C79.3913 10.6311 79.053 9.82488 78.4508 9.23047C77.8486 8.63606 77.0319 8.30212 76.1803 8.30212C75.3286 8.30212 74.5119 8.63606 73.9097 9.23047C73.3075 9.82488 72.9692 10.6311 72.9692 11.4717C72.9692 12.3123 73.3075 13.1185 73.9097 13.7129C74.5119 14.3073 75.3286 14.6413 76.1803 14.6413C77.0319 14.6413 77.8486 14.3073 78.4508 13.7129C79.053 13.1185 79.3913 12.3123 79.3913 11.4717ZM97.1433 19.9926C96.5403 19.3974 95.7225 19.063 94.8697 19.063C94.4474 19.063 94.0293 19.1451 93.6392 19.3046C93.249 19.4641 92.8946 19.6979 92.596 19.9926C92.2974 20.2873 92.0605 20.6372 91.8989 21.0223C91.7374 21.4074 91.6542 21.8201 91.6542 22.2369C91.6542 22.6537 91.7374 23.0664 91.8989 23.4515C92.0605 23.8366 92.2974 24.1865 92.596 24.4812C92.8946 24.7759 93.249 25.0097 93.6392 25.1692C94.0293 25.3287 94.4474 25.4108 94.8697 25.4108C95.7225 25.4108 96.5403 25.0764 97.1433 24.4812C97.7464 23.886 98.0851 23.0787 98.0851 22.2369C98.0851 21.3951 97.7464 20.5878 97.1433 19.9926ZM43 32.3588V32.337C43.2966 30.3341 44.2098 29.0081 45.7398 28.3588C48.5368 27.1675 51.466 28.6936 52.087 31.6501C52.249 32.4185 52.0884 33.117 51.9201 33.8491C51.9008 33.933 51.8814 34.0173 51.8624 34.1023C51.8457 34.1733 51.852 34.2478 51.8804 34.3155C51.9088 34.3833 51.9579 34.4409 52.021 34.4805L59.4298 39.0631C59.4913 39.101 59.565 39.1144 59.6361 39.1007C59.7072 39.0869 59.7704 39.0471 59.813 38.9892L64.0019 33.3153C64.0668 33.2271 64.1496 33.1531 64.245 33.0981C64.3404 33.043 64.4465 33.0081 64.5565 32.9954C64.6665 32.9828 64.7781 32.9927 64.8843 33.0245C64.9905 33.0564 65.089 33.1095 65.1736 33.1805L67.8605 35.4327C67.9145 35.4778 67.9827 35.503 68.0535 35.5038C68.1243 35.5046 68.1931 35.481 68.2481 35.437L70.7588 33.3675C70.8027 33.331 70.8318 33.2802 70.8407 33.2242C70.8496 33.1683 70.8377 33.1111 70.8073 33.0631L67.1029 27.124C67.0695 27.0722 67.0205 27.0322 66.9628 27.0096C66.905 26.9869 66.8415 26.9828 66.7813 26.9979C62.9712 27.9196 59.8923 24.6196 61.3018 21.0153C62.7554 17.2936 68.2789 17.3762 69.6488 21.1196C70.3389 23.0095 69.894 24.7066 68.3142 26.211C68.2704 26.2513 68.242 26.3054 68.234 26.3641C68.226 26.4227 68.2387 26.4823 68.2701 26.5327L71.9569 32.4457C71.9872 32.4915 72.0335 32.5246 72.0865 32.5383C72.1396 32.552 72.1955 32.5453 72.2432 32.5196C73.7115 31.7197 75.2135 31.1762 76.7493 30.8892C76.8741 30.8667 77.0026 30.8899 77.1105 30.9544C77.4775 31.1747 77.548 31.4762 77.3219 31.8588C77.2845 31.9233 77.234 31.9796 77.1734 32.0245C77.1128 32.0693 77.0435 32.1017 76.9695 32.1196C73.6072 32.911 70.8616 34.5008 68.7326 36.8892C68.6009 37.0377 68.4153 37.1291 68.2159 37.1438C68.0165 37.1584 67.8192 37.0951 67.6667 36.9675L64.9313 34.6805C64.9079 34.6605 64.8806 34.6456 64.8509 34.6367C64.8212 34.6278 64.7899 34.6251 64.7589 34.6287C64.7279 34.6324 64.6978 34.6424 64.6707 34.658C64.6435 34.6737 64.6197 34.6946 64.601 34.7196L60.4296 40.3805C60.3178 40.5337 60.1505 40.6386 59.9615 40.6742C59.7726 40.7097 59.5762 40.6731 59.4121 40.5718L51.2369 35.5196C51.1812 35.4853 51.1166 35.4686 51.0519 35.4717C50.9872 35.4748 50.9256 35.4976 50.8757 35.537C50.8086 35.588 50.741 35.6401 50.6729 35.6926C50.1424 36.1015 49.5782 36.5365 48.9068 36.6675C45.6179 37.2936 43.649 35.8573 43 32.3588ZM68.6577 22.7196C68.6577 21.879 68.3194 21.0728 67.7172 20.4784C67.115 19.884 66.2983 19.5501 65.4467 19.5501C64.595 19.5501 63.7783 19.884 63.1761 20.4784C62.5739 21.0728 62.2356 21.879 62.2356 22.7196C62.2356 23.5603 62.5739 24.3665 63.1761 24.9609C63.7783 25.5553 64.595 25.8892 65.4467 25.8892C66.2983 25.8892 67.115 25.5553 67.7172 24.9609C68.3194 24.3665 68.6577 23.5603 68.6577 22.7196ZM50.8317 32.4066C50.8317 31.9904 50.7486 31.5782 50.5872 31.1937C50.4259 30.8091 50.1893 30.4597 49.8912 30.1654C49.593 29.8711 49.239 29.6376 48.8494 29.4783C48.4598 29.319 48.0423 29.237 47.6206 29.237C46.769 29.237 45.9522 29.571 45.35 30.1654C44.7478 30.7598 44.4095 31.566 44.4095 32.4066C44.4095 33.2472 44.7478 34.0534 45.35 34.6478C45.9522 35.2422 46.769 35.5762 47.6206 35.5762C48.0423 35.5762 48.4598 35.4942 48.8494 35.3349C49.239 35.1756 49.593 34.9421 49.8912 34.6478C50.1893 34.3535 50.4259 34.0041 50.5872 33.6195C50.7486 33.235 50.8317 32.8228 50.8317 32.4066ZM95.4604 52.3541C96.0095 50.8961 96.3164 49.4295 96.381 47.9541C96.3898 47.7454 96.4999 47.641 96.7113 47.641H103.891C104.026 47.641 104.116 47.7048 104.16 47.8323C104.812 49.8323 106.123 50.9555 108.093 51.2019C110.798 51.541 113.071 49.3715 113.066 46.7671C113.062 44.1063 110.732 41.9932 108.084 42.3497C105.935 42.6396 104.602 43.8918 104.085 46.1063C104.05 46.2599 103.953 46.3367 103.794 46.3367H96.729C96.5116 46.3367 96.403 46.2294 96.403 46.015C96.4089 44.9135 96.2474 43.815 95.9185 42.7193C95.8685 42.5512 95.9258 42.4338 96.0903 42.3671L99.9885 40.7628C100.082 40.7237 100.166 40.6658 100.235 40.5928C100.304 40.5198 100.357 40.4334 100.39 40.3394C100.423 40.2453 100.435 40.1457 100.426 40.047C100.417 39.9484 100.386 39.853 100.336 39.7671L96.9228 33.8671C96.9092 33.8431 96.9004 33.8166 96.8971 33.7894C96.8937 33.7621 96.8957 33.7346 96.9031 33.7083C96.9105 33.682 96.923 33.6575 96.94 33.6363C96.957 33.6151 96.9781 33.5975 97.002 33.5845L105.891 28.841C106.044 28.7599 106.182 28.7802 106.305 28.9019C107.735 30.2961 109.359 30.6961 111.177 30.1019C115.079 28.828 115.163 23.3193 111.388 21.7715C107.789 20.2976 104.142 23.7671 105.398 27.3497C105.418 27.412 105.416 27.4792 105.392 27.5397C105.368 27.6001 105.323 27.6499 105.265 27.6802L95.6366 32.8237C95.5579 32.8659 95.4885 32.9231 95.4324 32.9921C95.3764 33.0611 95.3349 33.1404 95.3103 33.2254C95.2857 33.3104 95.2785 33.3994 95.2891 33.4872C95.2998 33.575 95.328 33.6598 95.3723 33.7367L98.7595 39.5845C98.7743 39.6107 98.7832 39.6397 98.7858 39.6696C98.7884 39.6995 98.7846 39.7295 98.7747 39.7579C98.7647 39.7862 98.7488 39.8121 98.7279 39.8339C98.7071 39.8557 98.6819 39.873 98.6538 39.8845L94.945 41.4106C94.7635 41.4861 94.6165 41.6248 94.532 41.8004C94.4475 41.9761 94.4314 42.1762 94.4869 42.3628C95.4413 45.528 95.3796 48.6294 94.3019 51.6671C94.2429 51.8345 94.234 52.0152 94.2762 52.1878C94.3183 52.3604 94.4098 52.5177 94.5398 52.641C94.6132 52.7106 94.6998 52.7512 94.7997 52.7628C95.1256 52.7947 95.3459 52.6584 95.4604 52.3541ZM111.929 23.6638C112.53 24.2574 112.868 25.0624 112.868 25.9019C112.868 26.7414 112.53 27.5465 111.929 28.1401C111.327 28.7337 110.512 29.0671 109.661 29.0671C108.811 29.0671 107.995 28.7337 107.394 28.1401C106.793 27.5465 106.455 26.7414 106.455 25.9019C106.455 25.0624 106.793 24.2574 107.394 23.6638C107.995 23.0702 108.811 22.7367 109.661 22.7367C110.512 22.7367 111.327 23.0702 111.929 23.6638ZM110.828 44.5333C111.429 45.1269 111.767 45.932 111.767 46.7715C111.767 47.6109 111.429 48.416 110.828 49.0096C110.226 49.6032 109.411 49.9367 108.56 49.9367C107.71 49.9367 106.894 49.6032 106.293 49.0096C105.691 48.416 105.353 47.6109 105.353 46.7715C105.353 45.932 105.691 45.1269 106.293 44.5333C106.894 43.9397 107.71 43.6063 108.56 43.6063C109.411 43.6063 110.226 43.9397 110.828 44.5333ZM89.138 46.7853C89.138 49.1677 88.1792 51.4524 86.4726 53.137C84.766 54.8216 82.4513 55.768 80.0377 55.768C77.6242 55.768 75.3095 54.8216 73.6029 53.137C71.8963 51.4524 70.9375 49.1677 70.9375 46.7853C70.9375 44.403 71.8963 42.1182 73.6029 40.4337C75.3095 38.7491 77.6242 37.8027 80.0377 37.8027C82.4513 37.8027 84.766 38.7491 86.4726 40.4337C88.1792 42.1182 89.138 44.403 89.138 46.7853ZM87.843 46.7853C87.843 44.742 87.0206 42.7824 85.5569 41.3375C84.0931 39.8927 82.1078 39.081 80.0377 39.081C77.9677 39.081 75.9824 39.8927 74.5186 41.3375C73.0548 42.7824 72.2325 44.742 72.2325 46.7853C72.2325 48.8287 73.0548 50.7883 74.5186 52.2331C75.9824 53.678 77.9677 54.4897 80.0377 54.4897C82.1078 54.4897 84.0931 53.678 85.5569 52.2331C87.0206 50.7883 87.843 48.8287 87.843 46.7853ZM50.2575 51.2073C52.526 51.3856 54.6931 49.8986 55.0631 47.6682C55.0895 47.5059 55.1864 47.4247 55.3538 47.4247H63.3881C63.5937 47.4247 63.6964 47.5262 63.6964 47.7291C63.6964 48.8421 63.8624 49.932 64.1942 50.9986C64.2167 51.0735 64.2124 51.1538 64.1819 51.2259C64.1514 51.298 64.0966 51.3575 64.0268 51.3943L60.0449 53.4899C59.9596 53.5354 59.8847 53.5976 59.8247 53.6728C59.7648 53.748 59.7211 53.8345 59.6963 53.927C59.6716 54.0194 59.6663 54.116 59.6808 54.2105C59.6953 54.3051 59.7292 54.3958 59.7806 54.4769L63.1987 59.8726C63.2868 60.0117 63.2604 60.1233 63.1194 60.2073L54.8208 65.1726C54.6975 65.245 54.5771 65.2392 54.4597 65.1552C54.3823 65.0976 54.3055 65.0396 54.2288 64.9817C53.7025 64.5843 53.1818 64.1911 52.5436 63.9899C50.1914 63.2508 47.6191 64.4639 46.857 66.7856C45.9893 69.4247 47.5926 71.9943 50.2795 72.5986C51.2266 72.8117 52.4158 72.6247 53.2263 72.1552C55.3524 70.9233 56.0674 69.0624 55.3714 66.5725C55.3562 66.5172 55.3596 66.4585 55.381 66.4052C55.4025 66.3519 55.4408 66.3069 55.4904 66.2769L64.4981 60.8943C64.5837 60.8429 64.6581 60.7753 64.717 60.6954C64.7759 60.6155 64.8181 60.5249 64.841 60.4289C64.864 60.333 64.8673 60.2336 64.8508 60.1366C64.8343 60.0395 64.7982 59.9468 64.7448 59.8639L61.3223 54.4856C61.3114 54.469 61.304 54.4503 61.3008 54.4307C61.2975 54.4112 61.2984 54.3912 61.3034 54.372C61.3083 54.3528 61.3173 54.3348 61.3296 54.3192C61.342 54.3036 61.3575 54.2907 61.3751 54.2812L65.2425 52.2465C65.4062 52.1593 65.5342 52.0186 65.6049 51.8482C65.6755 51.6779 65.6845 51.4883 65.6301 51.3117C64.6963 48.3436 64.6787 45.3856 65.5773 42.4378C65.6977 42.0407 65.5832 41.7247 65.2337 41.4899C65.0839 41.3885 64.8975 41.3943 64.6743 41.5073C64.5637 41.5633 64.4787 41.658 64.4364 41.7726C63.9578 43.103 63.7053 44.4841 63.6788 45.916C63.6777 45.9706 63.6549 46.0226 63.6154 46.0608C63.5758 46.099 63.5227 46.1204 63.4674 46.1204H55.3406C55.1997 46.1204 55.1145 46.0523 55.0851 45.916C54.6799 44.1479 53.6316 43.0131 51.9401 42.5117C47.5486 41.203 44.1922 46.5639 47.4341 49.8726C48.224 50.6783 49.1651 51.1233 50.2575 51.2073ZM52.9346 44.5344C53.536 45.128 53.8738 45.9331 53.8738 46.7726C53.8738 47.612 53.536 48.4171 52.9346 49.0107C52.3332 49.6043 51.5176 49.9378 50.6672 49.9378C49.8167 49.9378 49.0011 49.6043 48.3997 49.0107C47.7983 48.4171 47.4605 47.612 47.4605 46.7726C47.4605 45.9331 47.7983 45.128 48.3997 44.5344C49.0011 43.9408 49.8167 43.6073 50.6672 43.6073C51.5176 43.6073 52.3332 43.9408 52.9346 44.5344ZM53.3984 65.9897C53.9989 66.5824 54.3363 67.3864 54.3363 68.2247C54.3363 69.063 53.9989 69.867 53.3984 70.4598C52.7979 71.0526 51.9834 71.3856 51.1341 71.3856C50.7135 71.3856 50.2971 71.3038 49.9086 71.145C49.5201 70.9861 49.1671 70.7533 48.8697 70.4598C48.2692 69.867 47.9318 69.063 47.9318 68.2247C47.9318 67.3864 48.2692 66.5824 48.8697 65.9897C49.4703 65.3969 50.2848 65.0639 51.1341 65.0639C51.9834 65.0639 52.7979 65.3969 53.3984 65.9897ZM116.998 60.9291V61.9943C116.64 63.8841 115.722 65.0798 114.245 65.5812C112.23 66.2682 110.542 65.8972 109.179 64.4682C107.911 63.1377 107.796 61.7595 108.175 60.0334C108.219 59.845 108.159 59.6986 107.994 59.5943L100.731 54.8943C100.605 54.816 100.498 54.8363 100.409 54.9551L96.4143 60.3682C96.3549 60.4495 96.2798 60.5183 96.1933 60.5709C96.1068 60.6234 96.0107 60.6586 95.9104 60.6743C95.8102 60.6901 95.7077 60.6861 95.609 60.6627C95.5103 60.6393 95.4172 60.5968 95.3352 60.5378L92.014 58.1725C91.8701 58.0682 91.7365 58.0827 91.6131 58.216C90.8056 59.0943 89.8821 59.8262 88.8425 60.4117C88.6517 60.5189 88.6194 60.6595 88.7456 60.8334L92.6879 66.3899C92.7194 66.435 92.7654 66.4684 92.8188 66.4849C92.8722 66.5014 92.9299 66.5001 92.983 66.4812C94.6069 65.8986 96.0707 66.0175 97.3746 66.8377C98.7356 67.6943 99.5241 69.3551 99.3743 70.9464C99.1585 73.2551 97.1543 75.0378 94.8066 75.016C93.1592 74.9986 91.4634 74.003 90.8115 72.5334C90.0157 70.7421 90.2638 69.0421 91.5559 67.4334C91.6645 67.3001 91.6689 67.1624 91.5691 67.0204L87.596 61.4291C87.4903 61.2812 87.3567 61.2508 87.1951 61.3377C86.3817 61.7754 85.3819 62.1421 84.1955 62.4378C83.896 62.5131 83.6009 62.4972 83.3101 62.3899C83.0635 62.3001 82.9475 62.1827 82.9622 62.0378C83.0004 61.6754 83.1736 61.4493 83.4819 61.3595C86.53 60.4638 89.0892 59.1595 91.1682 56.816C91.2947 56.674 91.4698 56.5833 91.6596 56.5616C91.8493 56.5399 92.04 56.5887 92.1946 56.6986L95.5466 59.0725C95.5627 59.0842 95.581 59.0925 95.6004 59.0971C95.6199 59.1017 95.64 59.1023 95.6597 59.0991C95.6794 59.0959 95.6983 59.0888 95.7151 59.0782C95.732 59.0677 95.7466 59.0539 95.758 59.0378L99.7355 53.6421C99.8654 53.4642 100.06 53.3428 100.279 53.3031C100.498 53.2634 100.725 53.3085 100.912 53.4291L108.686 58.4638C108.818 58.5479 108.943 58.5378 109.06 58.4334C109.927 57.6711 110.584 57.2508 111.034 57.1725C114.279 56.6015 116.267 57.8537 116.998 60.9291ZM115.676 61.4508C115.676 60.6113 115.339 59.8062 114.737 59.2126C114.136 58.6191 113.32 58.2856 112.47 58.2856C111.619 58.2856 110.804 58.6191 110.202 59.2126C109.601 59.8062 109.263 60.6113 109.263 61.4508C109.263 62.2903 109.601 63.0953 110.202 63.6889C110.804 64.2825 111.619 64.616 112.47 64.616C113.32 64.616 114.136 64.2825 114.737 63.6889C115.339 63.0953 115.676 62.2903 115.676 61.4508ZM98.0749 70.5595C98.0749 69.72 97.7371 68.9149 97.1357 68.3213C96.5343 67.7277 95.7187 67.3943 94.8682 67.3943C94.0178 67.3943 93.2022 67.7277 92.6008 68.3213C91.9994 68.9149 91.6616 69.72 91.6616 70.5595C91.6616 71.399 91.9994 72.204 92.6008 72.7976C93.2022 73.3912 94.0178 73.7247 94.8682 73.7247C95.7187 73.7247 96.5343 73.3912 97.1357 72.7976C97.7371 72.204 98.0749 71.399 98.0749 70.5595ZM82.9543 86.8809H84.3418C89.2531 85.8027 89.3896 79.0809 84.4827 78.0766C84.3095 78.0389 84.2229 77.9331 84.2229 77.7592L84.2273 67.1201C84.2278 67.0175 84.2079 66.9158 84.1685 66.8209C84.1291 66.726 84.0712 66.6397 83.9979 66.5669C83.9246 66.4942 83.8375 66.4365 83.7416 66.3971C83.6456 66.3577 83.5427 66.3375 83.4388 66.3375H77.488C77.2824 66.3375 77.1796 66.2346 77.1796 66.0288L77.184 61.9983C77.1841 61.8494 77.1333 61.7049 77.0397 61.5881C76.9462 61.4713 76.8155 61.3891 76.6687 61.3548C73.5061 60.5896 70.8661 59.0331 68.7489 56.6853C68.4758 56.3809 68.1587 56.3273 67.7975 56.5244C67.727 56.5621 67.6683 56.6143 67.6213 56.6809C67.448 56.9186 67.4554 57.152 67.6433 57.3809C68.5008 58.4331 69.5139 59.3244 70.6826 60.0548C70.8206 60.1389 70.8456 60.2476 70.7575 60.3809L66.9298 66.1679C66.889 66.2303 66.831 66.2801 66.7625 66.3117C66.6939 66.3432 66.6176 66.3551 66.5421 66.3462C66.335 66.3223 66.1352 66.2784 65.936 66.2346C65.627 66.1667 65.3194 66.0991 64.9873 66.107C60.7543 66.1983 58.8955 71.294 62.1418 73.9766C64.1459 75.6331 67.2337 75.2679 68.6696 73.1331C69.9999 71.1563 69.809 69.178 68.097 67.1983C68.0031 67.0911 67.9957 66.978 68.075 66.8592L71.8675 61.1114C71.9761 60.9491 72.1127 60.9186 72.2771 61.0201C73.2697 61.6259 74.365 62.0664 75.5631 62.3418C75.6508 62.3631 75.7288 62.4128 75.7847 62.4829C75.8406 62.553 75.8711 62.6396 75.8714 62.7288L75.8846 66.9679C75.8846 67.1466 75.9566 67.318 76.0846 67.4444C76.2126 67.5708 76.3863 67.6418 76.5674 67.6418H82.6195C82.8221 67.6418 82.9234 67.7418 82.9234 67.9418V77.7679C82.9234 77.936 82.8398 78.0389 82.6724 78.0766C79.8445 78.707 78.3029 81.6244 79.5054 84.3114C80.1044 85.6534 81.254 86.5099 82.9543 86.8809ZM67.9678 69.3496C68.1287 69.7331 68.2115 70.1441 68.2115 70.5592C68.2115 71.3975 67.8742 72.2015 67.2736 72.7943C66.6731 73.387 65.8586 73.7201 65.0093 73.7201C64.16 73.7201 63.3455 73.387 62.7449 72.7943C62.1444 72.2015 61.807 71.3975 61.807 70.5592C61.807 70.1441 61.8898 69.7331 62.0508 69.3496C62.2117 68.9661 62.4476 68.6176 62.7449 68.3241C63.0423 68.0306 63.3953 67.7978 63.7838 67.6389C64.1723 67.4801 64.5888 67.3983 65.0093 67.3983C65.4298 67.3983 65.8462 67.4801 66.2347 67.6389C66.6232 67.7978 66.9763 68.0306 67.2736 68.3241C67.571 68.6176 67.8069 68.9661 67.9678 69.3496ZM86.5515 81.2235C86.7124 81.607 86.7952 82.018 86.7952 82.4331C86.7952 83.2714 86.4579 84.0754 85.8573 84.6682C85.2568 85.261 84.4423 85.594 83.593 85.594C82.7437 85.594 81.9292 85.261 81.3286 84.6682C80.7281 84.0754 80.3907 83.2714 80.3907 82.4331C80.3907 82.018 80.4735 81.607 80.6345 81.2235C80.7954 80.84 81.0313 80.4915 81.3286 80.198C81.626 79.9045 81.979 79.6717 82.3675 79.5128C82.756 79.354 83.1724 79.2722 83.593 79.2722C84.0135 79.2722 84.4299 79.354 84.8184 79.5128C85.2069 79.6717 85.56 79.9045 85.8573 80.198C86.1547 80.4915 86.3905 80.84 86.5515 81.2235Z" fill="url(#paint1_linear_1933_144)"/>
<defs>
<linearGradient id="paint0_linear_1933_144" x1="80" y1="94" x2="80" y2="8.26497e-06" gradientUnits="userSpaceOnUse">
<stop stop-color="#CDE5F6"/>
<stop offset="1" stop-color="white" stop-opacity="0"/>
</linearGradient>
<linearGradient id="paint1_linear_1933_144" x1="79.9989" y1="7" x2="79.9989" y2="86.8809" gradientUnits="userSpaceOnUse">
<stop stop-color="#5EB83E"/>
<stop offset="1" stop-color="#005B9F"/>
</linearGradient>
</defs>
</svg>
