<svg width="160" height="94" viewBox="0 0 160 94" fill="none" xmlns="http://www.w3.org/2000/svg">
<path d="M134.737 94L-1.52588e-05 94L25.2631 3.47972e-06L160 1.52588e-05L134.737 94Z" fill="url(#paint0_linear_1933_147)"/>
<path fill-rule="evenodd" clip-rule="evenodd" d="M46.1211 17H63.1535C64.5463 17.2576 65.4703 17.6085 65.9255 18.0525C66.1317 18.2559 66.3906 18.5298 66.6857 18.8419C68.0212 20.2545 70.0985 22.4518 71.3976 22.4559C84.3644 22.4898 96.1232 22.4831 106.674 22.4356C109.728 22.4254 111.859 23.3661 111.35 26.9051C111.263 27.5102 110.637 27.6729 110.165 27.3475C110.041 27.2627 109.973 27.1458 109.959 26.9966L109.81 25.3034C109.793 25.1237 109.728 24.9627 109.615 24.8203C109.187 24.2746 108.708 24.0017 108.178 24.0017C96.6793 23.9915 85.1806 23.9881 73.6819 23.9915C73.4247 23.9915 73.1817 23.9936 72.951 23.9956C71.0823 24.0117 70.0185 24.0208 68.7026 22.8576C67.6486 21.922 66.6493 20.9525 65.7047 19.9492C64.9193 19.1153 63.8516 18.5559 62.6915 18.5508C57.257 18.5136 51.8054 18.5119 46.3367 18.5458C45.8579 18.5484 45.3996 18.7387 45.062 19.0751C44.7244 19.4114 44.5349 19.8664 44.5349 20.3407C44.5451 37.5102 44.5417 54.039 44.5246 69.9271C44.5212 72.083 45.1919 73.6254 46.5369 74.5542C47.4027 75.1508 48.2411 75.4763 49.0522 75.5305C51.7985 75.7085 54.1701 73.3898 54.1701 70.7203C54.1667 59.7915 54.165 48.9305 54.165 38.1373C54.165 35.8797 55.3816 34.4458 57.9123 34.4356C63.4255 34.4119 68.8258 34.4068 74.1131 34.4203C75.634 34.4257 76.632 33.414 77.6619 32.3701C78.5682 31.4514 79.4991 30.5077 80.8327 30.2102C81.5445 30.0542 82.3419 29.9746 83.2248 29.9712C95.336 29.961 106.568 29.9627 116.92 29.9763C118.419 29.9797 119.446 30.7593 120 32.3153V74.2034C119.675 75.6068 118.795 76.539 117.361 77H48.0153C44.8908 75.9492 43.219 73.8102 43 70.583V20.3C43.1506 18.439 44.1909 17.339 46.1211 17ZM55.6999 70.8271C55.6999 72.5102 54.9658 73.8831 53.8929 75.1441C53.7081 75.3644 53.7612 75.4746 54.0521 75.4746H116.663C117.14 75.4746 117.597 75.2871 117.934 74.9533C118.271 74.6196 118.46 74.1669 118.46 73.6949V33.0169C118.46 32.6178 118.3 32.235 118.016 31.9527C117.732 31.6704 117.347 31.5119 116.946 31.5119C104.639 31.4949 93.1937 31.4864 82.6088 31.4864C80.6297 31.4864 79.5364 32.5808 78.4354 33.6828C77.3203 34.799 76.1975 35.9229 74.1388 35.9254C68.3073 35.939 62.7856 35.9458 57.5735 35.9458C57.327 35.9458 57.083 35.9939 56.8553 36.0875C56.6277 36.1811 56.4209 36.3183 56.2468 36.4911C56.0728 36.664 55.9349 36.8692 55.841 37.095C55.7472 37.3207 55.6992 37.5626 55.6999 37.8068C55.7067 49.3254 55.7067 60.3322 55.6999 70.8271ZM110.26 64.7858C110.428 64.6299 110.62 64.5146 110.835 64.4401C111.058 64.3655 111.256 64.4045 111.431 64.557C111.811 64.8858 111.843 65.2333 111.528 65.5994C111.145 66.0435 110.709 66.4689 110.219 66.8757C110.069 67.0011 109.993 67.1604 109.993 67.3536L109.988 70.8977C109.988 71.1 109.908 71.294 109.764 71.437C109.621 71.5801 109.426 71.6604 109.223 71.6604H102.812C102.608 71.6604 102.412 71.5806 102.267 71.4385C102.123 71.2964 102.042 71.1037 102.042 70.9028L102.037 68.7316C102.037 68.6642 102.009 68.5995 101.96 68.5518C101.911 68.5041 101.844 68.4774 101.775 68.4774L94.7012 68.4824C94.5027 68.4824 94.3076 68.4335 94.1337 68.3403C93.9598 68.247 93.8125 68.1123 93.7054 67.9485L90.4662 63.0265C90.3499 62.8502 90.1856 62.7621 89.9734 62.7621H83.1718C82.9151 62.7621 82.7269 62.8757 82.6071 63.1028L79.9634 68.1011C79.83 68.3553 79.6195 68.4824 79.332 68.4824H71.2008C71.0092 68.4824 70.9117 68.5791 70.9082 68.7723L70.9031 70.8723C70.9031 71.0813 70.8193 71.2818 70.6701 71.4296C70.5208 71.5774 70.3185 71.6604 70.1074 71.6604H63.9218C63.6835 71.6604 63.455 71.5667 63.2866 71.3998C63.1181 71.2329 63.0234 71.0066 63.0234 70.7706V64.8113C63.0248 64.5743 63.1204 64.3475 63.2895 64.1799C63.4587 64.0124 63.6877 63.9177 63.9269 63.9163C65.8433 63.9028 67.8813 63.9028 70.0407 63.9163C70.5951 63.9197 70.8723 64.196 70.8723 64.7452C70.8726 64.7764 70.8825 64.8067 70.9007 64.8322C70.919 64.8576 70.9447 64.8769 70.9743 64.8874C71.004 64.898 71.0362 64.8992 71.0666 64.8911C71.097 64.8829 71.1241 64.8657 71.1444 64.8418C71.3565 64.5909 71.6303 64.4468 71.9657 64.4096C72.1745 64.3858 72.3421 64.4536 72.4688 64.6129C73.0612 65.3522 72.1362 66.0747 71.5502 66.5324C71.4913 66.5784 71.4358 66.6217 71.3856 66.6621C71.1427 66.8587 71.1769 66.957 71.4883 66.957H78.6698C78.7657 66.957 78.8375 66.9146 78.8854 66.8299L80.985 62.9045C80.9891 62.8959 80.9911 62.8865 80.9909 62.877C80.9907 62.8675 80.9882 62.8582 80.9838 62.8498C80.9809 62.8445 80.9774 62.8397 80.9732 62.8355C80.9707 62.833 80.968 62.8307 80.9651 62.8286C80.9572 62.8231 80.9482 62.8195 80.9388 62.818C77.6945 62.4265 77.6996 59.7519 77.8844 57.2706C77.9015 57.0333 77.7886 56.9146 77.5456 56.9146H71.2111C71.0195 56.9146 70.9219 57.0079 70.9185 57.1943L70.8877 58.8723C70.885 59.0607 70.807 59.2404 70.6706 59.3727C70.5342 59.505 70.3503 59.5791 70.1588 59.579L63.9218 59.5841C63.6835 59.5841 63.455 59.4904 63.2866 59.3235C63.1181 59.1566 63.0234 58.9303 63.0234 58.6943V52.7197C63.0234 52.4837 63.1181 52.2574 63.2866 52.0905C63.455 51.9236 63.6835 51.8299 63.9218 51.8299H70.1844C70.3658 51.8299 70.5164 51.8977 70.6362 52.0333C70.7936 52.2096 70.8826 52.4113 70.9031 52.6384C70.9236 52.8655 71.0126 52.896 71.17 52.7299C71.437 52.4485 71.7398 52.3265 72.0786 52.3638C72.2141 52.3781 72.3426 52.4305 72.449 52.5149C72.5553 52.5992 72.6351 52.7119 72.6788 52.8397C72.7225 52.9675 72.7284 53.1051 72.6957 53.2361C72.6631 53.3671 72.5932 53.4861 72.4944 53.5791L70.9339 55.0435C70.6909 55.274 70.7371 55.3892 71.0725 55.3892H77.5251C77.7407 55.3892 77.8485 55.2841 77.8485 55.074L77.869 48.8502C77.869 48.6401 77.7715 48.496 77.5764 48.418L71.2316 45.9672C71.0058 45.8791 70.8997 45.9553 70.9134 46.196C70.9476 46.9045 70.6122 47.257 69.9072 47.2536C67.8505 47.2502 65.8656 47.2502 63.9526 47.2536C63.8306 47.2536 63.7097 47.2298 63.597 47.1836C63.4843 47.1373 63.3819 47.0695 63.2956 46.9841C63.2093 46.8986 63.1409 46.7971 63.0942 46.6855C63.0475 46.5738 63.0234 46.4541 63.0234 46.3333V40.3994C63.0234 40.1372 63.1271 39.8855 63.3123 39.6982C63.4976 39.5109 63.7495 39.403 64.0142 39.3977C64.8687 39.3794 65.7253 39.3878 66.5793 39.3961C67.6286 39.4064 68.6741 39.4166 69.707 39.3774C70.3846 39.3502 70.7816 39.6418 70.898 40.2519C70.9054 40.2865 70.9222 40.3185 70.9467 40.3442C70.9712 40.37 71.0023 40.3886 71.0367 40.3981C71.0712 40.4075 71.1075 40.4074 71.1419 40.3978C71.1763 40.3882 71.2073 40.3694 71.2316 40.3435C71.656 39.8757 72.0718 39.8248 72.479 40.1909C72.5531 40.2581 72.6123 40.3398 72.6527 40.4308C72.6932 40.5219 72.7141 40.6203 72.7141 40.7197C72.7141 40.8192 72.6932 40.9176 72.6527 41.0086C72.6123 41.0997 72.5531 41.1814 72.479 41.2485L71.1803 42.4384C71.0269 42.5794 70.9121 42.7568 70.8467 42.9538C70.7814 43.1507 70.7675 43.3609 70.8065 43.5647C70.8455 43.7684 70.936 43.959 71.0696 44.1186C71.2032 44.2782 71.3755 44.4017 71.5704 44.4774L77.982 46.9485C78.1736 47.0231 78.3413 46.9858 78.485 46.8367C79.2756 46.0163 80.2868 45.6045 81.5188 45.6011C85.4886 45.5909 88.9536 45.5977 91.9138 45.6214C93.0466 45.6316 93.9655 46.0757 94.6704 46.9536C94.7697 47.0757 94.8895 47.1028 95.0298 47.035L101.796 43.9231C101.956 43.8519 102.037 43.7282 102.037 43.5519L102.042 40.3028C102.042 40.064 102.137 39.8348 102.306 39.6645C102.475 39.4943 102.704 39.3966 102.945 39.3926C104.992 39.3587 107.008 39.3587 108.992 39.3926C109.502 39.3994 109.807 39.6452 109.906 40.1299C109.968 40.4316 110.11 40.4774 110.332 40.2672C110.575 40.0367 110.844 39.9485 111.138 40.0028C111.271 40.0288 111.395 40.0906 111.495 40.1815C111.595 40.2725 111.668 40.3889 111.705 40.5181C111.743 40.6473 111.744 40.7843 111.708 40.9141C111.673 41.0438 111.601 41.1613 111.503 41.2536L110.224 42.4384C110.07 42.5807 109.993 42.7553 109.993 42.9621V46.3689C109.993 46.5986 109.902 46.819 109.738 46.9819C109.575 47.1448 109.353 47.237 109.121 47.2384C107.266 47.2519 105.283 47.2587 103.171 47.2587C102.37 47.2587 101.873 46.8011 102.042 45.9367C102.114 45.5875 101.985 45.4892 101.657 45.6418L95.425 48.5146C95.3438 48.5524 95.2751 48.6131 95.2269 48.6896C95.1788 48.7661 95.1531 48.8554 95.153 48.9468V55.0943C95.153 55.2909 95.2522 55.3892 95.4507 55.3892H101.78C101.948 55.3892 102.033 55.3045 102.037 55.135L102.042 52.5875C102.042 52.3866 102.123 52.1939 102.267 52.0518C102.412 51.9097 102.608 51.8299 102.812 51.8299H109.259C109.444 51.8299 109.586 51.9079 109.685 52.0638L110.019 52.5824C110.101 52.7113 110.2 52.7248 110.317 52.6231C110.55 52.4096 110.811 52.3231 111.102 52.3638C111.236 52.3817 111.363 52.4368 111.467 52.5226C111.571 52.6085 111.648 52.7217 111.69 52.8493C111.732 52.9768 111.736 53.1134 111.703 53.2434C111.67 53.3734 111.601 53.4915 111.503 53.5841L110.189 54.8096C110.058 54.9316 109.993 55.0807 109.993 55.257L109.988 58.8214C109.988 59.0224 109.908 59.2151 109.764 59.3571C109.621 59.4992 109.426 59.579 109.223 59.579L102.935 59.5841C102.697 59.5841 102.468 59.4904 102.3 59.3235C102.131 59.1566 102.037 58.9303 102.037 58.6943V57.1689C102.037 57.1015 102.01 57.0368 101.962 56.9891C101.913 56.9414 101.848 56.9146 101.78 56.9146H95.461C95.2762 56.9146 95.1803 57.0062 95.1735 57.1892C95.1256 58.0367 95.1324 58.9028 95.194 59.7875C95.2967 61.3841 93.8799 62.6248 92.4118 62.7774C92.3864 62.7805 92.3621 62.7899 92.3414 62.8046C92.3206 62.8193 92.304 62.8388 92.2931 62.8613C92.2823 62.8838 92.2776 62.9085 92.2795 62.933C92.2814 62.9575 92.2898 62.9809 92.304 63.0011L94.7526 66.6977C94.8065 66.7775 94.8791 66.8428 94.9642 66.8881C95.0492 66.9333 95.1441 66.957 95.2402 66.957H101.713C101.929 66.957 102.037 66.8519 102.037 66.6418V64.796C102.038 64.5653 102.131 64.3444 102.295 64.1808C102.459 64.0172 102.682 63.9241 102.915 63.9214C104.995 63.8977 107.04 63.8977 109.049 63.9214C109.576 63.9248 109.881 64.1807 109.963 64.6892C109.997 64.9096 110.096 64.9418 110.26 64.7858ZM65.7082 41.9807L66.971 43.8468C67.0736 43.9994 67.1951 44.0163 67.3354 43.8977C68.037 43.3079 68.6958 42.6757 69.3118 42.0011C69.3979 41.9063 69.4546 41.7889 69.4749 41.6629C69.4952 41.537 69.4783 41.4079 69.4262 41.2913C69.3741 41.1746 69.2891 41.0754 69.1813 41.0056C69.0736 40.9357 68.9477 40.8983 68.819 40.8977H64.7688C64.649 40.8977 64.584 40.957 64.5737 41.0757L64.5532 41.2994C64.5497 41.3399 64.5544 41.3807 64.567 41.4193C64.5796 41.458 64.5999 41.4938 64.6267 41.5246C64.6535 41.5553 64.6862 41.5805 64.7229 41.5986C64.7597 41.6167 64.7997 41.6273 64.8406 41.6299L65.1178 41.6452C65.3711 41.6587 65.5679 41.7706 65.7082 41.9807ZM104.66 41.935L105.989 43.857C106.099 44.0163 106.226 44.0316 106.369 43.9028L108.356 42.0824C108.458 41.9897 108.529 41.8685 108.56 41.7349C108.591 41.6013 108.58 41.4614 108.529 41.3334C108.478 41.2055 108.389 41.0954 108.274 41.0177C108.159 40.94 108.023 40.8982 107.884 40.8977H103.782C103.659 40.8977 103.594 40.957 103.587 41.0757L103.567 41.3045C103.564 41.345 103.569 41.3856 103.582 41.424C103.596 41.4624 103.617 41.4978 103.644 41.5281C103.671 41.5584 103.704 41.583 103.741 41.6005C103.778 41.618 103.818 41.628 103.859 41.6299L104.136 41.6452C104.359 41.6553 104.533 41.7519 104.66 41.935ZM64.5583 45.5757C64.5583 45.6188 64.5756 45.6602 64.6064 45.6907C64.6372 45.7212 64.679 45.7384 64.7226 45.7384L66.1086 45.7231C66.1382 45.7227 66.1672 45.7143 66.1925 45.6989C66.2177 45.6835 66.2383 45.6616 66.252 45.6355C66.2657 45.6094 66.272 45.5802 66.2702 45.5508C66.2685 45.5215 66.2587 45.4932 66.242 45.4689L64.8663 43.3841C64.8465 43.3566 64.8185 43.336 64.7863 43.3249C64.7541 43.3139 64.7192 43.3131 64.6864 43.3226C64.6537 43.3321 64.6248 43.3514 64.6037 43.3779C64.5825 43.4045 64.5703 43.4368 64.5686 43.4706L64.5583 45.5757ZM103.572 45.5706C103.572 45.6137 103.589 45.6551 103.62 45.6856C103.651 45.7161 103.692 45.7333 103.736 45.7333L105.122 45.718C105.151 45.7179 105.18 45.7101 105.205 45.6953C105.23 45.6805 105.251 45.6593 105.265 45.6338C105.279 45.6084 105.286 45.5797 105.286 45.5507C105.285 45.5217 105.276 45.4935 105.261 45.4689L103.88 43.435C103.86 43.4072 103.831 43.3864 103.798 43.3755C103.766 43.3647 103.73 43.3643 103.697 43.3744C103.665 43.3845 103.636 43.4047 103.615 43.432C103.594 43.4593 103.583 43.4923 103.582 43.5265L103.572 45.5706ZM67.8231 45.5299C67.6828 45.6587 67.7085 45.7231 67.9001 45.7231L69.0346 45.7282C69.2775 45.7316 69.3956 45.6113 69.3888 45.3672L69.3682 44.5028C69.3614 44.2519 69.2656 44.2129 69.0808 44.3858L67.8231 45.5299ZM106.842 45.535C106.705 45.6604 106.73 45.7248 106.919 45.7282H108.135C108.354 45.7282 108.462 45.6214 108.459 45.4079L108.448 44.4824C108.441 44.2079 108.335 44.1638 108.13 44.3502L106.842 45.535ZM93.6489 48.6468C93.6489 48.2463 93.4883 47.8622 93.2024 47.579C92.9164 47.2958 92.5287 47.1367 92.1243 47.1367H80.9028C80.4985 47.1367 80.1107 47.2958 79.8248 47.579C79.5389 47.8622 79.3782 48.2463 79.3782 48.6468V59.7316C79.3782 60.1321 79.5389 60.5162 79.8248 60.7994C80.1107 61.0827 80.4985 61.2418 80.9028 61.2418H92.1243C92.5287 61.2418 92.9164 61.0827 93.2024 60.7994C93.4883 60.5162 93.6489 60.1321 93.6489 59.7316V48.6468ZM65.6671 54.2655L66.9658 56.2231C67.0822 56.396 67.2157 56.4079 67.3662 56.2587C67.5373 56.0828 67.7585 55.8976 67.992 55.7019C68.6834 55.1226 69.4835 54.4523 69.4144 53.6655C69.3973 53.4587 69.2844 53.3553 69.0756 53.3553L64.7996 53.3502C64.6524 53.3502 64.5771 53.4248 64.5737 53.574V53.7265C64.5737 53.8994 64.6593 53.9858 64.8304 53.9858L65.1384 53.9807C65.3642 53.9807 65.5405 54.0757 65.6671 54.2655ZM104.68 54.3519C105.136 54.9689 105.557 55.5841 105.943 56.1977C106.06 56.3807 106.2 56.3977 106.364 56.2485L108.397 54.3926C108.485 54.3105 108.547 54.2041 108.573 54.0871C108.6 53.9701 108.59 53.8479 108.546 53.7363C108.502 53.6246 108.425 53.5287 108.325 53.4608C108.225 53.3929 108.107 53.3561 107.986 53.3553L103.839 53.3502C103.674 53.3502 103.596 53.4316 103.602 53.5943L103.608 53.7316C103.614 53.8875 103.698 53.9638 103.859 53.9604C104.208 53.9536 104.482 54.0841 104.68 54.3519ZM64.5583 57.9062C64.5583 57.9493 64.5756 57.9907 64.6064 58.0212C64.6372 58.0517 64.679 58.0689 64.7226 58.0689L66.1188 58.0638C66.1485 58.0634 66.1775 58.055 66.2027 58.0396C66.228 58.0242 66.2486 58.0022 66.2622 57.9762C66.2759 57.9501 66.2822 57.9208 66.2805 57.8915C66.2787 57.8622 66.269 57.8339 66.2523 57.8096L64.8663 55.7757C64.8462 55.7479 64.8178 55.7271 64.7851 55.7162C64.7524 55.7053 64.7171 55.7049 64.6841 55.7151C64.6512 55.7252 64.6223 55.7453 64.6015 55.7726C64.5808 55.7999 64.5693 55.833 64.5686 55.8672L64.5583 57.9062ZM103.572 57.9062C103.572 57.9493 103.589 57.9907 103.62 58.0212C103.651 58.0517 103.692 58.0689 103.736 58.0689L105.132 58.0638C105.162 58.0643 105.192 58.0566 105.218 58.0416C105.244 58.0265 105.265 58.0047 105.28 57.9784C105.294 57.9522 105.301 57.9226 105.299 57.8928C105.297 57.863 105.288 57.8342 105.271 57.8096L103.88 55.8062C103.86 55.7784 103.831 55.7576 103.798 55.7467C103.766 55.7359 103.73 55.7355 103.697 55.7456C103.665 55.7557 103.636 55.7758 103.615 55.8032C103.594 55.8305 103.583 55.8635 103.582 55.8977L103.572 57.9062ZM106.898 58.0841L108.14 58.0536C108.352 58.0502 108.459 57.9435 108.459 57.7333L108.453 56.813C108.453 56.518 108.346 56.474 108.13 56.6807L106.831 57.9265C106.818 57.9393 106.809 57.9559 106.805 57.974C106.801 57.9921 106.803 58.011 106.81 58.028C106.817 58.0451 106.829 58.0596 106.845 58.0696C106.861 58.0797 106.879 58.0847 106.898 58.0841ZM67.9976 58.074L69.0346 58.0587C69.2741 58.0553 69.3956 57.935 69.399 57.6977L69.4042 56.9197C69.4076 56.5774 69.2844 56.5248 69.0346 56.7621L67.9052 57.8452C67.8856 57.8633 67.8719 57.887 67.8661 57.913C67.8602 57.939 67.8624 57.9661 67.8724 57.9909C67.8824 58.0156 67.8997 58.0368 67.9221 58.0516C67.9444 58.0664 67.9707 58.0742 67.9976 58.074ZM65.6568 66.3367L66.9864 68.3096C67.0856 68.4587 67.2003 68.4723 67.3303 68.3502L69.2964 66.5401C69.3908 66.4526 69.4565 66.3391 69.4852 66.2142C69.5138 66.0893 69.504 65.9588 69.4571 65.8395C69.4101 65.7202 69.3281 65.6176 69.2217 65.5449C69.1153 65.4722 68.9893 65.4327 68.86 65.4316L64.7944 65.4265C64.6747 65.4265 64.6062 65.4841 64.5891 65.5994L64.5634 65.7977C64.5326 65.9875 64.6131 66.0791 64.8047 66.0723L65.1281 66.0621C65.354 66.0553 65.5302 66.1468 65.6568 66.3367ZM104.111 66.1231C104.207 66.1111 104.304 66.1255 104.393 66.165C104.482 66.2044 104.558 66.2673 104.614 66.3468L105.969 68.2943C106.099 68.4841 106.246 68.5011 106.41 68.3452L108.397 66.479C108.487 66.3959 108.549 66.2879 108.576 66.169C108.603 66.0502 108.593 65.9261 108.548 65.8129C108.502 65.6997 108.423 65.6028 108.321 65.5347C108.219 65.4667 108.099 65.4308 107.976 65.4316L103.864 65.4265C103.808 65.4258 103.753 65.4403 103.705 65.4686C103.657 65.4969 103.618 65.5377 103.592 65.5866C103.566 65.6356 103.554 65.6907 103.558 65.7459C103.562 65.8011 103.581 65.8542 103.613 65.8994C103.732 66.0723 103.898 66.1469 104.111 66.1231ZM64.5583 69.9774C64.5583 70.0205 64.5756 70.0619 64.6064 70.0924C64.6372 70.1229 64.679 70.1401 64.7226 70.1401L66.0932 70.1299C66.1225 70.1298 66.1512 70.1219 66.1764 70.1071C66.2016 70.0923 66.2223 70.0711 66.2365 70.0457C66.2506 70.0203 66.2576 69.9916 66.2568 69.9626C66.256 69.9336 66.2473 69.9053 66.2318 69.8807L64.8663 67.8316C64.8462 67.8038 64.8178 67.783 64.7851 67.7722C64.7524 67.7613 64.7171 67.7609 64.6841 67.771C64.6512 67.7811 64.6223 67.8013 64.6015 67.8286C64.5808 67.8559 64.5693 67.889 64.5686 67.9231L64.5583 69.9774ZM103.572 69.9824C103.572 70.0242 103.588 70.0643 103.618 70.0939C103.648 70.1235 103.689 70.1401 103.731 70.1401L105.091 70.1248C105.12 70.1249 105.148 70.1172 105.173 70.1027C105.197 70.0882 105.218 70.0673 105.231 70.0423C105.245 70.0172 105.252 69.989 105.25 69.9606C105.249 69.9321 105.24 69.9045 105.225 69.8807L103.875 67.8926C103.856 67.8641 103.828 67.8423 103.796 67.8305C103.764 67.8188 103.728 67.8177 103.696 67.8274C103.663 67.8371 103.634 67.8572 103.613 67.8845C103.593 67.9118 103.582 67.945 103.582 67.9791L103.572 69.9824ZM69.3785 68.9858C69.3717 68.6841 69.257 68.6367 69.0346 68.8435L67.9155 69.8909C67.741 70.0536 67.7752 70.135 68.0182 70.135H69.1013C69.3032 70.135 69.4025 70.035 69.399 69.835L69.3785 68.9858ZM108.453 68.8791C108.453 68.8474 108.444 68.8164 108.426 68.79C108.408 68.7636 108.383 68.743 108.354 68.7306C108.324 68.7181 108.292 68.7145 108.26 68.7201C108.229 68.7257 108.199 68.7403 108.176 68.7621L106.99 69.8502C106.967 69.8724 106.951 69.9008 106.944 69.9319C106.937 69.9631 106.94 69.9955 106.951 70.0253C106.963 70.0551 106.983 70.0809 107.009 70.0995C107.035 70.1181 107.066 70.1287 107.098 70.1299L108.289 70.1401C108.333 70.1401 108.375 70.1229 108.405 70.0924C108.436 70.0619 108.453 70.0205 108.453 69.9774V68.8791ZM85.9124 51.0073L85.1167 50.3768C84.8464 50.1632 84.884 50.0564 85.2296 50.0564L91.0303 50.0514C91.1968 50.0509 91.3572 49.9893 91.4805 49.8785C91.6037 49.7676 91.6811 49.6155 91.6976 49.4514C91.7148 49.2785 91.6788 49.1039 91.5898 48.9276C91.5375 48.8176 91.4551 48.7242 91.3517 48.6577C91.2484 48.5913 91.1282 48.5545 91.0046 48.5514C88.3079 48.5073 85.6129 48.509 82.9196 48.5564C82.3379 48.5666 82.0316 48.8615 82.0008 49.4412C81.9962 49.5313 82.0123 49.621 82.0479 49.703C82.0835 49.7851 82.1377 49.8573 82.2061 49.9141L84.9165 52.1361C85.3306 52.4785 85.7259 52.4564 86.1023 52.07C86.1571 52.0158 86.1947 51.9514 86.2152 51.8768C86.3008 51.5242 86.1998 51.2344 85.9124 51.0073ZM88.1661 53.0907L87.5758 52.5212C87.261 52.2195 87.2199 51.8839 87.4526 51.5144C87.4834 51.4636 87.5228 51.4195 87.5707 51.3822C87.8444 51.1653 88.1251 51.1568 88.4125 51.3568C89.2168 51.9127 89.997 52.5365 90.7533 53.228C91.958 54.3331 91.7389 54.8839 90.0963 54.8805L84.9629 54.8754C84.6892 54.8754 84.6532 54.9653 84.8551 55.1449L85.7483 55.9585C85.8254 56.0286 85.8855 56.1151 85.924 56.2114C85.9625 56.3077 85.9783 56.4112 85.9704 56.5142C85.9625 56.6172 85.931 56.7168 85.8783 56.8056C85.8255 56.8943 85.753 56.9698 85.6662 57.0263C85.3171 57.2534 84.9715 57.2314 84.6293 56.9602C83.6916 56.2178 82.7744 55.4551 81.8778 54.672C81.7722 54.5787 81.7021 54.4526 81.6797 54.3154C81.6572 54.1781 81.6837 54.0382 81.7546 53.9195C81.9736 53.5534 82.3073 53.3687 82.7556 53.3653C84.6036 53.3449 86.3678 53.3483 88.0481 53.3754C88.3321 53.3822 88.3715 53.2873 88.1661 53.0907ZM87.3468 57.1488L87.973 57.82C88.1305 57.9861 88.0945 58.0692 87.8652 58.0692L82.4085 58.0539C82.2425 58.0538 82.0795 58.1112 81.9465 58.2166C81.3955 58.6539 81.3545 59.0607 81.8233 59.437C81.9333 59.5228 82.0684 59.571 82.2083 59.5742C84.9666 59.5912 87.7301 59.5929 90.4986 59.5793C91.0154 59.5759 91.2686 59.3251 91.2584 58.8268C91.2567 58.7215 91.2324 58.618 91.1873 58.5232C91.1421 58.4285 91.0771 58.3447 90.9966 58.2776C90.1787 57.5827 89.3573 56.9098 88.5326 56.259C88.1596 55.9641 87.7865 55.9658 87.4135 56.2641C87.3478 56.316 87.2936 56.3808 87.2543 56.4545C87.215 56.5281 87.1915 56.609 87.1853 56.692C87.179 56.7751 87.1901 56.8585 87.2179 56.9371C87.2457 57.0157 87.2896 57.0878 87.3468 57.1488Z" fill="url(#paint1_linear_1933_147)"/>
<defs>
<linearGradient id="paint0_linear_1933_147" x1="80" y1="94" x2="80" y2="8.26497e-06" gradientUnits="userSpaceOnUse">
<stop stop-color="#CDE5F6"/>
<stop offset="1" stop-color="white" stop-opacity="0"/>
</linearGradient>
<linearGradient id="paint1_linear_1933_147" x1="81.5" y1="17" x2="81.5" y2="77" gradientUnits="userSpaceOnUse">
<stop stop-color="#5EB83E"/>
<stop offset="1" stop-color="#005B9F"/>
</linearGradient>
</defs>
</svg>
