<svg width="160" height="94" viewBox="0 0 160 94" fill="none" xmlns="http://www.w3.org/2000/svg">
<path d="M134.737 94L-1.52588e-05 94L25.2631 3.47972e-06L160 1.52588e-05L134.737 94Z" fill="url(#paint0_linear_1933_149)"/>
<path fill-rule="evenodd" clip-rule="evenodd" d="M68.47 11H108.395C110.973 11.4018 112.509 12.7529 113 15.0533V76.3333C112.57 78.0791 111.536 79.2809 109.899 79.9387C109.743 79.9991 109.638 80.1111 109.584 80.2747C109.11 81.6862 108.149 82.5947 106.702 83H65.6132C62.1599 82.0009 60.4349 79.8711 60.4383 76.6107C60.4519 62.4489 60.4553 48.2658 60.4485 34.0613C60.4485 33.5529 60.6806 33.2276 61.1449 33.0853C61.2432 33.0569 61.3381 33.0676 61.4296 33.1173C61.7956 33.3129 61.9786 33.6258 61.9786 34.056C61.9481 47.5884 61.9447 61.8587 61.9684 76.8667C61.9735 80.072 65.0235 81.544 67.6516 81.544C86.5548 81.5405 99.2835 81.5298 105.838 81.512C106.654 81.512 107.285 81.1547 107.729 80.44C107.83 80.2764 107.788 80.1947 107.601 80.1947C95.0016 80.1982 82.2933 80.1947 69.4765 80.184C66.1164 80.1787 63.7628 78.7387 63.7577 74.8027C63.7476 62.8702 63.7476 50.9787 63.7577 39.128C63.7577 38.9949 63.7892 38.8647 63.8492 38.7493C64.1237 38.2267 64.3932 38.0098 64.6575 38.0987C65.0676 38.2338 65.2709 38.5271 65.2675 38.9787C65.2573 49.9618 65.2573 61.9422 65.2675 74.92C65.2726 77.3253 66.7518 78.6053 68.8614 78.6053C84.308 78.6053 97.4043 78.6 108.15 78.5893C110.128 78.584 111.49 77.272 111.485 75.2773C111.465 54.9431 111.467 35.2151 111.49 16.0933C111.49 14.0293 110.118 12.6373 108.079 12.6267C95.7912 12.584 82.7491 12.5822 68.9529 12.6213C66.1469 12.6267 65.1963 14.5467 65.2268 17.224C65.2641 20.6764 65.2794 23.7289 65.2726 26.3813C65.2692 26.5947 65.3268 26.7902 65.4454 26.968L78.2249 45.96C78.4062 46.2299 78.4973 46.5543 78.4842 46.8827L78.3418 50.328C78.3365 50.4571 78.303 50.5832 78.2438 50.6966C78.1846 50.81 78.1013 50.9077 78.0002 50.9823C77.8992 51.057 77.7831 51.1065 77.6608 51.1271C77.5386 51.1477 77.4133 51.1389 77.2947 51.1013L74.1837 50.1147C73.8705 50.0143 73.5986 49.8078 73.411 49.528C66.5553 39.3236 59.6945 29.1084 52.8286 18.8827C52.4173 18.2753 52.2139 17.6201 52.0007 16.9328L52.0007 16.9328L52 16.9307V16.6267C52.2033 15.6062 52.6066 14.8613 53.2098 14.392C55.1923 12.856 56.8952 14.0453 58.039 15.9013C58.7642 17.0782 59.5013 18.1698 60.2502 19.176C60.4332 19.4249 60.5112 19.3929 60.4841 19.08C60.2469 16.2782 61.333 14.6231 63.7425 14.1147C63.8309 14.0961 63.9147 14.0591 63.9889 14.0059C64.0632 13.9528 64.1263 13.8846 64.1746 13.8053C65.1438 12.2018 66.5756 11.2667 68.47 11ZM54.7145 18.3333L56.4988 17.0267C56.54 16.9964 56.5751 16.9578 56.602 16.9131C56.629 16.8685 56.6472 16.8187 56.6557 16.7667C56.6642 16.7146 56.6628 16.6613 56.6516 16.6098C56.6404 16.5583 56.6195 16.5097 56.5903 16.4667L56.4123 16.2C56.1498 15.8064 55.7808 15.5151 55.3862 15.3901C54.9917 15.2651 54.6038 15.3166 54.3078 15.5333L54.135 15.6613C53.988 15.7684 53.868 15.9129 53.7818 16.0866C53.6956 16.2603 53.6449 16.4599 53.6327 16.6738C53.6204 16.8878 53.6468 17.112 53.7103 17.3336C53.7738 17.5552 53.8732 17.7698 54.0028 17.9653L54.1807 18.232C54.2093 18.2757 54.2457 18.313 54.2881 18.3418C54.3304 18.3705 54.3778 18.3902 54.4275 18.3996C54.4771 18.4091 54.528 18.4081 54.5773 18.3967C54.6266 18.3853 54.6732 18.3638 54.7145 18.3333ZM63.8543 23.9173L63.6815 15.832C63.6809 15.8201 63.678 15.8084 63.673 15.7977C63.6681 15.7869 63.6611 15.7773 63.6526 15.7694C63.6441 15.7615 63.6342 15.7554 63.6235 15.7515C63.6127 15.7476 63.6014 15.7459 63.59 15.7467H63.5442C63.0975 15.7592 62.678 16.1739 62.3778 16.8997C62.0776 17.6256 61.9212 18.6034 61.943 19.6187L61.9532 20.216C61.9642 20.7201 62.0188 21.2181 62.1139 21.6817C62.2091 22.1452 62.3429 22.5651 62.5076 22.9173C62.6724 23.2695 62.865 23.5471 63.0742 23.7343C63.2835 23.9215 63.5054 24.0145 63.7273 24.008H63.773C63.795 24.0066 63.8157 23.9965 63.8308 23.9796C63.846 23.9628 63.8544 23.9405 63.8543 23.9173ZM57.7604 18.2488C57.7309 18.2049 57.6859 18.1751 57.6354 18.1659C57.585 18.1568 57.5331 18.169 57.4912 18.2L55.4392 19.7187C55.4185 19.7341 55.4008 19.7535 55.3873 19.776C55.3737 19.7985 55.3645 19.8236 55.3602 19.8498C55.3559 19.8761 55.3565 19.9029 55.3621 19.9289C55.3677 19.9549 55.3781 19.9794 55.3927 20.0012L73.771 47.3352C73.8005 47.3791 73.8454 47.4089 73.8959 47.4181C73.9464 47.4272 73.9983 47.415 74.0401 47.384L76.0921 45.8653C76.1128 45.8499 76.1305 45.8305 76.144 45.808C76.1576 45.7855 76.1668 45.7604 76.1711 45.7342C76.1754 45.7079 76.1748 45.6811 76.1692 45.6551C76.1636 45.6291 76.1532 45.6046 76.1386 45.5828L57.7604 18.2488ZM76.9083 47.4747C76.9088 47.4435 76.9009 47.4128 76.8855 47.3862C76.8701 47.3595 76.8478 47.338 76.8212 47.3241C76.7947 47.3101 76.7649 47.3044 76.7353 47.3074C76.7058 47.3105 76.6776 47.3222 76.6542 47.3413L75.1495 48.5093C75.1268 48.5276 75.1093 48.552 75.0988 48.5799C75.0883 48.6078 75.0852 48.6382 75.0899 48.6678C75.0946 48.6974 75.1069 48.725 75.1254 48.7479C75.144 48.7707 75.1681 48.7878 75.1952 48.7973L76.705 49.288C76.7283 49.2954 76.7529 49.2971 76.7769 49.2929C76.8009 49.2886 76.8236 49.2786 76.8433 49.2637C76.863 49.2487 76.8791 49.2291 76.8904 49.2065C76.9017 49.1839 76.9078 49.1589 76.9083 49.1333V47.4747ZM105.981 17.2664L108.467 13.9118C108.718 13.574 108.994 13.5473 109.296 13.8318L109.479 14.0024C109.605 14.121 109.684 14.286 109.699 14.4642C109.714 14.6424 109.665 14.8204 109.56 14.9624L106.429 19.2024C106.263 19.4264 106.18 19.6789 106.18 19.9598L106.185 26.6958C106.186 27.4003 105.923 28.0771 105.452 28.5793C104.981 29.0815 104.34 29.3686 103.668 29.3784C101.228 29.4104 98.6494 29.4122 95.9315 29.3838C95.674 29.3802 95.4232 29.3429 95.1792 29.2718C95.003 29.2184 94.8539 29.2629 94.7319 29.4051L91.7327 32.8451C91.5802 33.0193 91.5446 33.2184 91.626 33.4424C91.9784 34.4095 91.8903 35.2504 91.3616 35.9651C90.3246 37.3731 89.0453 37.5153 87.5237 36.3918C87.3814 36.2887 87.2306 36.2727 87.0713 36.3438L83.1876 38.1198C82.9877 38.2122 82.8928 38.3722 82.903 38.5998C82.9894 40.4131 81.1085 41.5384 79.6039 40.9891C76.0811 39.7038 78.6533 33.9224 82.171 36.5891C82.3167 36.6993 82.4726 36.7171 82.6386 36.6424L86.4765 34.8984C86.6731 34.806 86.7866 34.6478 86.8171 34.4238C87.0882 32.3864 88.1981 31.5615 90.1467 31.9491C90.3331 31.9847 90.489 31.9295 90.6144 31.7838L93.5424 28.4078C93.6678 28.262 93.6949 28.1002 93.6237 27.9224C93.3967 27.3678 93.278 26.7989 93.2679 26.2158C93.2374 23.8798 93.2391 21.5971 93.273 19.3678C93.3035 17.4958 94.498 16.3118 96.2416 16.3171C98.8104 16.3313 101.198 16.3367 103.404 16.3331C104.2 16.3331 104.912 16.6549 105.539 17.2984C105.698 17.462 105.846 17.4513 105.981 17.2664ZM104.69 26.6584L104.685 21.9651C104.684 21.9369 104.676 21.9095 104.66 21.8867C104.644 21.8638 104.622 21.8466 104.596 21.8374C104.571 21.8281 104.543 21.8272 104.517 21.8347C104.492 21.8423 104.468 21.858 104.451 21.8798L100.603 27.0798C100.527 27.1821 100.43 27.2641 100.318 27.3192C100.206 27.3743 100.083 27.4008 99.9599 27.3966C99.8365 27.3925 99.7157 27.3577 99.6075 27.2952C99.4993 27.2328 99.4068 27.1443 99.3374 27.0371L95.3724 20.8558C95.1352 20.4895 95.0759 20.0949 95.1945 19.6718C95.2453 19.4798 95.3368 19.3571 95.469 19.3038C95.8451 19.158 96.1467 19.2593 96.3738 19.6078L99.8203 24.9784C99.966 25.206 100.119 25.2113 100.278 24.9944L104.4 19.4158C104.502 19.2801 104.564 19.1174 104.581 18.9461C104.599 18.7749 104.569 18.602 104.497 18.4473C104.425 18.2926 104.313 18.1624 104.174 18.0714C104.034 17.9805 103.873 17.9326 103.709 17.9331H95.9468C95.6371 17.9331 95.34 18.062 95.1201 18.2917C94.9001 18.5215 94.7752 18.8335 94.7725 19.1598L94.742 26.4184C94.7387 27.3393 95.1758 27.7998 96.0535 27.7998H103.602C103.891 27.7998 104.167 27.6795 104.372 27.4655C104.576 27.2514 104.69 26.9611 104.69 26.6584ZM90.0277 33.7433C89.8409 33.5472 89.5875 33.4371 89.3232 33.4371C89.1924 33.4371 89.0628 33.4641 88.9419 33.5167C88.821 33.5692 88.7112 33.6462 88.6187 33.7433C88.5262 33.8403 88.4528 33.9556 88.4027 34.0824C88.3526 34.2092 88.3269 34.3452 88.3269 34.4824C88.3269 34.6197 88.3526 34.7556 88.4027 34.8825C88.4528 35.0093 88.5262 35.1245 88.6187 35.2216C88.7112 35.3187 88.821 35.3957 88.9419 35.4482C89.0628 35.5007 89.1924 35.5278 89.3232 35.5278C89.5875 35.5278 89.8409 35.4176 90.0277 35.2216C90.2146 35.0256 90.3195 34.7597 90.3195 34.4824C90.3195 34.2052 90.2146 33.9393 90.0277 33.7433ZM81.4085 38.5251C81.4085 38.2507 81.3046 37.9875 81.1196 37.7935C80.9347 37.5994 80.6838 37.4904 80.4223 37.4904C80.1607 37.4904 79.9099 37.5994 79.725 37.7935C79.54 37.9875 79.4361 38.2507 79.4361 38.5251C79.4361 38.7995 79.54 39.0627 79.725 39.2567C79.9099 39.4508 80.1607 39.5598 80.4223 39.5598C80.6838 39.5598 80.9347 39.4508 81.1196 39.2567C81.3046 39.0627 81.4085 38.7995 81.4085 38.5251ZM105.917 69.3579C106.094 68.9095 106.185 68.4289 106.185 67.9435V37.9382C106.185 37.4528 106.094 36.9722 105.917 36.5238C105.74 36.0754 105.48 35.6679 105.153 35.3247C104.826 34.9815 104.437 34.7093 104.01 34.5235C103.583 34.3378 103.125 34.2422 102.662 34.2422H102.499C101.565 34.2422 100.669 34.6316 100.008 35.3247C99.3477 36.0179 98.9766 36.9579 98.9766 37.9382V67.9435C98.9766 68.4289 99.0677 68.9095 99.2447 69.3579C99.4217 69.8063 99.6812 70.2138 100.008 70.557C100.335 70.9002 100.724 71.1724 101.151 71.3582C101.579 71.5439 102.037 71.6395 102.499 71.6395H102.662C103.125 71.6395 103.583 71.5439 104.01 71.3582C104.437 71.1724 104.826 70.9002 105.153 70.557C105.48 70.2138 105.74 69.8063 105.917 69.3579ZM104.078 36.4635C104.467 36.8716 104.685 37.4251 104.685 38.0022V67.8582C104.685 68.4353 104.467 68.9888 104.078 69.3969C103.689 69.8049 103.161 70.0342 102.611 70.0342H102.56C102.01 70.0342 101.483 69.8049 101.094 69.3969C100.705 68.9888 100.486 68.4353 100.486 67.8582V38.0022C100.486 37.4251 100.705 36.8716 101.094 36.4635C101.483 36.0554 102.01 35.8262 102.56 35.8262H102.611C103.161 35.8262 103.689 36.0554 104.078 36.4635ZM96.466 67.9656C96.466 68.9373 96.098 69.8693 95.4431 70.5564C94.7882 71.2436 93.8999 71.6296 92.9737 71.6296H92.7501C91.8239 71.6296 90.9356 71.2436 90.2807 70.5564C89.6257 69.8693 89.2578 68.9373 89.2578 67.9656V49.4589C89.2578 48.4872 89.6257 47.5552 90.2807 46.8681C90.9356 46.181 91.8239 45.7949 92.7501 45.7949H92.9737C93.8999 45.7949 94.7882 46.181 95.4431 46.8681C96.098 47.5552 96.466 48.4872 96.466 49.4589V67.9656ZM94.9359 49.5405C94.9354 49.2589 94.8821 48.9802 94.779 48.7203C94.6759 48.4603 94.5249 48.2243 94.3349 48.0255C94.1448 47.8268 93.9192 47.6693 93.6711 47.562C93.423 47.4547 93.1572 47.3997 92.8888 47.4002L92.7973 47.4004C92.529 47.4009 92.2633 47.4568 92.0156 47.565C91.7678 47.6732 91.5428 47.8315 91.3534 48.031C91.164 48.2304 91.0139 48.467 90.9116 48.7273C90.8093 48.9876 90.7569 49.2665 90.7574 49.5481L90.7879 67.8947C90.7884 68.1763 90.8417 68.455 90.9448 68.7149C91.0479 68.9748 91.1988 69.2109 91.3889 69.4097C91.579 69.6084 91.8046 69.7659 92.0527 69.8732C92.3008 69.9805 92.5666 70.0355 92.835 70.035L92.9265 70.0348C93.1948 70.0343 93.4604 69.9784 93.7082 69.8702C93.9559 69.762 94.181 69.6036 94.3704 69.4042C94.5598 69.2048 94.7099 68.9681 94.8122 68.7078C94.9145 68.4475 94.9669 68.1686 94.9664 67.8871L94.9359 49.5405ZM85.7561 70.5354C86.3991 69.8537 86.7576 68.932 86.7528 67.973L86.7074 58.8744C86.7026 57.9154 86.3349 56.9977 85.6852 56.3231C85.0354 55.6485 84.1569 55.2724 83.2429 55.2774L82.8972 55.2793C81.9831 55.2843 81.1084 55.6701 80.4655 56.3518C79.8225 57.0335 79.464 57.9552 79.4688 58.9142L79.5142 68.0128C79.519 68.9718 79.8867 69.8895 80.5364 70.5641C81.1862 71.2386 82.0647 71.6148 82.9787 71.6098L83.3244 71.6078C84.2385 71.6028 85.1132 71.217 85.7561 70.5354ZM85.0892 58.1968C85.1912 58.4564 85.2435 58.7346 85.243 59.0155L85.2283 67.8901C85.2278 68.171 85.1746 68.449 85.0717 68.7083C84.9689 68.9676 84.8183 69.2031 84.6287 69.4013C84.4391 69.5996 84.2141 69.7567 83.9666 69.8637C83.7191 69.9707 83.454 70.0256 83.1863 70.0251L83.0236 70.0248C82.7559 70.0243 82.491 69.9685 82.2438 69.8605C81.9967 69.7526 81.7722 69.5947 81.5833 69.3957C81.3943 69.1968 81.2446 68.9607 81.1426 68.7011C81.0406 68.4414 80.9883 68.1632 80.9888 67.8824L81.0035 59.0077C81.004 58.7268 81.0572 58.4488 81.16 58.1895C81.2629 57.9302 81.4134 57.6948 81.6031 57.4965C81.7927 57.2983 82.0177 57.1411 82.2651 57.0341C82.5126 56.9271 82.7778 56.8723 83.0455 56.8727L83.2081 56.8731C83.4758 56.8736 83.7408 56.9294 83.9879 57.0373C84.2351 57.1452 84.4595 57.3032 84.6485 57.5021C84.8374 57.7011 84.9872 57.9371 85.0892 58.1968ZM76.9315 68.1145C76.9315 69.0381 76.5818 69.924 75.9593 70.5771C75.3368 71.2302 74.4925 71.5971 73.6121 71.5971H73.1241C72.2437 71.5971 71.3994 71.2302 70.7769 70.5771C70.1544 69.924 69.8047 69.0381 69.8047 68.1145V65.2131C69.8047 64.2895 70.1544 63.4036 70.7769 62.7505C71.3994 62.0974 72.2437 61.7305 73.1241 61.7305H73.6121C74.4925 61.7305 75.3368 62.0974 75.9593 62.7505C76.5818 63.4036 76.9315 64.2895 76.9315 65.2131V68.1145ZM75.4479 65.3442C75.447 65.0752 75.3956 64.8091 75.2967 64.561C75.1978 64.3129 75.0532 64.0876 74.8714 63.8981C74.6895 63.7086 74.4738 63.5585 74.2366 63.4565C73.9994 63.3544 73.7454 63.3024 73.4891 63.3033L73.2248 63.3043C72.7071 63.3062 72.2113 63.5238 71.8465 63.9092C71.4817 64.2946 71.2778 64.8163 71.2796 65.3594L71.2883 67.9728C71.2892 68.2417 71.3406 68.5078 71.4395 68.756C71.5384 69.0041 71.683 69.2293 71.8648 69.4188C72.0467 69.6083 72.2624 69.7584 72.4996 69.8605C72.7368 69.9625 72.9908 70.0146 73.2471 70.0136L73.5115 70.0127C74.0291 70.0107 74.5249 69.7932 74.8897 69.4077C75.2545 69.0223 75.4584 68.5007 75.4566 67.9575L75.4479 65.3442ZM70.5648 73H105.406C105.821 73 106.158 73.3534 106.158 73.7893V73.8107C106.158 74.2466 105.821 74.6 105.406 74.6H70.5648C70.1493 74.6 69.8125 74.2466 69.8125 73.8107V73.7893C69.8125 73.3534 70.1493 73 70.5648 73Z" fill="url(#paint1_linear_1933_149)"/>
<defs>
<linearGradient id="paint0_linear_1933_149" x1="80" y1="94" x2="80" y2="8.26497e-06" gradientUnits="userSpaceOnUse">
<stop stop-color="#CDE5F6"/>
<stop offset="1" stop-color="white" stop-opacity="0"/>
</linearGradient>
<linearGradient id="paint1_linear_1933_149" x1="82.5" y1="11" x2="82.5" y2="83" gradientUnits="userSpaceOnUse">
<stop stop-color="#5EB83E"/>
<stop offset="1" stop-color="#005B9F"/>
</linearGradient>
</defs>
</svg>
