<svg width="160" height="94" viewBox="0 0 160 94" fill="none" xmlns="http://www.w3.org/2000/svg">
<path d="M134.737 94L-1.52588e-05 94L25.2631 3.47972e-06L160 1.52588e-05L134.737 94Z" fill="url(#paint0_linear_1933_150)"/>
<path fill-rule="evenodd" clip-rule="evenodd" d="M49.345 18.6321L51.2584 11.298C51.2608 11.2876 51.266 11.2781 51.2735 11.2706C51.281 11.2631 51.2905 11.2578 51.301 11.2552C51.3116 11.2527 51.3229 11.2529 51.3337 11.256C51.3446 11.259 51.3546 11.2648 51.3628 11.2727L63.1866 23.3306C63.4649 23.6145 63.7813 23.6702 64.1359 23.4979C64.2121 23.4607 64.2734 23.41 64.3198 23.3458C64.5948 22.9539 64.5649 22.5872 64.2303 22.246L51.4771 9.23514C51.3789 9.13581 51.257 9.06428 51.1234 9.0277C50.9899 8.99111 50.8494 8.99077 50.7161 9.02668C50.5827 9.0626 50.4612 9.13353 50.3636 9.23237C50.2661 9.33122 50.1959 9.45451 50.16 9.58993L48.013 17.7603C47.96 17.9698 47.8307 18.1016 47.6253 18.1557L39.5689 20.3858C39.4384 20.4214 39.3196 20.4915 39.2243 20.589C39.1291 20.6866 39.0606 20.8081 39.0259 20.9416C38.9912 21.075 38.9914 21.2157 39.0265 21.3494C39.0616 21.4831 39.1304 21.6053 39.2259 21.7036L52.0934 34.826C52.1577 34.8904 52.234 34.9412 52.3177 34.9754C52.4014 35.0095 52.4909 35.0264 52.5811 35.025C52.6713 35.0236 52.7603 35.0039 52.8429 34.9671C52.9256 34.9303 53.0002 34.8772 53.0626 34.8108L53.2365 34.6232C53.4883 34.3563 53.4867 34.091 53.2315 33.8275L41.363 21.734C41.3422 21.7134 41.3274 21.6874 41.3201 21.6588C41.3127 21.6301 41.3131 21.5998 41.3212 21.571C41.3292 21.5422 41.3447 21.5158 41.3661 21.4946C41.3874 21.4734 41.4138 21.458 41.4426 21.4502L48.4851 19.509C48.6923 19.4518 48.8808 19.3406 49.0317 19.1867C49.1827 19.0327 49.2907 18.8415 49.345 18.6321ZM121.93 21.4499V20.6896L113.387 18.1706C113.161 18.1064 113.019 17.9594 112.959 17.7296L110.827 9.58961C110.792 9.45451 110.722 9.33135 110.625 9.23253C110.528 9.13372 110.407 9.06275 110.274 9.02677C110.142 8.99079 110.002 8.99108 109.87 9.02761C109.737 9.06413 109.617 9.1356 109.52 9.23482L96.7321 22.2659C96.404 22.6004 96.3825 22.9552 96.6674 23.3303C96.7867 23.4857 96.9607 23.577 97.1893 23.604C97.265 23.6135 97.3419 23.6052 97.4142 23.5797C97.4865 23.5543 97.5524 23.5123 97.6068 23.457L109.411 11.4193C109.59 11.2369 109.712 11.2707 109.778 11.5207L111.677 18.7433C111.722 18.9192 111.812 19.0797 111.938 19.2088C112.064 19.3378 112.221 19.4307 112.393 19.4782L119.565 21.46C119.591 21.467 119.615 21.481 119.634 21.5005C119.653 21.5201 119.667 21.5444 119.674 21.5712C119.681 21.598 119.681 21.6262 119.674 21.6529C119.667 21.6797 119.653 21.7041 119.634 21.7236L107.92 33.665C107.612 33.9792 107.573 34.3239 107.805 34.6989C107.921 34.8848 108.12 34.9811 108.402 34.9878C108.48 34.9909 108.558 34.9776 108.631 34.9488C108.704 34.9201 108.769 34.8764 108.824 34.8206L121.93 21.4499ZM82.844 82.8596H77.8441C70.9457 82.1263 65.0263 79.5684 60.0861 75.1859C57.5447 72.9321 55.454 70.3776 53.8139 67.5223C48.0635 57.5019 47.9194 45.5656 53.5604 35.4945C55.3099 32.3689 57.4536 29.6978 59.9916 27.4812C70.7767 18.0741 85.7714 17.0249 97.6548 25.0889C105.612 30.4868 110.975 39.9396 111.273 49.813C111.8 67.2638 99.8565 80.9842 82.844 82.8596ZM109.866 51.293C109.866 43.3135 106.758 35.6609 101.225 30.0186C95.6924 24.3762 88.1884 21.2064 80.3639 21.2064C72.5394 21.2064 65.0354 24.3762 59.5027 30.0186C53.9699 35.6609 50.8617 43.3135 50.8617 51.293C50.8617 59.2724 53.9699 66.9251 59.5027 72.5674C65.0354 78.2097 72.5394 81.3796 80.3639 81.3796C88.1884 81.3796 95.6924 78.2097 101.225 72.5674C106.758 66.9251 109.866 59.2724 109.866 51.293ZM51.2752 20.4435L55.5698 24.8231C55.8512 25.1101 55.8512 25.5755 55.5698 25.8625L55.5416 25.8911C55.2602 26.1781 54.8039 26.1781 54.5225 25.8911L50.2279 21.5115C49.9465 21.2245 49.9465 20.7592 50.2279 20.4722L50.256 20.4435C50.5375 20.1565 50.9938 20.1565 51.2752 20.4435ZM110.703 20.4611L110.681 20.4396C110.4 20.1526 109.944 20.1526 109.662 20.4396L105.382 24.8049C105.1 25.0919 105.1 25.5572 105.382 25.8442L105.403 25.8657C105.684 26.1527 106.141 26.1527 106.422 25.8657L110.703 21.5005C110.984 21.2134 110.984 20.7481 110.703 20.4611ZM81.2502 25.103L86.0811 27.2165C86.5549 27.4226 86.8928 27.2841 87.0949 26.8009C87.1281 26.7198 87.1496 26.6353 87.1596 26.5475C87.1729 26.4005 87.1397 26.2527 87.0647 26.1252C86.9897 25.9978 86.8768 25.8972 86.7421 25.8379L81.3098 23.4608C81.1474 23.3898 80.9834 23.3881 80.8178 23.4557L75.4948 25.5845C75.4523 25.6044 75.4149 25.6339 75.3855 25.6706C75.1005 26.0322 75.0243 26.3245 75.1569 26.5475C75.412 26.9732 75.7698 27.0949 76.2304 26.9124L80.7631 25.0928C80.9254 25.0286 81.0878 25.032 81.2502 25.103ZM80.7562 36.9429L74.2901 39.2592C74.1642 39.3037 74.0297 39.3168 73.8978 39.2975C73.766 39.2781 73.6405 39.2269 73.532 39.148C73.4236 39.0691 73.3352 38.9649 73.2742 38.844C73.2133 38.7232 73.1816 38.5892 73.1818 38.4534L73.1719 30.8557C73.1726 30.6793 73.2271 30.5076 73.3277 30.3641C73.4283 30.2206 73.5701 30.1126 73.7335 30.0549L80.7612 27.5409C80.9412 27.476 81.1377 27.476 81.3178 27.5409L88.251 30.0244C88.4135 30.083 88.5542 30.1914 88.6539 30.3348C88.7536 30.4782 88.8073 30.6495 88.8077 30.8253L88.8027 38.4179C88.8029 38.5538 88.7712 38.6877 88.7103 38.8086C88.6494 38.9294 88.561 39.0336 88.4525 39.1125C88.344 39.1914 88.2186 39.2426 88.0867 39.262C87.9548 39.2814 87.8203 39.2682 87.6944 39.2238L81.3128 36.9429C81.1327 36.878 80.9363 36.878 80.7562 36.9429ZM80.9749 35.2855C81.0102 35.2724 81.0489 35.2724 81.0842 35.2855L87.1129 37.4397C87.1369 37.4486 87.1627 37.4515 87.188 37.4482C87.2134 37.4448 87.2376 37.4353 87.2586 37.4204C87.2795 37.4054 87.2967 37.3856 87.3085 37.3625C87.3204 37.3394 87.3266 37.3137 87.3266 37.2876V31.3879C87.3276 31.3538 87.318 31.3203 87.2993 31.2921C87.2806 31.2639 87.2536 31.2424 87.2222 31.2307L81.0792 29.0412C81.0439 29.028 81.0052 29.028 80.9699 29.0412L74.7325 31.2713C74.7011 31.283 74.6741 31.3045 74.6554 31.3327C74.6367 31.3609 74.6271 31.3944 74.6281 31.4284L74.638 37.3281C74.6381 37.3542 74.6443 37.3799 74.6561 37.403C74.668 37.4261 74.6851 37.446 74.7061 37.4609C74.7271 37.4758 74.7512 37.4854 74.7766 37.4887C74.802 37.4921 74.8277 37.4892 74.8518 37.4802L80.9749 35.2855ZM64.4246 36.0107L65.1651 35.3873C65.3937 35.1947 65.5064 35.2505 65.5031 35.5546C65.5031 35.9128 65.5693 36.2456 65.7019 36.5531C65.7781 36.7322 65.909 36.8454 66.0945 36.8927C66.671 37.0346 67.0835 36.5632 67.0189 36.0006C66.9228 35.1288 66.7986 34.2925 66.6462 33.4917C66.6244 33.3771 66.5744 33.27 66.5009 33.1805C66.4274 33.0909 66.3328 33.0219 66.226 32.9798C66.1192 32.9378 66.0037 32.9241 65.8903 32.9401C65.7769 32.956 65.6693 33.0011 65.5776 33.071C64.842 33.6252 64.1363 34.2317 63.4604 34.8906C63.0893 35.2555 63.0578 35.634 63.3659 36.026C63.4024 36.0733 63.4488 36.1104 63.5051 36.1375C63.8364 36.2895 64.1429 36.2473 64.4246 36.0107ZM95.3608 35.5556L95.2664 36.2297C95.2502 36.3523 95.2002 36.4682 95.1223 36.5642C94.8075 36.9325 94.5143 37.0288 94.2426 36.8531C93.9311 36.6504 93.7986 36.3632 93.845 35.9915L94.1432 33.5434C94.1595 33.4135 94.2098 33.2904 94.2888 33.1872C94.3678 33.084 94.4726 33.0045 94.5919 32.9572C94.7112 32.9099 94.8406 32.8965 94.9664 32.9185C95.0921 32.9405 95.2096 32.9971 95.3062 33.0822L97.3986 34.8967C97.7199 35.1738 97.7763 35.4965 97.5675 35.8648C97.4383 36.0912 97.2064 36.2145 96.8717 36.2348C96.8134 36.2397 96.7548 36.2328 96.6994 36.2145C96.6439 36.1962 96.5927 36.1669 96.5487 36.1283L95.7038 35.4187C95.5083 35.2532 95.394 35.2988 95.3608 35.5556ZM66.4974 40.897C66.557 40.9579 66.6266 41.0001 66.7061 41.0237C67.0507 41.1386 67.0441 41.2299 66.6863 41.2974C64.8241 41.6455 63.4441 42.644 62.5462 44.2929C62.5335 44.315 62.5153 44.3333 62.4935 44.346C62.4717 44.3587 62.4471 44.3654 62.4219 44.3654C62.3968 44.3654 62.3722 44.3587 62.3504 44.346C62.3286 44.3333 62.3104 44.315 62.2977 44.2929C61.2109 42.4074 59.7099 41.1319 57.7948 40.4662C57.6807 40.4267 57.5599 40.4114 57.4398 40.4215C57.3197 40.4315 57.2029 40.4666 57.0966 40.5246C56.9904 40.5826 56.897 40.6622 56.8221 40.7585C56.7473 40.8548 56.6927 40.9658 56.6616 41.0846C56.1481 43.0748 56.4595 44.8319 57.596 46.3558C57.6665 46.4481 57.7683 46.5099 57.8809 46.5287C57.9935 46.5476 58.1084 46.522 58.2024 46.4572L58.3664 46.3457C58.7507 46.0821 58.8253 45.7459 58.59 45.337C58.0765 44.4551 57.8429 43.4769 57.8893 42.4024C57.8959 42.2064 57.9853 42.154 58.1576 42.2453C60.4207 43.4414 61.5406 45.2779 61.5174 47.7547C61.5108 48.1669 61.7046 48.3933 62.0989 48.4339C62.3059 48.4568 62.5135 48.396 62.6778 48.2645C62.842 48.1329 62.9499 47.941 62.9786 47.7294C63.3016 45.3016 64.405 43.2944 66.8602 42.8281C67.1882 42.7639 67.2843 42.8873 67.1485 43.1981L66.3533 45.0279C66.2075 45.3624 66.2638 45.658 66.5222 45.9148C66.5719 45.9622 66.6283 45.9959 66.6912 46.0162C67.122 46.1379 67.4533 46.0027 67.6852 45.6107C68.3645 44.4551 68.6859 43.3012 68.6494 42.149C68.6329 41.6353 68.3728 41.3532 67.8691 41.3025L67.392 41.262C67.1766 41.2383 67.1568 41.164 67.3324 41.039C68.2767 40.3598 68.7074 39.243 68.6246 37.6887C68.6186 37.5888 68.5791 37.4942 68.5129 37.4212C68.4467 37.3481 68.3579 37.3011 68.2618 37.2883C66.6713 37.0653 65.2864 37.54 64.1068 38.7125C63.9444 38.8713 63.845 38.8375 63.8086 38.6111C63.4839 36.7459 62.364 35.5042 60.4488 34.8858C60.2665 34.8256 60.0687 34.837 59.894 34.9176C59.7194 34.9982 59.5805 35.1423 59.5045 35.3217C58.8816 36.7747 58.822 38.2209 59.3256 39.6603C59.3701 39.7842 59.4591 39.8858 59.5741 39.9442C59.7497 40.032 59.9054 40.054 60.0413 40.01C60.4356 39.885 60.6195 39.6113 60.593 39.189L60.4538 37.1616C60.4074 36.5128 60.6211 36.4047 61.0949 36.8372L61.7112 37.3998C61.9214 37.5934 62.0903 37.8287 62.2075 38.0912C62.3246 38.3536 62.3875 38.6376 62.3921 38.9254L62.4319 41.7435C62.4352 41.8787 62.4785 42.0095 62.5561 42.1185C62.7417 42.3821 62.972 42.4784 63.247 42.4074C63.5883 42.3162 63.8218 42.0949 63.9478 41.7435C64.4646 40.299 65.2598 39.2954 66.7906 38.8443C67.0226 38.7767 67.0938 38.8578 67.0043 39.0876C66.8817 39.3951 66.7078 39.6738 66.4825 39.9239C66.1876 40.255 66.1926 40.5794 66.4974 40.897ZM93.3964 40.9166C92.5167 40.5061 92.1887 38.874 92.1191 37.9262C92.1124 37.8358 92.1234 37.7449 92.1517 37.6589C92.18 37.5729 92.2249 37.4935 92.2837 37.4255C92.3425 37.3574 92.4141 37.3021 92.4943 37.2628C92.5744 37.2234 92.6615 37.2008 92.7503 37.1964C94.4103 37.1085 95.7572 37.6458 96.791 38.8081C96.9434 38.9771 97.0312 38.9467 97.0544 38.7169C97.2532 36.8078 98.3632 35.517 100.384 34.8446C100.554 34.7881 100.737 34.7949 100.902 34.8636C101.066 34.9323 101.202 35.0585 101.284 35.2196C101.877 36.3854 101.983 37.7877 101.602 39.4265C101.573 39.5425 101.514 39.6461 101.433 39.7255C101.181 39.9722 100.966 40.0736 100.787 40.0296C100.429 39.9418 100.255 39.712 100.265 39.3403L100.325 36.8466C100.326 36.8102 100.318 36.774 100.302 36.7417C100.285 36.7093 100.26 36.682 100.23 36.6625C100.2 36.643 100.165 36.6319 100.129 36.6305C100.094 36.629 100.058 36.6371 100.026 36.654C98.3068 37.5461 98.2472 39.7965 98.4609 41.5096C98.4834 41.6891 98.4392 41.873 98.3367 42.0266C98.0948 42.3747 97.8198 42.4879 97.5116 42.3662C97.2598 42.2649 97.0875 42.0875 96.9947 41.834C96.458 40.3946 95.4739 39.2339 93.9928 38.8183C93.7178 38.7406 93.6549 38.825 93.804 39.0717L94.465 40.1513C94.5038 40.2146 94.5284 40.2861 94.537 40.3606C94.5456 40.435 94.538 40.5107 94.5147 40.5821C94.455 40.7646 94.3391 40.8964 94.1668 40.9775C93.8818 41.116 93.8934 41.2157 94.2016 41.2765C95.9543 41.6245 97.2896 42.5571 98.2074 44.0743C98.2326 44.116 98.2682 44.1499 98.3107 44.1728C98.3531 44.1957 98.4009 44.2066 98.4492 44.2046C98.4976 44.2025 98.5448 44.1875 98.5861 44.1611C98.6274 44.1347 98.6613 44.0978 98.6846 44.054C99.4499 42.5875 100.741 41.4302 102.556 40.5821C103.436 40.1716 104.137 40.4605 104.296 41.5198C104.544 43.1755 104.326 44.598 103.64 45.7875C103.51 46.0138 103.337 46.1963 103.118 46.3349C102.823 46.5241 102.608 46.5477 102.472 46.4058C102.121 46.0476 102.064 45.6439 102.303 45.1944C102.767 44.3125 102.982 43.363 102.949 42.3459C102.948 42.3167 102.939 42.2883 102.924 42.2632C102.91 42.238 102.889 42.217 102.865 42.202C102.84 42.1869 102.812 42.1783 102.783 42.1769C102.755 42.1755 102.726 42.1813 102.7 42.1939C100.424 43.3461 99.3025 45.1928 99.3356 47.7338C99.3423 48.119 99.112 48.369 98.6448 48.4839C98.5622 48.5045 98.4763 48.5069 98.3927 48.4909C98.3091 48.4748 98.2297 48.4408 98.1598 48.391C98.0898 48.3412 98.0308 48.2767 97.9868 48.2019C97.9428 48.1271 97.9146 48.0435 97.9043 47.9568C97.6061 45.5036 96.5275 43.238 93.9133 42.7869C93.8734 42.7805 93.8326 42.7852 93.7952 42.8006C93.7577 42.8159 93.7251 42.8413 93.7006 42.874C93.6762 42.9067 93.6608 42.9456 93.6563 42.9865C93.6517 43.0274 93.6581 43.0687 93.6747 43.1062L94.4898 44.9866C94.6356 45.3313 94.5826 45.6405 94.3308 45.9142C94.122 46.1406 93.7526 45.9936 93.2225 45.4732C93.017 45.2705 92.8547 45.0356 92.7354 44.7687C92.3378 43.8935 92.1423 42.9643 92.1489 41.981C92.1489 41.8256 92.2086 41.7006 92.3279 41.6059C92.6161 41.3796 92.9508 41.263 93.3318 41.2562C93.8421 41.2461 93.8636 41.1329 93.3964 40.9166ZM74.3388 44.7695L80.6806 41.9818C80.9092 41.8804 81.1395 41.8804 81.3714 41.9818L87.758 44.7746C88.0893 44.9199 88.3842 44.8641 88.6426 44.6073C88.8481 44.4079 88.8563 44.1055 88.6675 43.7C88.5973 43.5435 88.473 43.4204 88.3196 43.3554L81.3863 40.3193C81.2732 40.2697 81.1511 40.2441 81.0272 40.2441C80.9034 40.2441 80.7804 40.2697 80.6657 40.3193L73.6629 43.401C73.2818 43.5666 73.146 43.8521 73.2553 44.2576C73.2818 44.3454 73.3216 44.4265 73.3746 44.5009C73.6264 44.8489 73.9478 44.9384 74.3388 44.7695ZM80.6906 47.0502L76.1579 49.0421C75.6841 49.2482 75.3047 49.1316 75.0198 48.6924C74.9005 48.5065 75.0281 48.2277 75.4025 47.8561C75.5847 47.6736 75.7935 47.53 76.0287 47.4252L80.6757 45.3877C80.7905 45.3381 80.9139 45.3125 81.0385 45.3125C81.1632 45.3125 81.2866 45.3381 81.4013 45.3877L86.5951 47.6685C86.7672 47.7434 86.903 47.8837 86.9728 48.0588C87.1086 48.4001 87.102 48.6636 86.9529 48.8495C86.6945 49.1637 86.3814 49.2398 86.0136 49.0776L81.3765 47.0502C81.1479 46.9522 80.9193 46.9522 80.6906 47.0502ZM58.628 52.6316C57.644 51.8848 57.1387 50.8593 57.1122 49.555C57.1089 49.3354 57.2116 49.2526 57.4203 49.3067C60.0611 50.0162 61.6565 51.6855 62.2065 54.3143C62.2628 54.5813 62.3721 54.8246 62.5345 55.0442C62.6737 55.2267 62.8542 55.3162 63.0762 55.3128C63.2617 55.3075 63.4376 55.2285 63.5659 55.0928C63.6943 54.9572 63.7648 54.7758 63.7621 54.588C63.7588 54.0947 63.7472 53.5997 63.7273 53.103C63.6213 50.3693 64.8804 48.739 67.5046 48.2119C67.7431 48.1645 67.8574 48.2642 67.8475 48.5109L67.763 50.4825C67.7498 50.7867 67.8906 50.964 68.1855 51.0147L68.429 51.0553C68.8365 51.1229 69.0817 50.9505 69.1646 50.5383C69.3899 49.4131 69.3501 48.3284 69.0453 47.2843C68.9791 47.0607 68.8369 46.8682 68.6441 46.7411C68.4512 46.614 68.22 46.5605 67.9916 46.5899C65.162 46.9515 63.343 48.2896 62.5345 50.6042C62.4616 50.8171 62.3539 50.8356 62.2114 50.6599C60.7867 48.8792 58.9279 47.8841 56.635 47.6746C56.4145 47.6541 56.1948 47.7206 56.0217 47.8604C55.8486 48.0001 55.7353 48.2023 55.7056 48.4247C55.3942 50.7765 56.0817 52.5809 57.7682 53.8379C58.1294 54.1048 58.4773 54.0862 58.8119 53.7821C58.8683 53.7314 58.9097 53.6672 58.9362 53.5895C59.0588 53.1976 58.9561 52.8782 58.628 52.6316ZM103.747 49.4791C103.747 49.3068 103.666 49.2409 103.503 49.2814C100.796 49.9032 99.1329 51.6653 98.5133 54.5679C98.4808 54.7172 98.4105 54.8552 98.3095 54.9683C98.0378 55.2758 97.7893 55.3755 97.564 55.2673C97.1266 55.0578 96.9444 54.7098 97.0173 54.2232C97.5176 50.9118 96.2917 48.9013 93.3394 48.1917C93.0777 48.1275 92.9518 48.2323 92.9617 48.506L93.0412 50.4928C93.0512 50.7631 92.9269 50.9287 92.6685 50.9895L92.5343 51.0199C92.0737 51.1281 91.7855 50.949 91.6695 50.4827C91.3315 49.0905 91.4376 47.896 91.9876 46.8992C92.0426 46.8005 92.1235 46.7195 92.2211 46.6657C92.3187 46.6119 92.429 46.5874 92.5393 46.5951C95.4517 46.8046 97.3586 48.1275 98.2598 50.5638C98.3426 50.7935 98.4619 50.8138 98.6176 50.6246C100.026 48.8945 101.873 47.9062 104.159 47.6595C104.683 47.6021 105.001 47.8352 105.114 48.359C105.581 50.5891 104.666 52.7077 102.857 53.9191C102.791 53.9638 102.717 53.9937 102.639 54.0068C102.561 54.0199 102.481 54.0159 102.405 53.9951C101.891 53.86 101.747 53.5153 101.972 52.9612C102.021 52.8315 102.102 52.7179 102.206 52.6317C103.217 51.7599 103.73 50.7091 103.747 49.4791ZM82.0758 49.5195H82.1354C82.5224 49.5195 82.8362 49.8395 82.8362 50.2342V52.7887C82.8362 53.1834 82.5224 53.5034 82.1354 53.5034H82.0758C81.6887 53.5034 81.375 53.1834 81.375 52.7887V50.2342C81.375 49.8395 81.6887 49.5195 82.0758 49.5195ZM64.216 57.3946C64.5374 54.2353 66.2388 52.169 69.3203 51.1959C69.9167 51.01 70.3358 51.2111 70.5777 51.799C71.0382 52.9208 71.1095 54.2217 70.7914 55.7017C70.7086 56.0836 70.475 56.2644 70.0906 56.2441L69.9216 56.239C69.5737 56.2221 69.4064 56.0363 69.4197 55.6815L69.5141 53.0965C69.5156 53.0477 69.505 52.9992 69.4832 52.9557C69.4614 52.9122 69.4292 52.875 69.3894 52.8477C69.3497 52.8203 69.3038 52.8037 69.2561 52.7994C69.2084 52.795 69.1603 52.8031 69.1165 52.8228C65.8826 54.3164 64.9681 56.9435 66.373 60.7044C66.4216 60.8364 66.4303 60.9795 66.3979 61.1149C66.3051 61.5271 66.1378 61.7603 65.8959 61.8144C65.4585 61.9123 65.1454 61.7535 64.9565 61.3379C63.5716 58.2597 61.0981 56.8675 57.5362 57.1615C57.5115 57.1633 57.4875 57.1709 57.466 57.1836C57.4445 57.1963 57.4262 57.2138 57.4123 57.2348C57.3984 57.2557 57.3894 57.2797 57.3859 57.3047C57.3824 57.3298 57.3845 57.3553 57.3921 57.3794C57.8295 58.7175 58.7059 59.7363 60.0213 60.4357C60.1038 60.4802 60.1759 60.5417 60.2325 60.6161C60.2891 60.6904 60.329 60.7759 60.3493 60.8665C60.4818 61.4376 60.2747 61.762 59.728 61.8397C59.6018 61.8562 59.4751 61.8332 59.3652 61.7738C57.3938 60.7398 56.1811 59.0875 55.7271 56.8168C55.7054 56.7058 55.7055 56.5916 55.7274 56.4808C55.7493 56.3699 55.7925 56.2647 55.8545 56.1713C55.9165 56.0778 55.996 55.998 56.0885 55.9366C56.181 55.8751 56.2846 55.8332 56.3931 55.8133C59.4646 55.2591 61.9878 55.8217 63.9625 57.5011C64.1116 57.6261 64.1961 57.5906 64.216 57.3946ZM104.443 55.7885C101.401 55.2276 98.85 55.824 96.7891 57.5777C96.6632 57.6858 96.5952 57.6554 96.5853 57.4864C96.3799 54.3068 94.6884 52.2118 91.5109 51.2015C90.888 51.0022 90.4589 51.2133 90.2236 51.8351C89.7896 52.9873 89.72 54.224 90.0149 55.5452C90.1043 55.9372 90.3413 56.1686 90.7256 56.2396C90.9277 56.2801 91.095 56.1551 91.2276 55.8645C91.3402 55.628 91.3899 55.378 91.3767 55.1144L91.2972 53.2745C91.2806 52.815 91.4744 52.6849 91.8787 52.8843C94.9601 54.4149 95.8282 56.9897 94.483 60.6086C94.4501 60.7025 94.4333 60.8002 94.4333 60.8975C94.4531 61.5936 94.7431 61.9028 95.303 61.8251C95.4013 61.811 95.4948 61.7727 95.5753 61.7135C95.6558 61.6544 95.721 61.5761 95.7652 61.4855C97.2993 58.2619 99.8026 56.814 103.275 57.1418C103.461 57.1621 103.522 57.2617 103.459 57.4408C102.947 58.8803 101.913 59.823 100.641 60.5833C100.566 60.627 100.503 60.6889 100.458 60.7632C100.413 60.8376 100.387 60.9221 100.382 61.009C100.376 61.1949 100.421 61.3571 100.517 61.4956C100.795 61.8876 101.141 61.967 101.555 61.7338C103.514 60.6222 104.698 58.9698 105.109 56.7769C105.129 56.6673 105.128 56.5549 105.105 56.4459C105.083 56.3369 105.039 56.2335 104.977 56.1417C104.915 56.0498 104.836 55.9714 104.745 55.9108C104.653 55.8502 104.55 55.8086 104.443 55.7885ZM78.7206 52.4632L78.651 52.4637C78.2613 52.4665 77.9475 52.791 77.9502 53.1885L77.9672 55.672C77.97 56.0694 78.2881 56.3894 78.6779 56.3866L78.7475 56.3861C79.1372 56.3834 79.451 56.0589 79.4483 55.6614L79.4313 53.1779C79.4286 52.7804 79.1104 52.4605 78.7206 52.4632ZM82.0779 53.7969H82.1375C82.5301 53.7969 82.8483 54.1214 82.8483 54.5217V56.9748C82.8483 57.3751 82.5301 57.6996 82.1375 57.6996H82.0779C81.6854 57.6996 81.3672 57.3751 81.3672 56.9748V54.5217C81.3672 54.1214 81.6854 53.7969 82.0779 53.7969ZM67.6265 63.6499C67.3316 60.2202 68.7746 57.6623 71.9554 55.9762C72.4524 55.7126 72.8434 55.8258 73.1283 56.3158C75.1859 59.8738 75.4692 64.4811 72.1641 67.3853C67.4575 71.5212 60.9567 71.0144 58.1734 64.8764C58.0948 64.7016 58.0801 64.504 58.1322 64.3197C58.1842 64.1354 58.2994 63.9768 58.4567 63.8729C61.568 61.8218 64.5434 61.7965 67.3829 63.7969C67.5652 63.9253 67.6464 63.8763 67.6265 63.6499ZM70.0817 66.5896C70.2208 66.8903 70.4196 66.9393 70.6781 66.7366C73.6402 64.4101 73.7396 61.1106 72.2635 57.8566C72.1774 57.664 72.0465 57.6251 71.8709 57.74C68.8756 59.6964 68.2792 62.6463 70.0817 66.5896ZM68.8988 67.4918C66.7219 64.4051 63.6206 62.7527 59.9527 64.699C59.9305 64.7109 59.9108 64.7272 59.8949 64.7469C59.879 64.7666 59.8672 64.7892 59.8602 64.8134C59.8533 64.8376 59.8512 64.8629 59.8543 64.8877C59.8574 64.9125 59.8655 64.9362 59.8782 64.9575C61.9954 68.4616 64.9708 69.4212 68.8044 67.8364C68.98 67.7655 69.0115 67.6506 68.8988 67.4918ZM102.365 63.8466C99.3069 61.8361 96.3282 61.809 93.429 63.7655C93.2434 63.8871 93.1623 63.8364 93.1855 63.6134C93.4986 60.248 91.8883 57.3184 88.772 55.9448C88.285 55.7319 87.9089 55.862 87.6438 56.3351C85.6359 59.9388 85.4123 64.5866 88.7621 67.4351C90.4619 68.8813 92.3555 69.7446 94.4429 70.0251C97.9716 70.4914 101.227 68.2004 102.673 64.911C102.755 64.7253 102.769 64.5158 102.713 64.3205C102.656 64.1253 102.533 63.9571 102.365 63.8466ZM88.9261 57.7188C92.2561 59.9945 92.3753 63.1877 90.6259 66.7306C90.5464 66.8927 90.4337 66.9198 90.2879 66.8116C87.2661 64.5866 87.0623 61.0082 88.5633 57.8201C88.5787 57.7873 88.6008 57.7582 88.6282 57.7348C88.6555 57.7115 88.6875 57.6944 88.722 57.6848C88.7564 57.6752 88.7924 57.6732 88.8277 57.6791C88.8629 57.6849 88.8965 57.6985 88.9261 57.7188ZM100.914 65.1137C98.6939 68.4859 95.755 69.3864 92.097 67.8152C91.8651 67.7172 91.8237 67.5652 91.9728 67.359C94.1695 64.3382 97.1714 62.838 100.78 64.6119C101.012 64.7268 101.056 64.8941 100.914 65.1137ZM78.7057 56.8984H78.6759C78.2724 56.8984 77.9453 57.232 77.9453 57.6435V76.8632C77.9453 77.2747 78.2724 77.6083 78.6759 77.6083H78.7057C79.1092 77.6083 79.4363 77.2747 79.4363 76.8632V57.6435C79.4363 57.232 79.1092 56.8984 78.7057 56.8984ZM82.0928 58.5566H82.1127C82.5135 58.5566 82.8383 58.888 82.8383 59.2966V76.8742C82.8383 77.2829 82.5135 77.6142 82.1127 77.6142H82.0928C81.6921 77.6142 81.3672 77.2829 81.3672 76.8742V59.2966C81.3672 58.888 81.6921 58.5566 82.0928 58.5566Z" fill="url(#paint1_linear_1933_150)"/>
<defs>
<linearGradient id="paint0_linear_1933_150" x1="80" y1="94" x2="80" y2="8.26497e-06" gradientUnits="userSpaceOnUse">
<stop stop-color="#CDE5F6"/>
<stop offset="1" stop-color="white" stop-opacity="0"/>
</linearGradient>
<linearGradient id="paint1_linear_1933_150" x1="80.4651" y1="9" x2="80.4651" y2="82.8596" gradientUnits="userSpaceOnUse">
<stop stop-color="#5EB83E"/>
<stop offset="1" stop-color="#005B9F"/>
</linearGradient>
</defs>
</svg>
