<svg width="160" height="94" viewBox="0 0 160 94" fill="none" xmlns="http://www.w3.org/2000/svg">
<path d="M134.737 94L-1.52588e-05 94L25.2631 3.47972e-06L160 1.52588e-05L134.737 94Z" fill="url(#paint0_linear_1933_145)"/>
<path fill-rule="evenodd" clip-rule="evenodd" d="M92.8843 13H73.5333C71.6445 13.265 70.3566 14.0828 69.6694 15.4532C69.2395 16.3181 69.0475 17.5682 69.0933 19.2037C69.1497 21.1216 69.1567 22.8862 69.1144 24.4972C69.1074 24.6751 69.0158 24.764 68.8396 24.764C63.7265 24.7814 58.0796 24.7745 51.8989 24.7431C50.4999 24.7361 49.3987 24.9314 48.5953 25.3289C47.1963 26.0159 46.3312 27.2713 46 29.0951V76.6271C46.3806 79.0332 47.6562 80.4909 49.8269 81H116.242C118.254 80.5223 119.507 79.2616 120 77.2182V28.7289C119.376 26.0787 117.702 24.757 114.979 24.764C109.133 24.7779 103.287 24.7745 97.4406 24.7535C97.282 24.7535 97.2027 24.6751 97.2027 24.5182C97.171 22.5653 97.1745 20.4068 97.2133 18.0425C97.2344 16.7627 96.9701 15.7305 96.4204 14.9458C95.6699 13.8788 94.4911 13.2302 92.8843 13ZM95.6646 17.964C95.6047 20.5898 95.5941 22.7972 95.6329 24.5862C95.6364 24.7117 95.5747 24.7745 95.4479 24.7745L94.1106 24.7692C94.0119 24.7657 93.9626 24.7152 93.9626 24.6175C93.9661 23.3343 93.9679 22.0266 93.9679 20.6945C93.9626 18.9003 92.3346 18.2988 90.7859 18.3197C85.7292 18.3859 80.5985 18.3964 75.3939 18.3511C73.3712 18.3336 72.3616 19.2804 72.3651 21.1914C72.3651 22.3456 72.3616 23.4842 72.3546 24.6071C72.3546 24.7187 72.2982 24.7745 72.1854 24.7745L70.8481 24.7692C70.8112 24.7679 70.7763 24.7524 70.7506 24.7261C70.725 24.6997 70.7107 24.6646 70.7107 24.628C70.7072 22.5148 70.709 20.2586 70.716 17.8594C70.7213 15.2231 72.4709 14.5378 74.7754 14.5483C80.343 14.5623 86.1732 14.5762 92.2659 14.5902C94.4964 14.5954 95.7174 15.8508 95.6646 17.964ZM92.3471 20.2222C92.3703 20.2774 92.3821 20.3365 92.3821 20.3963V24.3194C92.3821 24.3791 92.3703 24.4383 92.3471 24.4935C92.324 24.5487 92.2902 24.5989 92.2475 24.6412C92.2048 24.6834 92.1541 24.717 92.0983 24.7398C92.0425 24.7627 91.9827 24.7745 91.9223 24.7745H74.3949C74.2729 24.7745 74.1559 24.7265 74.0697 24.6412C73.9834 24.5558 73.935 24.4401 73.935 24.3194V20.3963C73.935 20.2756 73.9834 20.1599 74.0697 20.0745C74.1559 19.9892 74.2729 19.9412 74.3949 19.9412H91.9223C91.9827 19.9412 92.0425 19.953 92.0983 19.9759C92.1541 19.9987 92.2048 20.0323 92.2475 20.0745C92.2902 20.1168 92.324 20.1669 92.3471 20.2222ZM88.2223 41.6698C87.736 41.7954 87.5087 42.1075 87.5404 42.6062C87.5475 42.6933 87.581 42.777 87.6409 42.8572C87.8946 43.1885 88.2223 43.3001 88.624 43.192L118.124 35.3825C118.314 35.3336 118.409 35.4069 118.409 35.6022C118.423 49.7392 118.421 63.3985 118.404 76.58C118.398 78.1806 117.109 79.4255 115.555 79.4255C93.6155 79.4325 71.9846 79.4308 50.662 79.4203C48.0931 79.4203 47.5963 77.4065 47.5963 75.1991C47.5787 62.4569 47.5769 49.2736 47.591 35.6492C47.591 35.5097 47.658 35.4574 47.7919 35.4923C57.8418 38.0868 67.7578 40.6568 77.5399 43.2025C77.9486 43.3071 78.2851 43.1798 78.5494 42.8206C78.5882 42.7683 78.6093 42.7108 78.6129 42.648C78.6375 42.1145 78.3891 41.7814 77.8676 41.6489L47.8817 33.8812C47.6914 33.8324 47.5945 33.7121 47.591 33.5203C47.5837 33.2837 47.572 33.0302 47.5596 32.7647C47.4373 30.1311 47.2606 26.328 50.9051 26.328C73.3448 26.3454 94.7871 26.3472 115.232 26.3332C118.631 26.3332 118.527 29.455 118.446 31.9171C118.428 32.4412 118.412 32.9355 118.43 33.3634C118.433 33.4496 118.408 33.5342 118.357 33.6036C118.306 33.6729 118.233 33.7229 118.15 33.7452L88.2223 41.6698ZM85.698 46.3055C86.2205 45.7848 86.5126 45.0799 86.51 44.3461L86.4955 40.2243C86.4942 39.8609 86.4206 39.5013 86.2789 39.1661C86.1372 38.8308 85.9302 38.5265 85.6696 38.2705C85.4091 38.0144 85.1001 37.8116 84.7604 37.6738C84.4207 37.5359 84.0568 37.4655 83.6896 37.4668L82.2942 37.4717C81.5526 37.4742 80.8424 37.7682 80.3199 38.289C79.7974 38.8097 79.5052 39.5145 79.5078 40.2484L79.5224 44.3702C79.5236 44.7336 79.5972 45.0931 79.7389 45.4284C79.8806 45.7636 80.0877 46.0679 80.3482 46.324C80.6088 46.58 80.9177 46.7828 81.2575 46.9207C81.5972 47.0586 81.961 47.1289 82.3282 47.1276L83.7237 47.1228C84.4652 47.1202 85.1754 46.8262 85.698 46.3055ZM84.8173 39.7633C84.8794 39.9089 84.9119 40.0651 84.9131 40.2231L84.9421 44.3448C84.9432 44.5028 84.9129 44.6594 84.8528 44.8058C84.7928 44.9522 84.7042 45.0855 84.5921 45.198C84.48 45.3104 84.3466 45.4 84.1995 45.4615C84.0524 45.5229 83.8946 45.5552 83.7349 45.5563L82.3184 45.566C82.1588 45.5671 82.0005 45.5371 81.8525 45.4777C81.7046 45.4182 81.57 45.3305 81.4563 45.2196C81.3426 45.1087 81.2521 44.9767 81.19 44.8311C81.1279 44.6856 81.0953 44.5294 81.0942 44.3714L81.0652 40.2496C81.064 40.0917 81.0944 39.935 81.1544 39.7886C81.2145 39.6422 81.3031 39.509 81.4152 39.3965C81.5273 39.284 81.6607 39.1945 81.8078 39.133C81.9549 39.0715 82.1127 39.0393 82.2724 39.0382L83.6889 39.0284C83.8485 39.0273 84.0068 39.0573 84.1548 39.1168C84.3027 39.1762 84.4373 39.2639 84.551 39.3748C84.6647 39.4858 84.7551 39.6178 84.8173 39.7633ZM56.8533 45.3421C56.7899 44.4459 57.2427 43.996 58.2117 43.9925C60.4493 43.9751 62.5266 43.9856 64.4436 44.0239C64.6833 44.028 64.9119 44.1252 65.08 44.2945C65.248 44.4637 65.3422 44.6915 65.3421 44.9289L65.3474 51.551C65.3474 51.766 65.2611 51.9723 65.1075 52.1243C64.9538 52.2764 64.7454 52.3618 64.5281 52.3618H57.8946C57.1898 52.3618 56.8374 52.0131 56.8374 51.3156V47.9575C56.8374 47.7761 56.7599 47.6384 56.6049 47.5442C55.9882 47.1607 55.4984 46.7108 55.1354 46.1947C55.0781 46.1124 55.0415 46.0177 55.0286 45.9185C55.0157 45.8193 55.027 45.7185 55.0614 45.6245C55.2165 45.2131 55.5178 45.0701 55.9653 45.1956C56.1979 45.2584 56.4093 45.356 56.5996 45.4885C56.7863 45.6176 56.8709 45.5688 56.8533 45.3421ZM63.8093 47.403L63.7776 45.8547C63.7741 45.6594 63.6736 45.5618 63.4763 45.5618H58.7561C58.5377 45.5618 58.4267 45.6699 58.4231 45.8861L58.4126 46.7387C58.4091 46.9235 58.4795 47.0752 58.624 47.1938L60.7964 48.9827C60.9902 49.1431 61.1629 49.1239 61.3144 48.9252C61.3542 48.8732 61.3964 48.8166 61.441 48.7569L61.4412 48.7566L61.4422 48.7553L61.4422 48.7552C61.9315 48.0996 62.7028 47.0661 63.545 47.5547C63.7247 47.6593 63.8128 47.6087 63.8093 47.403ZM61.9117 50.599C61.8967 50.6163 61.8869 50.6375 61.8836 50.6601C61.8802 50.6827 61.8835 50.7058 61.8929 50.7266C61.9023 50.7475 61.9175 50.7652 61.9368 50.7778C61.956 50.7904 61.9785 50.7974 62.0016 50.7978L63.4234 50.7925C63.6736 50.7925 63.797 50.6688 63.7934 50.4212L63.7723 48.9147C63.7688 48.6322 63.6736 48.5974 63.4869 48.8101L61.9117 50.599ZM58.4073 49.3279L58.4179 50.531C58.4214 50.7054 58.5112 50.7925 58.6874 50.7925L60.0406 50.7978C60.3824 50.7978 60.4194 50.6914 60.1516 50.4787L58.5976 49.2338C58.5807 49.2203 58.5603 49.2119 58.5388 49.2097C58.5173 49.2075 58.4954 49.2115 58.4756 49.2213C58.4559 49.2311 58.439 49.2463 58.4269 49.2651C58.4149 49.2839 58.4081 49.3057 58.4073 49.3279ZM102.628 43.9976C101.768 44.0046 101.352 44.4335 101.38 45.2844C101.391 45.5773 101.283 45.6296 101.058 45.4413C100.854 45.2739 100.614 45.1797 100.339 45.1588C99.9268 45.1344 99.6731 45.3419 99.5779 45.7813C99.5522 45.8983 99.5587 46.02 99.5969 46.1332C99.6351 46.2465 99.7034 46.3472 99.7946 46.4247L101.132 47.5807C101.291 47.7167 101.37 47.8875 101.37 48.0933V51.4462C101.37 51.689 101.467 51.9218 101.641 52.0935C101.814 52.2651 102.049 52.3616 102.295 52.3616H109.061C109.168 52.3616 109.274 52.3406 109.373 52.2998C109.472 52.259 109.562 52.1992 109.638 52.1238C109.714 52.0484 109.773 51.959 109.814 51.8607C109.855 51.7623 109.875 51.657 109.874 51.5508V45.1536C109.874 44.3934 109.49 44.0098 108.722 44.0028C106.597 43.9854 104.566 43.9836 102.628 43.9976ZM108.114 47.7323C107.995 47.5719 107.839 47.4586 107.649 47.3923C107.417 47.3121 107.219 47.361 107.057 47.5388L105.773 48.925C105.711 48.9899 105.627 49.0294 105.537 49.0352C105.448 49.041 105.36 49.0128 105.292 48.9563L103.077 47.1204C103.036 47.0862 103.003 47.043 102.981 46.9941C102.959 46.9451 102.948 46.8917 102.95 46.8379L102.955 45.8231C102.959 45.6488 103.047 45.5616 103.22 45.5616L108.009 45.5564C108.206 45.5564 108.306 45.6557 108.31 45.8545L108.352 47.6539C108.356 47.9189 108.276 47.9451 108.114 47.7323ZM106.518 50.536L108.083 48.6425C108.206 48.4891 108.271 48.51 108.278 48.7053L108.32 50.4837C108.324 50.6895 108.224 50.7924 108.019 50.7924L106.65 50.8028C106.414 50.8063 106.37 50.7174 106.518 50.536ZM103.267 49.3225L104.858 50.6302C104.992 50.7383 104.973 50.7924 104.8 50.7924L103.288 50.7976C103.066 50.7976 102.955 50.6877 102.955 50.468L102.95 49.469C102.95 49.197 103.056 49.1481 103.267 49.3225ZM92.4365 70.6375C92.4365 71.4782 92.099 72.2844 91.4983 72.8789C90.8976 73.4734 90.0829 73.8073 89.2334 73.8073H77.5625C76.713 73.8073 75.8983 73.4734 75.2976 72.8789C74.6968 72.2844 74.3594 71.4782 74.3594 70.6375V56.3261C74.3594 55.4854 74.6968 54.6791 75.2976 54.0847C75.8983 53.4902 76.713 53.1562 77.5625 53.1562H89.2334C90.0829 53.1562 90.8976 53.4902 91.4983 54.0847C92.099 54.6791 92.4365 55.4854 92.4365 56.3261V70.6375ZM90.8878 56.3261C90.8878 56.1152 90.8458 55.9064 90.7643 55.7116C90.6827 55.5167 90.5632 55.3397 90.4125 55.1906C90.2618 55.0415 90.083 54.9232 89.8861 54.8425C89.6892 54.7618 89.4782 54.7203 89.2651 54.7203H77.5414C77.111 54.7203 76.6983 54.8894 76.3939 55.1906C76.0896 55.4917 75.9187 55.9002 75.9187 56.3261V70.6375C75.9187 71.0634 76.0896 71.4718 76.3939 71.773C76.6983 72.0741 77.111 72.2433 77.5414 72.2433H89.2651C89.4782 72.2433 89.6892 72.2018 89.8861 72.1211C90.083 72.0404 90.2618 71.9221 90.4125 71.773C90.5632 71.6239 90.6827 71.4468 90.7643 71.252C90.8458 71.0572 90.8878 70.8484 90.8878 70.6375V56.3261ZM58.1278 54.7156C57.2433 54.7226 56.824 55.1515 56.8698 56.0024C56.8839 56.2744 56.7817 56.3285 56.5632 56.1646C56.0505 55.7827 55.3369 55.6206 55.0304 56.3633C54.9705 56.5063 54.981 56.6423 55.0621 56.7713C55.4074 57.3258 55.8867 57.7861 56.4998 58.1523C56.7218 58.2848 56.8346 58.4801 56.8381 58.7381L56.8434 62.1747C56.8448 62.4166 56.9428 62.6481 57.1162 62.8186C57.2895 62.9892 57.524 63.0849 57.7684 63.0849H64.5235C64.7394 63.0849 64.9464 63 65.0991 62.8489C65.2518 62.6979 65.3375 62.493 65.3375 62.2793L65.3428 55.6676C65.3428 55.4225 65.2451 55.1873 65.071 55.0129C64.8968 54.8386 64.6602 54.7393 64.4125 54.7366C62.4075 54.7122 60.3126 54.7052 58.1278 54.7156ZM63.7571 56.5569C63.8064 56.9753 63.8117 57.3868 63.7729 57.7913C63.8505 57.9099 63.8857 58.0442 63.8787 58.1941C63.8716 58.365 63.7959 58.4033 63.6514 58.3092C62.7927 57.7396 62.0155 58.727 61.4988 59.3834C61.4271 59.4745 61.3604 59.5593 61.2992 59.6326C61.1512 59.8104 60.9874 59.8261 60.8077 59.6796L58.7145 57.9692C58.5137 57.8088 58.4132 57.5995 58.4132 57.3415L58.4238 56.5464C58.4238 56.3721 58.5119 56.2849 58.6881 56.2849H63.4505C63.6338 56.2849 63.7359 56.3755 63.7571 56.5569ZM63.7762 59.3587C63.7856 59.3732 63.7901 59.3903 63.7888 59.4076L63.7835 61.1495C63.7835 61.3901 63.6619 61.5104 63.4188 61.5104L62.1608 61.5209C61.8613 61.5209 61.8102 61.411 62.0075 61.1913L63.6355 59.3501C63.6481 59.337 63.6646 59.3277 63.6825 59.3236C63.7005 59.3194 63.7191 59.3205 63.7358 59.3268C63.7526 59.3331 63.7667 59.3442 63.7762 59.3587ZM58.7568 60.0144L60.2474 61.2646C60.4553 61.4354 60.4236 61.5209 60.1522 61.5209H58.6828C58.4996 61.5174 58.4079 61.4267 58.4079 61.2489L58.4238 60.187C58.4309 59.8906 58.5419 59.8331 58.7568 60.0144ZM101.378 56.0029C101.357 55.1521 101.781 54.7231 102.652 54.7162C104.696 54.7057 106.792 54.7109 108.942 54.7319C109.188 54.7346 109.423 54.8339 109.597 55.0082C109.77 55.1826 109.867 55.4178 109.867 55.6629L109.872 62.2746C109.872 62.4883 109.786 62.6932 109.634 62.8442C109.481 62.9953 109.274 63.0802 109.058 63.0802L102.361 63.0854C102.099 63.0854 101.848 62.9823 101.662 62.7989C101.477 62.6155 101.373 62.3667 101.373 62.1072L101.367 58.7648C101.367 58.5625 101.29 58.3951 101.135 58.2626L99.6918 57.0334C99.6127 56.966 99.5566 56.876 99.531 56.7759C99.5055 56.6757 99.5118 56.5702 99.5491 56.4737C99.7852 55.846 100.205 55.6804 100.807 55.9768C100.899 56.0221 100.982 56.0797 101.056 56.1494C101.278 56.3517 101.385 56.3028 101.378 56.0029ZM106.997 58.3306C107.319 58.0116 107.811 58.0325 108.054 58.4248C108.226 58.6968 108.313 58.6741 108.313 58.3568V56.5836C108.313 56.3848 108.212 56.2854 108.012 56.2854H103.217C103.147 56.2854 103.08 56.313 103.03 56.362C102.981 56.411 102.953 56.4776 102.953 56.5469V57.3368C102.951 57.4561 102.977 57.574 103.027 57.6818C103.077 57.7896 103.151 57.8844 103.244 57.9592L105.4 59.722C105.541 59.8406 105.67 59.8266 105.786 59.6802C106.146 59.2233 106.549 58.7735 106.997 58.3306ZM108.175 61.5162C108.197 61.5162 108.219 61.5118 108.239 61.5033C108.26 61.4949 108.278 61.4825 108.293 61.4668C108.308 61.4512 108.32 61.4327 108.328 61.4124C108.336 61.3922 108.34 61.3705 108.339 61.3488L108.302 59.5703C108.302 59.5371 108.291 59.505 108.271 59.4781C108.251 59.4513 108.224 59.4311 108.192 59.4203C108.16 59.4094 108.126 59.4085 108.094 59.4175C108.061 59.4266 108.033 59.4452 108.012 59.4709L106.495 61.2494C106.474 61.2731 106.461 61.3021 106.457 61.3329C106.453 61.3637 106.458 61.395 106.471 61.4231C106.485 61.4512 106.506 61.4749 106.533 61.4914C106.559 61.5079 106.59 61.5165 106.621 61.5162H108.175ZM104.782 61.2599L103.202 59.9679C103.043 59.8354 102.962 59.872 102.958 60.0777L102.943 61.2442C102.942 61.279 102.948 61.3135 102.961 61.3459C102.974 61.3782 102.993 61.4076 103.018 61.4325C103.043 61.4573 103.072 61.4771 103.104 61.4905C103.137 61.504 103.172 61.5109 103.207 61.5109L104.682 61.5319C104.974 61.5353 105.007 61.4447 104.782 61.2599ZM82.786 60.7622L81.9878 60.1293C81.72 59.9166 81.757 59.812 82.0988 59.8154H88.0241C88.38 59.8154 88.6443 59.6236 88.817 59.2401C88.8381 59.1912 88.8487 59.1424 88.8487 59.0936C88.8346 58.5391 88.5474 58.2602 87.9871 58.2567C84.939 58.2357 82.1235 58.2375 79.5406 58.2619C79.0684 58.2654 78.7882 58.4973 78.7001 58.9576C78.6759 59.0845 78.6866 59.2159 78.7312 59.3381C78.7758 59.4604 78.8527 59.5692 78.9538 59.6533L81.8187 62.0124C81.9625 62.1299 82.1452 62.1906 82.3316 62.1829C82.518 62.1752 82.6949 62.0995 82.8283 61.9705C82.8811 61.9182 82.9287 61.8607 82.971 61.7979C83.2177 61.3969 83.156 61.0516 82.786 60.7622ZM82.2043 64.7855C81.3762 64.7855 81.304 64.9791 81.9876 65.3661C82.3435 65.5684 82.6007 65.8543 82.7593 66.224C82.8404 66.4123 82.8333 66.5954 82.7382 66.7732C82.6043 67.0278 82.384 67.1498 82.0774 67.1394C81.8378 67.1324 81.6211 67.0539 81.4273 66.904C80.4724 66.1682 79.5262 65.401 78.5889 64.6024C78.4959 64.5233 78.4261 64.4208 78.3871 64.3057C78.348 64.1906 78.341 64.0673 78.3669 63.9486C78.4691 63.4883 78.7563 63.2529 79.2284 63.2424C80.9833 63.2145 82.8756 63.2041 84.9053 63.2111C85.4797 63.2111 85.5202 63.0646 85.0269 62.7717C84.6111 62.5276 84.3714 62.1998 84.308 61.7883C84.2857 61.6531 84.3044 61.5145 84.3619 61.3899C84.4194 61.2654 84.5131 61.1605 84.6309 61.0888C84.7488 61.017 84.8855 60.9815 85.0238 60.9869C85.1621 60.9922 85.2956 61.0381 85.4074 61.1187C86.2778 61.729 87.0989 62.4038 87.8706 63.1431C89.0158 64.238 88.7921 64.7855 87.1993 64.7855H82.2043ZM57.8831 65.4386C57.2065 65.4438 56.7784 66.0297 56.8577 66.6678C56.9035 67.0235 56.7872 67.0898 56.5088 66.8666C56.3678 66.755 56.2093 66.6713 56.0331 66.6155C55.5292 66.4656 55.1962 66.6295 55.0341 67.1072C54.9883 67.2467 55.0024 67.3792 55.0764 67.5048C55.4217 68.0697 55.9186 68.5422 56.5669 68.9223C56.7467 69.0269 56.8365 69.1821 56.8365 69.3878V72.7617C56.8365 73.0392 56.9479 73.3052 57.1461 73.5014C57.3444 73.6976 57.6133 73.8078 57.8937 73.8078L64.4638 73.8026C64.6979 73.8026 64.9224 73.7106 65.088 73.5468C65.2535 73.3829 65.3465 73.1608 65.3465 72.9291L65.3412 66.3592C65.3413 66.1233 65.2477 65.8968 65.0806 65.7285C64.9135 65.5603 64.6863 65.4637 64.4479 65.4595C62.2984 65.4316 60.1101 65.4247 57.8831 65.4386ZM63.7767 67.3008L63.8084 68.8491C63.8119 69.0513 63.7256 69.1019 63.5494 69.0008C62.7163 68.5324 61.9723 69.4943 61.4729 70.1399L61.4727 70.1401L61.4724 70.1405C61.4143 70.2156 61.3595 70.2865 61.3082 70.3503C61.2785 70.3871 61.2417 70.4176 61.1998 70.4399C61.158 70.4623 61.112 70.4761 61.0646 70.4805C61.0173 70.4849 60.9695 70.4798 60.9242 70.4655C60.8788 70.4512 60.8369 70.4281 60.8008 70.3974L58.6231 68.6189C58.4821 68.5004 58.4117 68.3504 58.4117 68.1691L58.4222 67.3322C58.4258 67.1159 58.5368 67.0078 58.7552 67.0078H63.4754C63.6727 67.0078 63.7731 67.1055 63.7767 67.3008ZM63.7714 70.4078L63.7978 72.1183C63.7978 72.1474 63.7861 72.1754 63.7653 72.196C63.7445 72.2166 63.7162 72.2282 63.6868 72.2282L62.1117 72.2438C61.8438 72.2473 61.798 72.1479 61.9742 71.9457L63.4384 70.2875C63.6568 70.0399 63.7678 70.0801 63.7714 70.4078ZM58.7394 70.7478L60.2511 71.9928C60.4519 72.1602 60.422 72.2438 60.1612 72.2438L58.6812 72.2386C58.5015 72.2386 58.4117 72.1497 58.4117 71.9718L58.4169 70.91C58.4205 70.6275 58.5279 70.5735 58.7394 70.7478ZM101.398 66.7465C101.266 65.9985 101.762 65.4336 102.524 65.4336C104.662 65.4336 106.81 65.4388 108.967 65.4493C109.207 65.4507 109.437 65.5461 109.606 65.7146C109.776 65.8832 109.871 66.1113 109.871 66.349L109.881 72.9293C109.881 73.161 109.788 73.3832 109.623 73.547C109.457 73.7108 109.233 73.8028 108.999 73.8028L102.428 73.8081C102.29 73.8087 102.152 73.7822 102.024 73.7299C101.896 73.6777 101.779 73.6007 101.681 73.5035C101.583 73.4063 101.505 73.2907 101.452 73.1635C101.399 73.0362 101.371 72.8997 101.371 72.7619V69.4665C101.371 69.3445 101.34 69.224 101.28 69.1162C101.22 69.0083 101.133 68.9166 101.028 68.8493C100.506 68.518 100.064 68.124 99.7009 67.6671C99.5212 67.444 99.5071 67.2086 99.6587 66.961C99.8842 66.5948 100.194 66.4763 100.589 66.6053C100.775 66.6654 100.88 66.7502 101.008 66.8538C101.036 66.8765 101.065 66.9 101.096 66.9244C101.126 66.9494 101.162 66.9646 101.201 66.9679C101.24 66.9712 101.278 66.9624 101.312 66.9427C101.345 66.923 101.371 66.8935 101.387 66.8583C101.402 66.8231 101.406 66.784 101.398 66.7465ZM106.837 69.1945C107.274 68.7203 107.696 68.7168 108.105 69.1841C108.274 69.3759 108.355 69.3445 108.348 69.0899L108.317 67.301C108.315 67.2214 108.282 67.1456 108.225 67.0898C108.168 67.0341 108.09 67.0028 108.01 67.0028L103.227 67.0081C103.054 67.0081 102.964 67.0935 102.957 67.2644L102.941 68.0333C102.938 68.2913 103.034 68.5023 103.232 68.6662L105.33 70.3924C105.506 70.5388 105.667 70.5249 105.811 70.3505C106.135 69.9704 106.477 69.5851 106.837 69.1945ZM108.052 70.1256L106.514 71.9616C106.352 72.1534 106.398 72.2493 106.652 72.2493L108.015 72.2388C108.227 72.2388 108.329 72.136 108.322 71.9302L108.28 70.2041C108.273 69.9844 108.197 69.9582 108.052 70.1256ZM103.116 70.6121C103.01 70.5214 102.957 70.5458 102.957 70.6853L102.952 71.9093C102.952 72.129 103.063 72.2388 103.285 72.2388L104.696 72.2441C104.96 72.2441 104.992 72.1604 104.791 71.993L103.116 70.6121ZM84.4713 67.3058L84.9945 67.7451C85.2412 67.9509 85.2024 68.0538 84.8783 68.0538H79.0428C78.9149 68.0537 78.7889 68.088 78.6781 68.1531C78.0861 68.5088 78.0385 68.929 78.5354 69.4138C78.6646 69.538 78.8372 69.6074 79.0164 69.6073C82.1033 69.6387 84.9716 69.6352 87.6215 69.5968C88.0973 69.5899 88.3439 69.3388 88.3615 68.8436C88.365 68.725 88.3406 68.6071 88.2901 68.4991C88.2397 68.3912 88.1646 68.296 88.0708 68.2211L85.4068 66.0608C85.3383 66.0045 85.2589 65.9625 85.1735 65.9374C85.0881 65.9122 84.9985 65.9044 84.91 65.9144C84.4343 65.9667 84.1788 66.1602 84.1435 66.495C84.1118 66.8228 84.2211 67.093 84.4713 67.3058Z" fill="url(#paint1_linear_1933_145)"/>
<defs>
<linearGradient id="paint0_linear_1933_145" x1="80" y1="94" x2="80" y2="8.26497e-06" gradientUnits="userSpaceOnUse">
<stop stop-color="#CDE5F6"/>
<stop offset="1" stop-color="white" stop-opacity="0"/>
</linearGradient>
<linearGradient id="paint1_linear_1933_145" x1="83" y1="13" x2="83" y2="81" gradientUnits="userSpaceOnUse">
<stop stop-color="#5EB83E"/>
<stop offset="1" stop-color="#005B9F"/>
</linearGradient>
</defs>
</svg>
