<svg width="160" height="94" viewBox="0 0 160 94" fill="none" xmlns="http://www.w3.org/2000/svg">
<path d="M134.737 94L-1.52588e-05 94L25.2631 3.47972e-06L160 1.52588e-05L134.737 94Z" fill="url(#paint0_linear_1933_142)"/>
<path fill-rule="evenodd" clip-rule="evenodd" d="M58.044 4H102.843C105.141 4.30375 106.698 5.2264 107.513 6.76795C107.968 7.62225 108.194 8.6721 108.19 9.91748C108.145 29.3956 108.146 48.253 108.196 66.4895C108.2 66.6338 108.239 66.7648 108.315 66.8825C109.802 69.1683 110.697 71.678 111 74.4118V77.7322C109.965 84.4755 104.595 89.1115 97.98 90C97.98 90 95.9779 90.22 95.4779 90.22C94.9779 90.22 93.3783 90 93.3783 90C92.8854 89.8443 92.0284 89.6526 90.8073 89.4248C88.5852 89.0109 86.1014 87.9345 83.356 86.1955C79.8256 83.9591 78.0149 80.8039 77.9239 76.7298C77.9011 75.6325 78.0945 74.5732 78.504 73.5518C78.5875 73.3468 78.559 73.1569 78.4187 72.9823C75.9842 69.9979 73.544 66.9793 71.0982 63.9266C70.1369 62.7249 69.4259 61.4833 69.6761 59.8886C70.3189 55.7766 75.1708 54.4154 77.884 57.6617C79.4653 59.5526 80.9442 61.3884 82.3207 63.1691C82.4648 63.3552 82.5919 63.3438 82.7018 63.135C83.8167 60.9897 85.5914 60.3936 88.0259 61.3466C88.2003 61.415 88.3292 61.3637 88.4127 61.1928C89.4593 59.0172 91.1809 58.3167 93.5774 59.0913C93.7177 59.1368 93.8201 59.0913 93.8846 58.9546C95.1189 56.2777 98.0881 55.4064 100.25 57.5421C102.536 59.7975 104.497 61.9712 106.131 64.0633C106.321 64.3063 106.415 64.274 106.415 63.9665C106.461 45.9843 106.472 27.8351 106.45 9.51881C106.45 7.25205 104.846 5.74848 102.559 5.74278C87.1746 5.68203 72.6036 5.68203 58.8461 5.74278C56.3262 5.75417 54.4492 6.95589 54.4492 9.7751C54.4795 50.9868 54.4928 71.6268 54.489 71.6951C54.324 74.2352 55.2455 76.3254 58.1294 76.3254C63.461 76.3292 68.7983 76.3349 74.1413 76.3425C74.3219 76.3427 74.4962 76.4028 74.6361 76.5134C74.985 76.7868 75.1367 77.0658 75.0912 77.3506C75.0191 77.829 74.7404 78.0644 74.255 78.0568C69.1434 77.9999 64.2782 78.0113 59.6594 78.091C57.7369 78.1214 56.2845 77.8632 55.3024 77.3164C53.6301 76.3862 52.792 74.8294 52.7883 72.6462C52.7579 51.5886 52.756 30.5822 52.7826 9.62702C52.7826 9.05748 52.555 8.94548 52.1 9.29099L51.5994 9.67258C51.0003 10.1244 50.7007 10.7262 50.7007 11.478C50.7083 31.6092 50.7083 52.3802 50.7007 73.791C50.695 77.4588 53.2092 79.6572 56.8552 79.6344C63.8516 79.5851 70.2487 79.5813 76.0468 79.623C76.3767 79.6268 76.6137 79.7768 76.7578 80.073C76.8412 80.2477 76.8355 80.483 76.7407 80.7792C76.6896 80.9409 76.5879 81.0819 76.4506 81.1813C76.3134 81.2808 76.1479 81.3335 75.9785 81.3317C70.408 81.2785 64.7617 81.288 59.0394 81.3601C56.5215 81.3943 54.616 81.1532 53.3229 80.6368C50.9415 79.6876 49.5006 77.7626 49 74.8617V11.1135C49.3982 8.98724 50.6723 7.71148 52.8224 7.28623C53.0082 7.24826 53.1504 7.14954 53.249 6.99007C54.3183 5.27766 55.9167 4.28097 58.044 4ZM86.0009 80.0274C86.0199 80.4755 85.8777 80.745 85.5743 80.8362C85.1193 80.9691 84.7439 80.8513 84.4481 80.483L80.1024 75.0952C79.8749 74.8143 79.744 74.8541 79.7099 75.2148C79.3686 78.6358 80.2105 81.2728 82.2354 83.1257C86.8712 87.3574 95.0165 89.8405 101.228 87.4257C104.385 86.2012 107.775 83.251 108.713 79.9477C109.953 75.5736 109.331 71.5261 106.848 67.8052C105.1 65.1891 102.46 62.1307 98.9299 58.6299C98.6926 58.396 98.3898 58.2375 98.0596 58.1743C97.195 58.011 96.5504 58.1591 96.1257 58.6185C95.2459 59.5602 95.208 60.5341 96.0119 61.5403L98.4009 64.5303C98.6891 64.891 98.7005 65.2612 98.435 65.6409C98.2947 65.8422 98.0426 65.939 97.6785 65.9314C97.5809 65.9297 97.4848 65.9064 97.3973 65.8631C97.3097 65.8197 97.2329 65.7575 97.1723 65.6808L93.8163 61.489C93.1755 60.6879 92.3507 60.3822 91.342 60.5721C91.0842 60.6214 90.8642 60.7315 90.6822 60.9024C89.7456 61.7985 89.6583 62.7705 90.4205 63.8184C91.433 65.2119 92.5195 66.5845 93.6798 67.9362C93.7547 68.0187 93.811 68.1158 93.8448 68.2209C94.0685 68.8702 94.0476 69.2746 93.7822 69.434C93.2968 69.7264 92.8759 69.6524 92.5194 69.2119L87.8211 63.414C87.1309 62.5635 86.2815 62.3509 85.2728 62.7762C85.1401 62.8293 85.0207 62.9015 84.9145 62.9926C83.8527 63.9076 83.7617 64.9119 84.6415 66.0054L89.4251 71.94C89.474 72.0039 89.5088 72.0757 89.5275 72.1507C89.664 72.6861 89.6034 73.0411 89.3455 73.2158C88.8753 73.5347 88.462 73.4721 88.1055 73.0278C84.3703 68.369 80.601 63.6931 76.7976 59.0001C75.4666 57.3599 74.056 57.0599 72.5657 58.1003C70.7171 59.3931 71.1664 61.3466 72.378 62.8445C76.8261 68.3121 81.2931 73.8442 85.7791 79.4408C85.9122 79.6072 85.9898 79.8124 86.0009 80.0274ZM64.9089 16.6664L67.4799 13.0669C67.5068 13.0278 67.5257 12.9837 67.5354 12.9373C67.5452 12.8909 67.5455 12.8431 67.5365 12.7968C67.5275 12.7506 67.5093 12.7067 67.4829 12.668C67.4566 12.6293 67.4226 12.5964 67.3832 12.5714C63.1171 9.92875 58.6748 15.14 62.0648 18.9559C63.0148 20.0266 64.596 20.4709 65.9669 20.1178C67.988 19.5976 69.1029 18.1016 69.3114 15.6298C69.3532 15.1058 69.6357 14.8799 70.159 14.9521L70.3182 14.9691C70.6671 15.0185 70.8529 15.2216 70.8757 15.5785C70.9894 17.3783 70.4604 18.8857 69.2887 20.1007C65.8247 23.6831 59.4995 21.6213 59.1924 16.5411C58.9193 11.905 63.1001 9.01749 67.4344 10.6293C67.6158 10.6981 67.7786 10.8201 67.9395 10.9407C68.1116 11.0696 68.2815 11.1969 68.4696 11.2558C68.5422 11.279 68.6201 11.2788 68.6926 11.2553C68.765 11.2318 68.8283 11.1862 68.8735 11.1248L70.4548 8.90928C70.724 8.53338 71.0842 8.40239 71.5355 8.5163C71.6303 8.53908 71.708 8.58654 71.7687 8.65868C72.1024 9.04597 72.1214 9.44844 71.8256 9.8661L65.5118 18.6939C64.9127 19.5292 64.3173 19.5273 63.7258 18.6882L62.1331 16.4158C61.8259 15.9791 61.8999 15.6184 62.3549 15.3336L62.5313 15.2197C62.8763 15.0109 63.1683 15.0679 63.4072 15.3906L64.3628 16.6664C64.5486 16.917 64.7307 16.917 64.9089 16.6664ZM73.5137 14.1094H100.634C101.099 14.1094 101.476 14.4868 101.476 14.9523V14.9751C101.476 15.4406 101.099 15.818 100.634 15.818H73.5137C73.0488 15.818 72.6719 15.4406 72.6719 14.9751V14.9523C72.6719 14.4868 73.0488 14.1094 73.5137 14.1094ZM83.4216 16.25H73.4789C73.0202 16.25 72.6484 16.6223 72.6484 17.0815V17.1157C72.6484 17.5749 73.0202 17.9472 73.4789 17.9472H83.4216C83.8803 17.9472 84.2521 17.5749 84.2521 17.1157V17.0815C84.2521 16.6223 83.8803 16.25 83.4216 16.25ZM85.5676 16.2319L95.499 16.2492C95.9419 16.25 96.3004 16.6102 96.2996 17.0537L96.2994 17.1562C96.2987 17.5997 95.939 17.9586 95.496 17.9578L85.5647 17.9405C85.1217 17.9397 84.7633 17.5795 84.764 17.136L84.7642 17.0335C84.765 16.59 85.1247 16.2311 85.5676 16.2319ZM64.8887 29.6273L70.4858 21.7848C70.7854 21.3596 71.1665 21.2685 71.6291 21.5115C71.7012 21.5494 71.7656 21.5988 71.8225 21.6595C72.1183 21.9823 72.1391 22.3221 71.8851 22.679L69.7634 25.6634C69.6193 25.8684 69.6288 26.0639 69.7919 26.25C72.2434 29.1148 70.628 33.3293 67.602 34.8956C62.5737 37.4869 57.1928 31.877 59.8377 26.922C60.873 24.9894 62.5073 23.9244 64.7409 23.7269C64.9559 23.7085 65.1721 23.7561 65.3609 23.8636C66.0851 24.2737 66.0169 24.754 65.1561 25.3046C65.0142 25.3943 64.8519 25.4472 64.684 25.4583C60.964 25.7374 59.6614 30.083 62.1414 32.663C64.0014 34.5937 67.3858 34.0526 68.6998 31.672C69.352 30.4798 69.4221 29.1945 68.9102 27.8162C68.8878 27.7558 68.8494 27.7025 68.7993 27.662C68.7492 27.6216 68.6892 27.5955 68.6259 27.5867C68.5626 27.5779 68.4983 27.5867 68.4401 27.6121C68.382 27.6375 68.3321 27.6785 68.2959 27.7308L65.3836 31.8087C65.2978 31.9289 65.1845 32.0266 65.0531 32.0939C64.9217 32.1612 64.776 32.196 64.628 32.1954C64.4801 32.1949 64.3341 32.159 64.2024 32.0907C64.0707 32.0225 63.9569 31.9238 63.8706 31.803L62.221 29.4793C61.9556 29.0996 61.9594 28.7218 62.2324 28.3459C62.3993 28.1181 62.6875 28.044 63.097 28.1238C63.2578 28.1568 63.4002 28.2505 63.4952 28.3858L64.3768 29.6273C64.5475 29.8628 64.7181 29.8628 64.8887 29.6273ZM73.5215 28.0703H100.631C101.096 28.0703 101.473 28.4477 101.473 28.9132V28.936C101.473 29.4015 101.096 29.7789 100.631 29.7789H73.5215C73.0566 29.7789 72.6797 29.4015 72.6797 28.936V28.9132C72.6797 28.4477 73.0566 28.0703 73.5215 28.0703ZM83.4436 30.3438H73.5123C73.0568 30.3438 72.6875 30.7135 72.6875 31.1696V31.2151C72.6875 31.6712 73.0568 32.041 73.5123 32.041H83.4436C83.8992 32.041 84.2684 31.6712 84.2684 31.2151V31.1696C84.2684 30.7135 83.8992 30.3438 83.4436 30.3438ZM67.1667 40.1208L64.9142 43.2703C64.755 43.4905 64.5938 43.4924 64.4307 43.276L63.5093 42.0344C63.4391 41.938 63.3417 41.8663 63.2306 41.8294C62.5556 41.6015 62.1517 41.799 62.019 42.4217C62.001 42.5044 62.0002 42.5901 62.0169 42.6734C62.0335 42.7566 62.0671 42.8358 62.1157 42.9058L63.7311 45.2124C64.3416 46.0819 64.9559 46.0838 65.574 45.2181L68.1223 41.6585C68.6077 40.9789 68.9129 41.051 69.0381 41.8749L69.2485 43.2475C69.3153 43.6933 69.248 44.151 69.0551 44.5631C67.9668 46.8717 66.3154 47.7772 64.1008 47.2798C62.1555 46.8432 61.0482 45.4953 60.779 43.2361C60.7145 42.6894 60.4074 42.4198 59.8575 42.4274C59.7589 42.4274 59.6622 42.4502 59.5674 42.4957C59.2565 42.6438 59.1124 42.8925 59.1351 43.2418C59.302 45.7933 60.4434 47.5627 62.5594 48.5499C68.0427 51.1128 73.1676 44.808 69.8628 39.8759C69.715 39.6518 69.7169 39.4316 69.8685 39.2152L72.0016 36.191C72.0511 36.1203 72.0841 36.0395 72.0979 35.9547C72.1116 35.8698 72.106 35.7831 72.0812 35.7012C71.9447 35.2189 71.6186 34.9911 71.1028 35.0177C71.0106 35.0231 70.9209 35.0489 70.8402 35.0932C70.7594 35.1376 70.6898 35.1993 70.6364 35.274L68.6172 38.0761C68.4731 38.2736 68.2948 38.3134 68.0825 38.1957C65.4205 36.7035 62.9765 37.0434 60.7506 39.2152C60.523 39.4392 60.4737 39.6955 60.6027 39.9841C60.6709 40.1435 60.779 40.2612 60.9269 40.3372C61.3554 40.5612 61.7479 40.5099 62.1043 40.1834C63.4998 38.9152 65.1247 38.6741 66.979 39.4601C67.3165 39.6006 67.3791 39.8208 67.1667 40.1208ZM100.631 41.1679H73.5213C73.0564 41.1679 72.6794 41.5453 72.6794 42.0109V42.0336C72.6794 42.4992 73.0564 42.8766 73.5213 42.8766H100.631C101.096 42.8766 101.472 42.4992 101.472 42.0336V42.0109C101.472 41.5453 101.096 41.1679 100.631 41.1679ZM73.5045 43.4395H83.4472C83.9027 43.4395 84.272 43.8092 84.272 44.2653V44.3108C84.272 44.7669 83.9027 45.1367 83.4472 45.1367H73.5045C73.049 45.1367 72.6797 44.7669 72.6797 44.3108V44.2653C72.6797 43.8092 73.049 43.4395 73.5045 43.4395ZM89.7953 43.4453H85.5634C85.1142 43.4453 84.75 43.8099 84.75 44.2598V44.3167C84.75 44.7665 85.1142 45.1311 85.5634 45.1311H89.7953C90.2445 45.1311 90.6087 44.7665 90.6087 44.3167V44.2598C90.6087 43.8099 90.2445 43.4453 89.7953 43.4453ZM64.6 57.1166C64.5804 57.1071 64.563 57.0932 64.5493 57.0761L63.3776 55.5725C63.291 55.4612 63.1719 55.3796 63.0364 55.3388C62.901 55.298 62.7559 55.3001 62.6211 55.3447C62.4467 55.4054 62.3101 55.5061 62.2116 55.6465C61.9537 56.0148 61.9556 56.3812 62.2172 56.7457L63.9237 59.1492C64.0022 59.26 64.1059 59.3505 64.2264 59.4132C64.3468 59.4758 64.4804 59.5088 64.6161 59.5093C64.7519 59.5099 64.8857 59.478 65.0067 59.4164C65.1276 59.3547 65.2321 59.2651 65.3116 59.1549L68.366 54.9061C68.5026 54.7163 68.658 54.6992 68.8325 54.8549L69.0486 55.0428C69.2193 55.1909 69.4183 55.2611 69.6459 55.2536C69.9378 55.2384 70.1426 55.096 70.2602 54.8264C70.5161 54.2455 70.1635 53.8297 69.8108 53.431C69.6667 53.2678 69.6572 53.0969 69.7824 52.9185L71.9495 49.8487C72.0534 49.7016 72.0955 49.5197 72.0667 49.3427C72.0379 49.1656 71.9406 49.0077 71.796 48.9032L71.6367 48.7893C71.212 48.4818 70.8479 48.5406 70.5446 48.9659L68.5708 51.7281C68.5406 51.7707 68.5022 51.8067 68.4577 51.8341C68.4132 51.8615 68.3636 51.8797 68.3117 51.8876C68.2598 51.8956 68.2067 51.8931 68.1555 51.8804C68.1043 51.8677 68.056 51.845 68.0134 51.8136C65.1295 49.7063 61.4038 51.3067 59.8055 54.1657C58.9864 55.6351 58.8821 57.1653 59.4927 58.7562C60.653 61.7634 63.7246 63.3524 66.8701 62.4126C67.2986 62.2835 67.5053 61.995 67.4901 61.5469C67.4825 61.2052 67.1829 60.9793 66.5914 60.8692C66.4898 60.8503 66.3857 60.8503 66.2842 60.8692C63.8876 61.3172 62.204 60.5294 61.2332 58.5056C60.4975 56.9679 60.6758 55.5402 61.7679 54.2227C62.9339 52.8102 65.704 51.7509 67.2682 53.2773C67.3403 53.3494 67.3479 53.4272 67.291 53.5108L64.7712 57.0761C64.7589 57.0932 64.7427 57.1071 64.7238 57.1166C64.705 57.1262 64.684 57.1311 64.6625 57.1311C64.641 57.1311 64.6196 57.1262 64.6 57.1166Z" fill="url(#paint1_linear_1933_142)"/>
<defs>
<linearGradient id="paint0_linear_1933_142" x1="80" y1="94" x2="80" y2="8.26497e-06" gradientUnits="userSpaceOnUse">
<stop stop-color="#CDE5F6"/>
<stop offset="1" stop-color="white" stop-opacity="0"/>
</linearGradient>
<linearGradient id="paint1_linear_1933_142" x1="80" y1="4" x2="80" y2="90.22" gradientUnits="userSpaceOnUse">
<stop stop-color="#5EB83E"/>
<stop offset="1" stop-color="#005B9F"/>
</linearGradient>
</defs>
</svg>
