<svg width="199" height="159" viewBox="0 0 199 159" fill="none" xmlns="http://www.w3.org/2000/svg">
<path fill-rule="evenodd" clip-rule="evenodd" d="M105.592 50.8616C98.5965 49.1465 90.9571 50.0934 84.3017 54.113C77.6642 58.1327 73.2809 64.457 71.5634 71.4422C69.8459 78.4275 70.7941 86.0559 74.8196 92.7018C78.845 99.3298 85.1784 103.707 92.1737 105.422C99.169 107.137 106.808 106.19 113.464 102.17C120.101 98.1507 124.485 91.8264 126.202 84.8411C127.92 77.8558 126.971 70.2274 122.946 63.5816C118.921 56.9536 112.587 52.5766 105.592 50.8616ZM122.445 83.9121C120.96 89.9327 117.185 95.3816 111.46 98.8653C105.735 102.331 99.1332 103.153 93.104 101.67C87.0748 100.187 81.6181 96.4177 78.1294 90.7009C74.6585 84.984 73.8356 78.3918 75.3205 72.3712C76.8054 66.3507 80.5804 60.9018 86.3055 57.4181C92.0306 53.9522 98.6323 53.1304 104.662 54.6132C110.691 56.0961 116.147 59.8656 119.636 65.5825C123.107 71.2993 123.93 77.8916 122.445 83.9121ZM95.6624 72.8357C98.5249 71.1028 102.282 72.0675 104.071 74.9974C105.842 77.9273 104.966 81.7147 102.103 83.4476C99.2406 85.1805 95.4835 84.2158 93.6944 81.2859C91.9232 78.3561 92.7999 74.5686 95.6624 72.8357ZM26.6037 122.322C21.0396 113.032 17.0142 103.081 16.6027 95.5959L14.9389 95.8997L0 98.6509C0.500944 107.78 5.40304 119.714 12.1121 130.88C18.7138 141.885 27.1404 152.068 34.9945 157.838L35.0303 157.874C35.1913 157.999 35.3523 158.106 35.5134 158.231L36.5868 158.999L46.4983 145.386L44.9239 144.243C38.6264 139.383 31.9173 131.183 26.6037 122.322ZM36.1395 156.248C28.5001 150.639 20.2524 140.652 13.7938 129.861C7.69307 119.678 3.16668 108.816 2.18268 100.241L15.1178 97.847C16.0481 105.297 19.9304 114.462 25.1724 123.162C30.5934 132.202 37.4456 140.598 43.9399 145.565L36.1574 156.23L36.1395 156.248ZM85.3931 82.1435L84.3017 82.4829C83.9976 81.4646 83.8008 80.4463 83.7292 79.428L84.8742 79.3565C84.9637 80.2855 85.1247 81.2145 85.4109 82.1435H85.3931ZM92.1379 90.5222L91.6012 91.5406C90.7961 91.0939 90.0268 90.5758 89.3111 90.0042L90.0447 89.1288C90.7066 89.6647 91.4044 90.1292 92.1379 90.5401V90.5222ZM89.6153 88.7536L88.8818 89.629C88.3272 89.1466 87.8083 88.6107 87.3253 88.0568L88.2198 87.3244C88.6671 87.8425 89.1322 88.307 89.6332 88.7536H89.6153ZM84.8205 78.7848L83.6755 78.8563C83.6398 78.1059 83.6755 77.3735 83.7292 76.641L84.8742 76.7661C84.8027 77.4271 84.7848 78.0881 84.8205 78.767V78.7848ZM87.8441 86.8777L86.9496 87.6102C86.4486 86.9671 85.9835 86.2882 85.572 85.5557L86.5917 85.0198C86.9675 85.6808 87.3789 86.3061 87.8441 86.8777ZM86.3413 84.5195L85.3215 85.0555C84.9995 84.4124 84.6953 83.7156 84.4627 83.0189L85.5541 82.6794C85.7688 83.3226 86.0371 83.9479 86.3234 84.5374L86.3413 84.5195ZM88.3629 68.7803L87.4863 68.0479C87.9693 67.494 88.5061 66.9759 89.0607 66.4936L89.7942 67.369C89.2754 67.7977 88.8102 68.2801 88.3629 68.7625V68.7803ZM90.2236 67.0295L89.4901 66.1363C90.1341 65.6361 90.814 65.1894 91.5296 64.7785L92.0663 65.7968C91.4044 66.1542 90.7961 66.565 90.2057 67.0295H90.2236ZM92.5673 65.5467L92.0306 64.5284C92.6746 64.2068 93.3545 63.921 94.0701 63.6709L94.41 64.7607C93.766 64.975 93.1577 65.243 92.5673 65.5289V65.5467ZM85.5362 73.6397L84.4448 73.3002C84.6774 72.6035 84.9637 71.9246 85.3036 71.2636L86.3234 71.7995C86.0192 72.3891 85.7688 73.0144 85.5541 73.6397H85.5362ZM84.9279 76.2301L83.7829 76.105C83.8902 75.3368 84.0512 74.5865 84.2659 73.854L85.3573 74.1935C85.1605 74.8545 85.0173 75.5512 84.91 76.248L84.9279 76.2301ZM86.5739 71.2993L85.5541 70.7634C86.0013 69.9594 86.5202 69.1912 87.1106 68.4766L87.9872 69.2091C87.4505 69.8701 86.9853 70.5668 86.5739 71.2993ZM107.757 89.2538L108.49 90.1471C107.846 90.6652 107.148 91.1118 106.415 91.5227L105.878 90.5044C106.54 90.1292 107.184 89.7183 107.757 89.2538ZM113.017 80.0354L114.162 80.1604C114.054 80.9286 113.893 81.6968 113.679 82.4472L112.587 82.1077C112.784 81.4289 112.927 80.7321 113.034 80.0354H113.017ZM113.124 77.4628L114.269 77.3913C114.305 78.1417 114.287 78.8741 114.215 79.6066L113.07 79.4816C113.124 78.8206 113.142 78.1417 113.106 77.4807L113.124 77.4628ZM113.088 76.909C112.999 75.9979 112.838 75.0867 112.569 74.1756L113.661 73.8362C113.965 74.8366 114.144 75.8371 114.233 76.8375L113.088 76.909ZM112.659 85.0376L111.639 84.5017C111.943 83.9121 112.194 83.2868 112.408 82.6437L113.5 82.9831C113.267 83.6799 112.981 84.3766 112.641 85.0198L112.659 85.0376ZM111.388 85.0019L112.408 85.5379C111.961 86.3418 111.46 87.0921 110.87 87.8067L109.993 87.0743C110.512 86.4311 110.977 85.7344 111.388 85.0019ZM105.377 90.7724L105.914 91.7907C105.27 92.1122 104.572 92.3981 103.856 92.6482L103.516 91.5584C104.161 91.344 104.787 91.0761 105.377 90.7902V90.7724ZM95.0183 91.7192C95.6982 91.9157 96.3959 92.0586 97.0937 92.1658L96.9684 93.3092C96.1991 93.202 95.4298 93.0412 94.6784 92.8268L95.0183 91.7371V91.7192ZM99.67 92.273L99.7415 93.4164C98.9901 93.4521 98.2566 93.4343 97.5231 93.3628L97.6483 92.2194C98.3103 92.2909 98.9901 92.2909 99.67 92.273ZM109.635 87.4852L110.512 88.2176C110.029 88.7715 109.492 89.2895 108.937 89.7719L108.204 88.8786C108.723 88.432 109.188 87.9675 109.635 87.4673V87.4852ZM92.621 90.7724C93.2293 91.0761 93.8375 91.3262 94.4816 91.5406L94.1417 92.6303C93.4439 92.3981 92.7462 92.1122 92.0842 91.7728L92.621 90.7545V90.7724ZM102.98 91.7013L103.32 92.7911C102.318 93.0948 101.298 93.2735 100.296 93.3628L100.225 92.2194C101.137 92.1301 102.067 91.9693 102.98 91.7013ZM83.1388 140.205L115.879 140.241V143.064L83.1388 143.028V140.205ZM100.35 117.391V132.416H98.346V117.391H100.35ZM127.902 38.9991H128.832V39.9459V47.4314H126.989V40.8928L67.699 41.1429V48.4855H65.8562V39.2671H66.7687L127.902 38.9991ZM55.6585 59.2582C51.3647 59.2582 51.15 59.812 51.15 63.2064C51.15 66.6008 51.3647 67.1725 55.6585 67.1725C59.9523 67.1725 60.1848 66.6365 60.167 63.2064C60.167 59.812 59.9523 59.2582 55.6585 59.2582ZM55.6585 65.1894C53.601 65.1894 53.4579 64.8857 53.4579 63.2243C53.4579 61.5628 53.601 61.2591 55.6585 61.2591C57.7159 61.2591 57.859 61.5628 57.859 63.2243C57.859 64.8857 57.7159 65.1894 55.6585 65.1894ZM44.4051 59.3654H47.9117V67.0653H45.6038V61.3663H45.246L42.9559 63.4208L41.7215 61.8486L44.3872 59.3654H44.4051ZM146.705 57.5967C142.411 57.5967 142.197 58.1506 142.197 61.5449C142.197 64.9393 142.411 65.511 146.705 65.511C150.999 65.511 151.231 64.975 151.214 61.5449C151.214 58.1506 150.999 57.5967 146.705 57.5967ZM146.705 63.528C144.648 63.528 144.504 63.2243 144.504 61.5628C144.504 59.9013 144.648 59.5976 146.705 59.5976C148.762 59.5976 148.906 59.9013 148.906 61.5628C148.906 63.2243 148.762 63.528 146.705 63.528ZM135.452 57.7039H138.958V65.4038H136.65V59.7048H136.293L134.003 61.7593L132.768 60.1872L135.434 57.7039H135.452ZM111.013 26.422L83.6398 26.3863V24.0281L111.013 24.0638V26.422ZM104.84 13.2018L89.8121 13.1661V10.8079L104.84 10.8436V13.2018ZM99.1153 57.6503C93.4618 57.6503 88.3629 59.9371 84.6595 63.6352C80.9561 67.3332 78.6661 72.4427 78.6661 78.0702C78.6661 83.6977 80.9561 88.8072 84.6595 92.5053C88.3629 96.2034 93.4797 98.4901 99.1153 98.4901C104.751 98.4901 109.868 96.2034 113.571 92.5053C117.275 88.8072 119.565 83.6977 119.565 78.0702C119.565 72.4427 117.275 67.3332 113.571 63.6352C109.868 59.9371 104.751 57.6503 99.1153 57.6503ZM111.371 90.3079C108.24 93.4343 103.91 95.3816 99.1153 95.3816C94.3206 95.3816 89.991 93.4521 86.8601 90.3079C83.7292 87.1814 81.7791 82.8581 81.7791 78.0702C81.7791 73.2823 83.7113 68.959 86.8601 65.8326C89.991 62.7062 94.3206 60.7589 99.1153 60.7589C103.91 60.7589 108.24 62.6883 111.371 65.8326C114.501 68.9768 116.452 73.2823 116.452 78.0702C116.452 82.8581 114.519 87.1814 111.371 90.3079ZM198.678 58.2756C197.068 48.7535 191.987 36.8731 185.421 26.1719C178.873 15.5064 170.822 5.98426 163.2 1.12493L161.554 0.0351562L151.16 13.309L152.824 14.3273C159.05 18.347 165.669 26.2076 171.09 35.033C176.493 43.8405 180.68 53.5592 182.075 61.3841L182.361 63.3136L184.007 63.0099L198.928 60.2229C198.857 59.5976 198.75 58.9366 198.642 58.2935L198.678 58.2756ZM183.739 61.0626C182.326 53.0232 178.05 43.1438 172.539 34.1398C172.45 33.9968 172.343 33.8539 172.253 33.6931L177.567 30.8526C172.396 22.3666 166.278 14.1844 157.672 8.14594L161.984 2.64347C169.373 7.30628 177.28 16.6498 183.739 27.1723C190.198 37.6949 195.171 49.343 196.728 58.615L183.739 61.0447V61.0626Z" fill="url(#paint0_linear_4002_12)"/>
<defs>
<linearGradient id="paint0_linear_4002_12" x1="99.4642" y1="0.0351562" x2="99.4642" y2="158.999" gradientUnits="userSpaceOnUse">
<stop stop-color="#5EB83E"/>
<stop offset="1" stop-color="#005B9F"/>
</linearGradient>
</defs>
</svg>
