<svg width="92" height="44" viewBox="0 0 92 44" fill="none" xmlns="http://www.w3.org/2000/svg">
<g clip-path="url(#clip0_1923_203)">
<path d="M91.9981 0.370848C91.9673 0.279915 91.894 0.235548 91.7781 0.237748C90.0137 0.268548 88.1635 0.177248 86.4992 0.177248C75.2088 0.175781 63.918 0.175415 52.6269 0.176148C52.3541 0.176148 52.078 0.217948 51.8019 0.215748C50.6491 0.204748 49.5381 0.224548 48.4689 0.275148C48.4099 0.277701 48.3543 0.303045 48.3135 0.345886C48.2727 0.388727 48.2499 0.445752 48.25 0.505048L48.2522 44.0001" stroke="#B0CEE4" stroke-width="2"/>
<path d="M83.9988 8.18883C83.9988 8.16899 84.0067 8.14996 84.0207 8.13593C84.0347 8.12191 84.0538 8.11403 84.0736 8.11403H87.9302C87.94 8.11403 87.9498 8.11209 87.9588 8.10833C87.9679 8.10457 87.9761 8.09906 87.9831 8.09212C87.99 8.08517 87.9955 8.07692 87.9993 8.06785C88.0031 8.05877 88.005 8.04905 88.005 8.03923L88.0061 4.15293C88.0061 4.13309 87.9982 4.11406 87.9842 4.10003C87.9702 4.08601 87.9511 4.07812 87.9313 4.07812H52.1373C52.1175 4.07812 52.0984 4.08601 52.0844 4.10003C52.0704 4.11406 52.0625 4.13309 52.0625 4.15293L52.0636 20.0127C52.0636 20.0326 52.0715 20.0516 52.0855 20.0656C52.0995 20.0796 52.1186 20.0875 52.1384 20.0875L56.0192 20.0798C56.039 20.0798 56.0581 20.0719 56.0721 20.0579C56.0861 20.0439 56.094 20.0249 56.094 20.005L56.0874 16.2232C56.0874 16.2034 56.0953 16.1844 56.1093 16.1703C56.1233 16.1563 56.1424 16.1484 56.1622 16.1484L59.9352 16.1539C59.955 16.1539 59.9741 16.1618 59.9881 16.1758C60.0021 16.1899 60.01 16.2089 60.01 16.2287V20.0072C60.01 20.0271 60.0179 20.0461 60.0319 20.0601C60.0459 20.0741 60.065 20.082 60.0848 20.082L71.9527 20.0831C71.9725 20.0831 71.9916 20.0752 72.0056 20.0612C72.0196 20.0472 72.0275 20.0282 72.0275 20.0083L72.0264 16.2232C72.0264 16.2034 72.0343 16.1844 72.0483 16.1703C72.0623 16.1563 72.0814 16.1484 72.1012 16.1484L75.9787 16.155C75.9985 16.155 76.0176 16.1471 76.0316 16.1331C76.0456 16.1191 76.0535 16.1001 76.0535 16.0802V8.18773C76.0535 8.16789 76.0614 8.14886 76.0754 8.13483C76.0894 8.12081 76.1085 8.11293 76.1283 8.11293L79.9574 8.11403C79.9772 8.11403 79.9963 8.12191 80.0103 8.13593C80.0243 8.14996 80.0322 8.16899 80.0322 8.18883V19.9489C80.0322 19.9587 80.0341 19.9685 80.0379 19.9775C80.0417 19.9866 80.0472 19.9949 80.0541 20.0018C80.0611 20.0088 80.0693 20.0143 80.0784 20.018C80.0875 20.0218 80.0972 20.0237 80.107 20.0237H83.924C83.9438 20.0237 83.9629 20.0158 83.9769 20.0018C83.9909 19.9878 83.9988 19.9688 83.9988 19.9489V8.18883Z" stroke="#B0CEE4" stroke-width="2"/>
<path d="M56.0907 24.115C56.0907 24.0948 56.0827 24.0755 56.0685 24.0613C56.0542 24.0471 56.0349 24.0391 56.0148 24.0391H52.1384C52.1183 24.0391 52.099 24.0471 52.0847 24.0613C52.0705 24.0755 52.0625 24.0948 52.0625 24.115V27.998C52.0625 28.0181 52.0705 28.0374 52.0847 28.0516C52.099 28.0659 52.1183 28.0739 52.1384 28.0739H56.0148C56.0349 28.0739 56.0542 28.0659 56.0685 28.0516C56.0827 28.0374 56.0907 28.0181 56.0907 27.998V24.115Z" stroke="#B0CEE4" stroke-width="2"/>
<path d="M63.9822 24.1298C63.9822 24.1047 63.9723 24.0806 63.9545 24.0629C63.9368 24.0451 63.9127 24.0352 63.8876 24.0352H60.1102C60.0851 24.0352 60.0611 24.0451 60.0433 24.0629C60.0256 24.0806 60.0156 24.1047 60.0156 24.1298V31.9948C60.0156 32.0072 60.0181 32.0195 60.0228 32.031C60.0276 32.0424 60.0345 32.0529 60.0433 32.0617C60.0521 32.0704 60.0625 32.0774 60.074 32.0822C60.0855 32.0869 60.0978 32.0894 60.1102 32.0894H63.8876C63.9 32.0894 63.9123 32.0869 63.9238 32.0822C63.9353 32.0774 63.9457 32.0704 63.9545 32.0617C63.9633 32.0529 63.9703 32.0424 63.975 32.031C63.9798 32.0195 63.9822 32.0072 63.9822 31.9948V24.1298Z" stroke="#B0CEE4" stroke-width="2"/>
<path d="M68.0541 36.0175C68.0401 36.0549 68.0174 36.0736 67.9859 36.0736C66.6849 36.0765 65.3913 36.0747 64.1051 36.0681C64.0876 36.0681 64.0708 36.075 64.0584 36.0874C64.046 36.0998 64.0391 36.1166 64.0391 36.1341L64.0402 40.0402C64.0402 40.0597 64.0479 40.0784 64.0617 40.0923C64.0756 40.1061 64.0943 40.1139 64.1139 40.1139L71.9679 40.1128C71.9851 40.1128 72.0016 40.1059 72.0138 40.0937C72.0259 40.0816 72.0328 40.0651 72.0328 40.0479V24.1177C72.0328 24.0627 72.0056 24.0352 71.9514 24.0352L68.108 24.0374C68.1019 24.0374 68.0959 24.0386 68.0903 24.0409C68.0847 24.0432 68.0796 24.0466 68.0753 24.0509C68.071 24.0552 68.0676 24.0603 68.0653 24.0659C68.063 24.0715 68.0618 24.0775 68.0618 24.0836L68.0585 35.9911C68.0585 36.0005 68.057 36.0094 68.0541 36.0175Z" stroke="#B0CEE4" stroke-width="2"/>
<path d="M88.0056 24.1078C88.0056 24.0885 87.998 24.07 87.9844 24.0564C87.9707 24.0428 87.9523 24.0352 87.933 24.0352H76.0882C76.069 24.0352 76.0505 24.0428 76.0369 24.0564C76.0233 24.07 76.0156 24.0885 76.0156 24.1078V27.9996C76.0156 28.0188 76.0233 28.0373 76.0369 28.0509C76.0505 28.0645 76.069 28.0722 76.0882 28.0722H87.933C87.9523 28.0722 87.9707 28.0645 87.9844 28.0509C87.998 28.0373 88.0056 28.0188 88.0056 27.9996V24.1078Z" stroke="#B0CEE4" stroke-width="2"/>
<path d="M79.9745 36.1071C79.9894 36.1071 80.0037 36.113 80.0142 36.1235C80.0247 36.134 80.0306 36.1483 80.0306 36.1632L80.0328 40.0605C80.0328 40.0754 80.0387 40.0896 80.0493 40.1002C80.0598 40.1107 80.074 40.1166 80.0889 40.1166L87.9517 40.1111C87.9666 40.1111 87.9809 40.1052 87.9914 40.0947C88.0019 40.0841 88.0078 40.0699 88.0078 40.055L88.0056 36.1302C88.0056 36.1153 87.9997 36.101 87.9892 36.0905C87.9787 36.08 87.9644 36.0741 87.9495 36.0741H80.1142C80.0993 36.0741 80.0851 36.0682 80.0746 36.0577C80.064 36.0471 80.0581 36.0329 80.0581 36.018L80.057 32.1108C80.057 32.1034 80.0556 32.0961 80.0528 32.0893C80.0499 32.0825 80.0458 32.0763 80.0406 32.0711C80.0354 32.0659 80.0292 32.0618 80.0224 32.059C80.0156 32.0561 80.0083 32.0547 80.0009 32.0547H76.0717C76.0644 32.0547 76.0571 32.0561 76.0503 32.059C76.0435 32.0618 76.0373 32.0659 76.0321 32.0711C76.0268 32.0763 76.0227 32.0825 76.0199 32.0893C76.0171 32.0961 76.0156 32.1034 76.0156 32.1108V36.051C76.0156 36.0659 76.0215 36.0801 76.0321 36.0907C76.0426 36.1012 76.0568 36.1071 76.0717 36.1071H79.9745Z" stroke="#B0CEE4" stroke-width="2"/>
<path d="M60.0403 8.16047C60.0403 8.14588 60.0345 8.13189 60.0242 8.12158C60.0139 8.11126 59.9999 8.10547 59.9853 8.10547H56.1331C56.1185 8.10547 56.1045 8.11126 56.0942 8.12158C56.0839 8.13189 56.0781 8.14588 56.0781 8.16047V12.0721C56.0781 12.0867 56.0839 12.1006 56.0942 12.111C56.1045 12.1213 56.1185 12.1271 56.1331 12.1271H59.9853C59.9999 12.1271 60.0139 12.1213 60.0242 12.111C60.0345 12.1006 60.0403 12.0867 60.0403 12.0721V8.16047Z" stroke="#B0CEE4" stroke-width="2"/>
<path d="M68.0104 16.0619C68.0192 16.0619 68.0279 16.0601 68.0361 16.0568C68.0442 16.0534 68.0516 16.0485 68.0578 16.0422C68.0641 16.036 68.069 16.0286 68.0724 16.0205C68.0758 16.0123 68.0775 16.0036 68.0775 15.9948V12.103C68.0775 12.0852 68.0846 12.0681 68.0972 12.0555C68.1097 12.043 68.1268 12.0359 68.1446 12.0359L72.0265 12.0337C72.0353 12.0337 72.044 12.0319 72.0522 12.0286C72.0603 12.0252 72.0677 12.0203 72.0739 12.014C72.0802 12.0078 72.0851 12.0004 72.0885 11.9923C72.0919 11.9841 72.0936 11.9754 72.0936 11.9666L72.0925 8.18038C72.0925 8.16259 72.0854 8.14552 72.0728 8.13293C72.0603 8.12035 72.0432 8.11328 72.0254 8.11328H64.1296C64.1118 8.11328 64.0947 8.12035 64.0822 8.13293C64.0696 8.14552 64.0625 8.16259 64.0625 8.18038V15.9981C64.0625 16.0069 64.0642 16.0156 64.0676 16.0238C64.071 16.0319 64.0759 16.0393 64.0822 16.0455C64.0884 16.0518 64.0958 16.0567 64.1039 16.0601C64.1121 16.0634 64.1208 16.0652 64.1296 16.0652L68.0104 16.0619Z" stroke="#B0CEE4" stroke-width="2"/>
<path d="M48 0H92V0.3707C91.9692 0.279767 91.8959 0.2354 91.78 0.2376C90.0156 0.2684 88.1654 0.1771 86.5011 0.1771C75.2107 0.175633 63.9199 0.175267 52.6288 0.176C52.356 0.176 52.0799 0.2178 51.8038 0.2156C50.651 0.2046 49.54 0.2244 48.4708 0.275C48.4118 0.277553 48.3562 0.302897 48.3154 0.345738C48.2746 0.388579 48.2518 0.445604 48.2519 0.5049L48.2541 44H48V0Z" fill="#B0CEE4"/>
<path d="M91.9981 0.370848V44.0001H48.2522L48.25 0.505048C48.2499 0.445752 48.2727 0.388727 48.3135 0.345886C48.3543 0.303045 48.4099 0.277701 48.4689 0.275148C49.5381 0.224548 50.6491 0.204748 51.8019 0.215748C52.078 0.217948 52.3541 0.176148 52.6269 0.176148C63.918 0.175415 75.2088 0.175781 86.4992 0.177248C88.1635 0.177248 90.0137 0.268548 91.7781 0.237748C91.894 0.235548 91.9673 0.279915 91.9981 0.370848ZM84.0044 8.18855C84.0044 8.16871 84.0123 8.14968 84.0263 8.13566C84.0403 8.12163 84.0594 8.11375 84.0792 8.11375H87.9358C87.9456 8.11375 87.9553 8.11181 87.9644 8.10805C87.9735 8.1043 87.9817 8.09878 87.9887 8.09184C87.9956 8.08489 88.0011 8.07665 88.0049 8.06757C88.0087 8.0585 88.0106 8.04877 88.0106 8.03895L88.0117 4.15265C88.0117 4.13281 88.0038 4.11378 87.9898 4.09976C87.9758 4.08573 87.9567 4.07785 87.9369 4.07785H52.1429C52.1231 4.07785 52.104 4.08573 52.09 4.09976C52.076 4.11378 52.0681 4.13281 52.0681 4.15265L52.0692 20.0124C52.0692 20.0323 52.0771 20.0513 52.0911 20.0653C52.1051 20.0794 52.1242 20.0872 52.144 20.0872L56.0248 20.0795C56.0446 20.0795 56.0637 20.0717 56.0777 20.0576C56.0917 20.0436 56.0996 20.0246 56.0996 20.0047L56.093 16.2229C56.093 16.2031 56.1009 16.1841 56.1149 16.1701C56.1289 16.156 56.148 16.1481 56.1678 16.1481L59.9408 16.1536C59.9606 16.1536 59.9797 16.1615 59.9937 16.1756C60.0077 16.1896 60.0156 16.2086 60.0156 16.2284V20.0069C60.0156 20.0268 60.0235 20.0458 60.0375 20.0598C60.0515 20.0739 60.0706 20.0817 60.0904 20.0817L71.9583 20.0828C71.9781 20.0828 71.9972 20.075 72.0112 20.0609C72.0252 20.0469 72.0331 20.0279 72.0331 20.008L72.032 16.2229C72.032 16.2031 72.0399 16.1841 72.0539 16.1701C72.0679 16.156 72.087 16.1481 72.1068 16.1481L75.9843 16.1547C76.0041 16.1547 76.0232 16.1469 76.0372 16.1328C76.0512 16.1188 76.0591 16.0998 76.0591 16.0799V8.18745C76.0591 8.16761 76.067 8.14858 76.081 8.13456C76.095 8.12053 76.1141 8.11265 76.1339 8.11265L79.963 8.11375C79.9828 8.11375 80.0019 8.12163 80.0159 8.13566C80.0299 8.14968 80.0378 8.16871 80.0378 8.18855V19.9486C80.0378 19.9585 80.0397 19.9682 80.0435 19.9773C80.0473 19.9863 80.0528 19.9946 80.0597 20.0015C80.0667 20.0085 80.0749 20.014 80.084 20.0178C80.0931 20.0215 80.1028 20.0234 80.1126 20.0234H83.9296C83.9494 20.0234 83.9685 20.0156 83.9825 20.0015C83.9965 19.9875 84.0044 19.9685 84.0044 19.9486V8.18855ZM56.0963 24.1132C56.0963 24.0931 56.0883 24.0738 56.0741 24.0596C56.0598 24.0453 56.0405 24.0373 56.0204 24.0373H52.144C52.1239 24.0373 52.1046 24.0453 52.0903 24.0596C52.0761 24.0738 52.0681 24.0931 52.0681 24.1132V27.9962C52.0681 28.0164 52.0761 28.0357 52.0903 28.0499C52.1046 28.0642 52.1239 28.0721 52.144 28.0721H56.0204C56.0405 28.0721 56.0598 28.0642 56.0741 28.0499C56.0883 28.0357 56.0963 28.0164 56.0963 27.9962V24.1132ZM63.9833 24.1308C63.9833 24.1058 63.9733 24.0817 63.9556 24.064C63.9379 24.0462 63.9138 24.0362 63.8887 24.0362H60.1113C60.0862 24.0362 60.0621 24.0462 60.0444 24.064C60.0267 24.0817 60.0167 24.1058 60.0167 24.1308V31.9958C60.0167 32.0083 60.0191 32.0206 60.0239 32.032C60.0287 32.0435 60.0356 32.054 60.0444 32.0627C60.0532 32.0715 60.0636 32.0785 60.0751 32.0832C60.0866 32.088 60.0989 32.0904 60.1113 32.0904H63.8887C63.9011 32.0904 63.9134 32.088 63.9249 32.0832C63.9364 32.0785 63.9468 32.0715 63.9556 32.0627C63.9644 32.054 63.9713 32.0435 63.9761 32.032C63.9809 32.0206 63.9833 32.0083 63.9833 31.9958V24.1308ZM68.0533 36.0174C68.0394 36.0548 68.0166 36.0735 67.9851 36.0735C66.6842 36.0765 65.3906 36.0746 64.1043 36.068C64.0868 36.068 64.07 36.075 64.0576 36.0874C64.0453 36.0998 64.0383 36.1165 64.0383 36.134L64.0394 40.0401C64.0394 40.0597 64.0472 40.0784 64.061 40.0923C64.0748 40.1061 64.0936 40.1138 64.1131 40.1138L71.9671 40.1127C71.9843 40.1127 72.0008 40.1059 72.013 40.0937C72.0252 40.0816 72.032 40.0651 72.032 40.0478V24.1176C72.032 24.0626 72.0049 24.0351 71.9506 24.0351L68.1072 24.0373C68.1011 24.0373 68.0951 24.0385 68.0895 24.0409C68.0839 24.0432 68.0788 24.0466 68.0745 24.0509C68.0702 24.0552 68.0668 24.0603 68.0645 24.0659C68.0622 24.0715 68.061 24.0775 68.061 24.0835L68.0577 35.991C68.0577 36.0005 68.0562 36.0094 68.0533 36.0174ZM88.0106 24.1088C88.0106 24.0896 88.003 24.0711 87.9893 24.0575C87.9757 24.0439 87.9573 24.0362 87.938 24.0362H76.0932C76.0739 24.0362 76.0555 24.0439 76.0419 24.0575C76.0282 24.0711 76.0206 24.0896 76.0206 24.1088V28.0006C76.0206 28.0199 76.0282 28.0384 76.0419 28.052C76.0555 28.0656 76.0739 28.0732 76.0932 28.0732H87.938C87.9573 28.0732 87.9757 28.0656 87.9893 28.052C88.003 28.0384 88.0106 28.0199 88.0106 28.0006V24.1088ZM79.9795 36.1065C79.9944 36.1065 80.0086 36.1125 80.0192 36.123C80.0297 36.1335 80.0356 36.1478 80.0356 36.1626L80.0378 40.0599C80.0378 40.0748 80.0437 40.0891 80.0542 40.0996C80.0648 40.1101 80.079 40.116 80.0939 40.116L87.9567 40.1105C87.9716 40.1105 87.9858 40.1046 87.9964 40.0941C88.0069 40.0836 88.0128 40.0693 88.0128 40.0544L88.0106 36.1296C88.0106 36.1148 88.0047 36.1005 87.9942 36.09C87.9836 36.0795 87.9694 36.0735 87.9545 36.0735H80.1192C80.1043 36.0735 80.0901 36.0676 80.0795 36.0571C80.069 36.0466 80.0631 36.0323 80.0631 36.0174L80.062 32.1102C80.062 32.1029 80.0605 32.0956 80.0577 32.0888C80.0549 32.082 80.0508 32.0758 80.0456 32.0706C80.0404 32.0654 80.0342 32.0612 80.0274 32.0584C80.0206 32.0556 80.0133 32.0541 80.0059 32.0541H76.0767C76.0693 32.0541 76.062 32.0556 76.0552 32.0584C76.0484 32.0612 76.0422 32.0654 76.037 32.0706C76.0318 32.0758 76.0277 32.082 76.0249 32.0888C76.0221 32.0956 76.0206 32.1029 76.0206 32.1102V36.0504C76.0206 36.0653 76.0265 36.0796 76.037 36.0901C76.0476 36.1006 76.0618 36.1065 76.0767 36.1065H79.9795Z" fill="#B0CEE4"/>
<path d="M84.0066 8.18883V19.9489C84.0066 19.9688 83.9987 19.9878 83.9847 20.0018C83.9707 20.0158 83.9517 20.0237 83.9318 20.0237H80.1148C80.105 20.0237 80.0953 20.0218 80.0862 20.018C80.0771 20.0143 80.0689 20.0088 80.0619 20.0018C80.055 19.9949 80.0495 19.9866 80.0457 19.9775C80.0419 19.9685 80.04 19.9587 80.04 19.9489V8.18883C80.04 8.16899 80.0321 8.14996 80.0181 8.13593C80.0041 8.12191 79.9851 8.11403 79.9652 8.11403L76.1361 8.11293C76.1163 8.11293 76.0972 8.12081 76.0832 8.13483C76.0692 8.14886 76.0613 8.16789 76.0613 8.18773V16.0802C76.0613 16.1001 76.0534 16.1191 76.0394 16.1331C76.0254 16.1471 76.0063 16.155 75.9865 16.155L72.109 16.1484C72.0892 16.1484 72.0701 16.1563 72.0561 16.1703C72.0421 16.1844 72.0342 16.2034 72.0342 16.2232L72.0353 20.0083C72.0353 20.0282 72.0274 20.0472 72.0134 20.0612C71.9994 20.0752 71.9804 20.0831 71.9605 20.0831L60.0926 20.082C60.0728 20.082 60.0537 20.0741 60.0397 20.0601C60.0257 20.0461 60.0178 20.0271 60.0178 20.0072V16.2287C60.0178 16.2089 60.0099 16.1899 59.9959 16.1758C59.9819 16.1618 59.9629 16.1539 59.943 16.1539L56.17 16.1484C56.1502 16.1484 56.1311 16.1563 56.1171 16.1703C56.1031 16.1844 56.0952 16.2034 56.0952 16.2232L56.1018 20.005C56.1018 20.0249 56.0939 20.0439 56.0799 20.0579C56.0659 20.0719 56.0469 20.0798 56.027 20.0798L52.1462 20.0875C52.1264 20.0875 52.1073 20.0796 52.0933 20.0656C52.0793 20.0516 52.0714 20.0326 52.0714 20.0127L52.0703 4.15293C52.0703 4.13309 52.0782 4.11406 52.0922 4.10003C52.1062 4.08601 52.1253 4.07812 52.1451 4.07812H87.9391C87.959 4.07812 87.978 4.08601 87.992 4.10003C88.006 4.11406 88.0139 4.13309 88.0139 4.15293L88.0128 8.03923C88.0128 8.04905 88.0109 8.05877 88.0071 8.06785C88.0034 8.07693 87.9979 8.08517 87.9909 8.09212C87.984 8.09906 87.9757 8.10457 87.9666 8.10833C87.9576 8.11209 87.9478 8.11403 87.938 8.11403H84.0814C84.0616 8.11403 84.0425 8.12191 84.0285 8.13593C84.0145 8.14996 84.0066 8.16899 84.0066 8.18883ZM60.0475 8.15912C60.0475 8.14454 60.0417 8.13055 60.0314 8.12023C60.0211 8.10992 60.0071 8.10413 59.9925 8.10413H56.1403C56.1257 8.10413 56.1117 8.10992 56.1014 8.12023C56.0911 8.13055 56.0853 8.14454 56.0853 8.15912V12.0707C56.0853 12.0853 56.0911 12.0993 56.1014 12.1096C56.1117 12.1199 56.1257 12.1257 56.1403 12.1257H59.9925C60.0071 12.1257 60.0211 12.1199 60.0314 12.1096C60.0417 12.0993 60.0475 12.0853 60.0475 12.0707V8.15912ZM68.0071 16.0626C68.0159 16.0626 68.0246 16.0609 68.0328 16.0575C68.0409 16.0541 68.0483 16.0492 68.0546 16.043C68.0608 16.0367 68.0657 16.0293 68.0691 16.0212C68.0725 16.0131 68.0742 16.0043 68.0742 15.9955V12.1037C68.0742 12.0859 68.0813 12.0689 68.0939 12.0563C68.1064 12.0437 68.1235 12.0366 68.1413 12.0366L72.0232 12.0344C72.032 12.0344 72.0408 12.0327 72.0489 12.0293C72.057 12.0259 72.0644 12.021 72.0707 12.0148C72.0769 12.0085 72.0818 12.0011 72.0852 11.993C72.0886 11.9849 72.0903 11.9761 72.0903 11.9673L72.0892 8.18113C72.0892 8.16333 72.0821 8.14626 72.0696 8.13368C72.057 8.12109 72.0399 8.11403 72.0221 8.11403H64.1263C64.1085 8.11403 64.0914 8.12109 64.0789 8.13368C64.0663 8.14626 64.0592 8.16333 64.0592 8.18113V15.9988C64.0592 16.0076 64.0609 16.0164 64.0643 16.0245C64.0677 16.0326 64.0726 16.04 64.0789 16.0463C64.0851 16.0525 64.0925 16.0574 64.1006 16.0608C64.1088 16.0642 64.1175 16.0659 64.1263 16.0659L68.0071 16.0626Z" fill="white"/>
<path d="M59.9931 8.10547H56.1409C56.1106 8.10547 56.0859 8.13009 56.0859 8.16047V12.0721C56.0859 12.1024 56.1106 12.1271 56.1409 12.1271H59.9931C60.0235 12.1271 60.0481 12.1024 60.0481 12.0721V8.16047C60.0481 8.13009 60.0235 8.10547 59.9931 8.10547Z" fill="#B0CEE4"/>
<path d="M68.0104 16.0619L64.1296 16.0652C64.1208 16.0652 64.1121 16.0634 64.1039 16.0601C64.0958 16.0567 64.0884 16.0518 64.0822 16.0455C64.0759 16.0393 64.071 16.0319 64.0676 16.0238C64.0642 16.0156 64.0625 16.0069 64.0625 15.9981V8.18038C64.0625 8.16259 64.0696 8.14552 64.0822 8.13293C64.0947 8.12035 64.1118 8.11328 64.1296 8.11328H72.0254C72.0432 8.11328 72.0603 8.12035 72.0728 8.13293C72.0854 8.14552 72.0925 8.16259 72.0925 8.18038L72.0936 11.9666C72.0936 11.9754 72.0919 11.9841 72.0885 11.9923C72.0851 12.0004 72.0802 12.0078 72.0739 12.014C72.0677 12.0203 72.0603 12.0252 72.0522 12.0286C72.044 12.0319 72.0353 12.0337 72.0265 12.0337L68.1446 12.0359C68.1268 12.0359 68.1097 12.043 68.0972 12.0555C68.0846 12.0681 68.0775 12.0852 68.0775 12.103V15.9948C68.0775 16.0036 68.0758 16.0123 68.0724 16.0205C68.069 16.0286 68.0641 16.036 68.0578 16.0422C68.0516 16.0485 68.0442 16.0534 68.0361 16.0568C68.0279 16.0601 68.0192 16.0619 68.0104 16.0619Z" fill="#B0CEE4"/>
<path d="M56.0226 24.0391H52.1462C52.1043 24.0391 52.0703 24.073 52.0703 24.115V27.998C52.0703 28.0399 52.1043 28.0739 52.1462 28.0739H56.0226C56.0645 28.0739 56.0985 28.0399 56.0985 27.998V24.115C56.0985 24.073 56.0645 24.0391 56.0226 24.0391Z" fill="white"/>
<path d="M63.8876 24.0352H60.1102C60.058 24.0352 60.0156 24.0775 60.0156 24.1298V31.9948C60.0156 32.047 60.058 32.0894 60.1102 32.0894H63.8876C63.9399 32.0894 63.9822 32.047 63.9822 31.9948V24.1298C63.9822 24.0775 63.9399 24.0352 63.8876 24.0352Z" fill="white"/>
<path d="M68.0541 36.0175C68.057 36.0094 68.0585 36.0005 68.0585 35.9911L68.0618 24.0836C68.0618 24.0775 68.063 24.0715 68.0653 24.0659C68.0676 24.0603 68.071 24.0552 68.0753 24.0509C68.0796 24.0466 68.0847 24.0432 68.0903 24.0409C68.0959 24.0386 68.1019 24.0374 68.108 24.0374L71.9514 24.0352C72.0056 24.0352 72.0328 24.0627 72.0328 24.1177V40.0479C72.0328 40.0651 72.0259 40.0816 72.0138 40.0937C72.0016 40.1059 71.9851 40.1128 71.9679 40.1128L64.1139 40.1139C64.0943 40.1139 64.0756 40.1061 64.0617 40.0923C64.0479 40.0784 64.0402 40.0597 64.0402 40.0402L64.0391 36.1341C64.0391 36.1166 64.046 36.0998 64.0584 36.0874C64.0708 36.075 64.0876 36.0681 64.1051 36.0681C65.3913 36.0747 66.6849 36.0765 67.9859 36.0736C68.0174 36.0736 68.0401 36.0549 68.0541 36.0175Z" fill="white"/>
<path d="M87.9408 24.0352H76.096C76.0559 24.0352 76.0234 24.0677 76.0234 24.1078V27.9996C76.0234 28.0397 76.0559 28.0722 76.096 28.0722H87.9408C87.9809 28.0722 88.0134 28.0397 88.0134 27.9996V24.1078C88.0134 24.0677 87.9809 24.0352 87.9408 24.0352Z" fill="white"/>
<path d="M79.9823 36.1071H76.0795C76.0647 36.1071 76.0504 36.1012 76.0399 36.0907C76.0293 36.0801 76.0234 36.0659 76.0234 36.051V32.1108C76.0234 32.1034 76.0249 32.0961 76.0277 32.0893C76.0305 32.0825 76.0347 32.0763 76.0399 32.0711C76.0451 32.0659 76.0513 32.0618 76.0581 32.059C76.0649 32.0561 76.0722 32.0547 76.0795 32.0547H80.0087C80.0161 32.0547 80.0234 32.0561 80.0302 32.059C80.037 32.0618 80.0432 32.0659 80.0484 32.0711C80.0536 32.0763 80.0577 32.0825 80.0606 32.0893C80.0634 32.0961 80.0648 32.1034 80.0648 32.1108L80.0659 36.018C80.0659 36.0329 80.0718 36.0471 80.0824 36.0577C80.0929 36.0682 80.1072 36.0741 80.122 36.0741H87.9573C87.9722 36.0741 87.9865 36.08 87.997 36.0905C88.0075 36.101 88.0134 36.1153 88.0134 36.1302L88.0156 40.055C88.0156 40.0699 88.0097 40.0841 87.9992 40.0947C87.9887 40.1052 87.9744 40.1111 87.9595 40.1111L80.0967 40.1166C80.0819 40.1166 80.0676 40.1107 80.0571 40.1002C80.0465 40.0896 80.0406 40.0754 80.0406 40.0605L80.0384 36.1632C80.0384 36.1483 80.0325 36.134 80.022 36.1235C80.0115 36.113 79.9972 36.1071 79.9823 36.1071Z" fill="white"/>
</g>
<rect x="0.5" y="0.5" width="43" height="43" fill="#153D53" stroke="#B0CEE4"/>
<g opacity="0.5">
<path d="M6.74088 19.0955C7.46088 18.7515 8.35288 18.5795 9.41688 18.5795C9.89688 18.5795 10.2809 18.6435 10.5689 18.7715C10.8649 18.8915 11.0929 19.0475 11.2529 19.2395C11.4129 19.4315 11.5169 19.6475 11.5649 19.8875C11.6209 20.1195 11.6489 20.3515 11.6489 20.5835C11.6489 21.0235 11.6329 21.4675 11.6009 21.9155C11.5689 22.3555 11.5529 22.8355 11.5529 23.3555C11.5529 23.6595 11.5649 23.9555 11.5889 24.2435C11.6209 24.5235 11.6689 24.7835 11.7329 25.0235H10.9289L10.6289 24.0635H10.5089C10.4209 24.1835 10.3129 24.3075 10.1849 24.4355C10.0569 24.5555 9.90488 24.6635 9.72888 24.7595C9.55288 24.8555 9.34888 24.9355 9.11687 24.9995C8.89287 25.0635 8.63287 25.0955 8.33687 25.0955C8.04087 25.0955 7.76888 25.0555 7.52087 24.9755C7.27288 24.8875 7.05687 24.7675 6.87287 24.6155C6.69687 24.4635 6.55688 24.2795 6.45288 24.0635C6.34888 23.8395 6.29688 23.5915 6.29688 23.3195C6.29688 22.9595 6.37288 22.6475 6.52488 22.3835C6.68488 22.1195 6.88888 21.9035 7.13688 21.7355C7.38488 21.5675 7.66488 21.4435 7.97688 21.3635C8.29688 21.2835 8.61288 21.2435 8.92488 21.2435C9.17288 21.2435 9.38088 21.2475 9.54888 21.2555C9.72488 21.2635 9.86888 21.2755 9.98088 21.2915C10.1009 21.2995 10.2009 21.3115 10.2809 21.3275C10.3609 21.3355 10.4329 21.3435 10.4969 21.3515C10.5129 21.2315 10.5249 21.1275 10.5329 21.0395C10.5409 20.9515 10.5449 20.8395 10.5449 20.7035C10.5449 20.4795 10.5209 20.2915 10.4729 20.1395C10.4249 19.9875 10.3449 19.8675 10.2329 19.7795C10.1289 19.6835 9.98488 19.6155 9.80088 19.5755C9.61688 19.5355 9.39288 19.5155 9.12888 19.5155C8.97688 19.5155 8.80888 19.5275 8.62488 19.5515C8.44088 19.5755 8.25688 19.6115 8.07288 19.6595C7.88888 19.6995 7.70487 19.7515 7.52087 19.8155C7.34487 19.8795 7.18488 19.9475 7.04088 20.0195L6.74088 19.0955ZM10.4969 22.1435C10.4329 22.1355 10.3649 22.1235 10.2929 22.1075C10.2209 22.0915 10.1289 22.0795 10.0169 22.0715C9.91288 22.0635 9.78488 22.0555 9.63288 22.0475C9.48888 22.0395 9.30888 22.0355 9.09288 22.0355C8.59688 22.0355 8.20088 22.1235 7.90488 22.2995C7.61688 22.4755 7.47288 22.7755 7.47288 23.1995C7.47288 23.5195 7.58488 23.7595 7.80888 23.9195C8.04088 24.0795 8.33688 24.1595 8.69688 24.1595C8.96088 24.1595 9.19288 24.1275 9.39287 24.0635C9.60088 23.9915 9.77688 23.9075 9.92088 23.8115C10.0729 23.7075 10.1929 23.5955 10.2809 23.4755C10.3769 23.3475 10.4489 23.2235 10.4969 23.1035V22.1435Z" fill="white"/>
<path d="M13.7973 18.6995H14.5413L14.7572 19.5035H14.8652C15.0812 19.1915 15.3612 18.9515 15.7052 18.7835C16.0492 18.6075 16.4373 18.5195 16.8693 18.5195C17.7813 18.5195 18.4613 18.7755 18.9093 19.2875C19.3573 19.7915 19.5813 20.5995 19.5813 21.7115C19.5813 22.2395 19.5052 22.7195 19.3532 23.1515C19.2092 23.5755 18.9973 23.9395 18.7172 24.2435C18.4452 24.5395 18.1093 24.7675 17.7093 24.9275C17.3173 25.0875 16.8772 25.1675 16.3892 25.1675C16.2292 25.1675 16.0813 25.1595 15.9453 25.1435C15.8173 25.1355 15.6972 25.1155 15.5852 25.0835C15.4732 25.0595 15.3613 25.0315 15.2493 24.9995C15.1373 24.9595 15.0212 24.9155 14.9012 24.8675V27.3995H13.7973V18.6995ZM16.6173 19.4555C16.1373 19.4555 15.7613 19.5755 15.4893 19.8155C15.2173 20.0555 15.0212 20.4235 14.9012 20.9195V23.8235C15.0852 23.9515 15.2853 24.0515 15.5013 24.1235C15.7173 24.1955 15.9933 24.2315 16.3293 24.2315C16.9773 24.2315 17.4853 24.0195 17.8533 23.5955C18.2213 23.1715 18.4053 22.5395 18.4053 21.6995C18.4053 21.0195 18.2693 20.4755 17.9973 20.0675C17.7253 19.6595 17.2653 19.4555 16.6173 19.4555Z" fill="white"/>
<path d="M25.5843 19.6355H23.4003V24.9995H22.2963V19.6355H20.1123V18.6995H25.5843V19.6355Z" fill="white"/>
<path d="M28.597 22.6835L28.969 23.8955H29.125L29.425 22.6715L30.733 18.6995H31.861L29.797 24.3995C29.645 24.7915 29.489 25.1715 29.329 25.5395C29.177 25.9075 29.005 26.2315 28.813 26.5115C28.629 26.7995 28.421 27.0275 28.189 27.1955C27.965 27.3715 27.705 27.4595 27.409 27.4595C27.089 27.4595 26.817 27.4235 26.593 27.3515L26.773 26.4155C26.893 26.4555 27.013 26.4755 27.133 26.4755C27.293 26.4755 27.437 26.4555 27.565 26.4155C27.701 26.3755 27.825 26.3035 27.937 26.1995C28.049 26.0955 28.149 25.9475 28.237 25.7555C28.333 25.5715 28.421 25.3315 28.501 25.0355L25.681 18.6995H26.989L28.597 22.6835Z" fill="white"/>
<path d="M37.6977 24.5675C37.4177 24.7675 37.0897 24.9155 36.7137 25.0115C36.3377 25.1155 35.9417 25.1675 35.5257 25.1675C34.9977 25.1675 34.5457 25.0875 34.1697 24.9275C33.8017 24.7675 33.5017 24.5435 33.2697 24.2555C33.0377 23.9675 32.8697 23.6195 32.7657 23.2115C32.6617 22.8035 32.6097 22.3515 32.6097 21.8555C32.6097 20.7915 32.8657 19.9715 33.3777 19.3955C33.8977 18.8115 34.6417 18.5195 35.6097 18.5195C36.0337 18.5195 36.4017 18.5595 36.7137 18.6395C37.0257 18.7115 37.3057 18.8035 37.5537 18.9155L37.2657 19.8155C37.0497 19.7035 36.8137 19.6155 36.5577 19.5515C36.3097 19.4875 36.0377 19.4555 35.7417 19.4555C34.4377 19.4555 33.7857 20.2555 33.7857 21.8555C33.7857 22.1595 33.8217 22.4555 33.8937 22.7435C33.9657 23.0235 34.0817 23.2755 34.2417 23.4995C34.4017 23.7155 34.6097 23.8915 34.8657 24.0275C35.1297 24.1635 35.4497 24.2315 35.8257 24.2315C36.1617 24.2315 36.4537 24.1875 36.7017 24.0995C36.9577 24.0035 37.1697 23.8915 37.3377 23.7635L37.6977 24.5675Z" fill="white"/>
</g>
<defs>
<clipPath id="clip0_1923_203">
<rect width="44" height="44" fill="white" transform="translate(48)"/>
</clipPath>
</defs>
</svg>
