<svg width="170" height="20" viewBox="0 0 170 20" fill="none" xmlns="http://www.w3.org/2000/svg">
<g clip-path="url(#clip0_1923_396)">
<path d="M74.4988 4.16L106.037 4.16L101.899 -1.21802e-06L-0.237582 5.25933e-07L-0.242187 12.48L38.6404 12.48L44.1204 17.9886L60.7649 17.9886L74.5216 4.16L74.4988 4.16ZM97.0098 7.95429L85.004 20.0229C85.004 20.0229 69.8147 19.9771 69.5873 19.9771L81.5477 7.95429L97.0098 7.95429ZM105.878 7.95429L121.34 7.95429L109.334 20.0229C109.334 20.0229 94.1448 19.9771 93.9174 19.9771L105.878 7.95429ZM130.208 7.95429L145.67 7.95429L133.664 20.0229C133.664 20.0229 118.475 19.9771 118.247 19.9771L130.208 7.95429ZM154.538 7.95429L170 7.95429L157.994 20.0229C157.994 20.0229 142.805 19.9771 142.578 19.9771L154.538 7.95429Z" fill="#005B9F"/>
</g>
<defs>
<clipPath id="clip0_1923_396">
<rect width="20" height="170" fill="white" transform="matrix(1.19249e-08 1 1 -1.19249e-08 0 0)"/>
</clipPath>
</defs>
</svg>
