<svg width="1920" height="280" viewBox="0 0 1920 280" fill="none" xmlns="http://www.w3.org/2000/svg">
<g clip-path="url(#clip0_1897_543)">
<path d="M16.9953 213.92L82.1921 280H50.8698L0 229.017V36.5243L16.9953 19.5106V213.978V213.92ZM1903 19.5106V213.978L1837.81 280.058H1869.13L1920 229.075V36.5243L1903 19.5106ZM1885.84 215.72V30.253L1884.33 28.7433L1882.41 26.827V214.326L1838.45 258.515L1374.88 257.47H80.568L36.4267 213.281V0L32.9464 3.48403V214.616L79.0598 260.838H1374.76L1839.78 261.883L1885.72 215.72H1885.84Z" fill="white"/>
<path d="M0 229L51 280L-8.91712e-06 280L0 229Z" fill="white"/>
<path d="M1920 229L1869 280L1920 280L1920 229Z" fill="white"/>
</g>
<defs>
<clipPath id="clip0_1897_543">
<rect width="1920" height="280" fill="white"/>
</clipPath>
</defs>
</svg>
