<svg width="314" height="50" viewBox="0 0 314 50" fill="none" xmlns="http://www.w3.org/2000/svg">
<g clip-path="url(#clip0_1923_164)">
<path fill-rule="evenodd" clip-rule="evenodd" d="M165.151 43.8731C161.035 43.8731 156.956 42.7309 154.107 39.5708C151.121 36.2584 150.23 31.55 150.23 27.2097C150.23 22.6155 151.284 17.8056 154.333 14.2648C157.232 11.0032 161.298 9.5437 165.565 9.5437C168.615 9.5437 171.375 10.0006 174.274 11.0032V19.5316C171.802 18.0975 168.853 17.0949 165.979 17.0949C164.574 17.0949 163.268 17.3995 162.177 18.1356C159.466 19.9377 158.939 23.7323 158.939 26.7401C158.939 29.5068 159.328 32.8826 161.537 34.8116C162.792 35.9031 164.436 36.2584 166.054 36.2584C168.753 36.2584 171.953 35.0401 174.262 33.7329V41.8552C171.288 43.0989 168.364 43.8858 165.138 43.8858L165.151 43.8731ZM137.479 18.3894C137.028 17.996 136.5 17.7294 135.936 17.5518H135.911C135.12 17.2853 134.254 17.2091 133.426 17.2091H131.568V26.2198H133.614C134.354 26.2198 135.145 26.1436 135.848 25.8771H135.873C136.438 25.6614 136.952 25.3822 137.379 24.9507H137.391C137.806 24.5319 138.107 24.0496 138.308 23.5039C138.546 22.8566 138.634 22.1586 138.634 21.4733C138.634 20.8515 138.546 20.2296 138.333 19.6458C138.144 19.1508 137.856 18.7447 137.479 18.3894ZM131.581 33.4664V43.4543H123.399V9.98788H133.589C135.471 9.98788 137.379 10.1656 139.199 10.6859C140.742 11.1301 142.21 11.8027 143.465 12.818C144.658 13.7825 145.561 14.9628 146.176 16.3588C146.841 17.8437 147.08 19.4427 147.08 21.0672C147.08 22.6917 146.829 24.4176 146.214 25.9913C145.611 27.5143 144.733 28.8595 143.553 29.9763C142.298 31.1693 140.817 31.9815 139.199 32.5653C137.329 33.2253 135.321 33.4664 133.351 33.4664H131.594H131.581ZM94.6856 43.0735V35.6873C96.0284 35.9792 97.3587 36.3219 98.7391 36.2965C100.283 36.2711 101.814 34.672 102.441 33.0476L102.843 31.9942L92.0126 9.98788H100.985L106.708 22.4759L111.427 9.98788H120.287L109.958 35.0655C108.917 37.5529 107.725 40.2181 105.641 41.9948C104.148 43.2766 102.328 44.0127 100.17 44.0127C98.2748 44.0127 96.4928 43.6827 94.6982 43.0735H94.6856ZM79.5259 43.8731C75.4097 43.8731 71.3311 42.7309 68.4824 39.5708C65.4956 36.2584 64.6046 31.55 64.6046 27.2097C64.6046 22.6155 65.6588 17.8056 68.7083 14.2648C71.5947 11.0032 75.6732 9.5437 79.94 9.5437C82.9896 9.5437 85.7504 10.0006 88.6494 11.0032V19.5316C86.1771 18.0975 83.228 17.0949 80.3542 17.0949C78.9486 17.0949 77.6435 17.3995 76.5517 18.1356C73.841 19.9377 73.3139 23.7323 73.3139 26.7401C73.3139 29.5068 73.703 32.8826 75.9117 34.8116C77.1666 35.9031 78.8106 36.2584 80.4295 36.2584C83.1276 36.2584 86.3277 35.0401 88.6368 33.7329V41.8552C85.6626 43.0989 82.7386 43.8858 79.5134 43.8858L79.5259 43.8731ZM34.5487 17.4249H62.7347L64.6423 9.98788H36.4562L34.5487 17.4249ZM31.2105 30.4459H59.3966L61.3041 23.0089H33.118L31.2105 30.4459ZM27.8723 43.4543H56.0584L57.9659 36.0173H29.7799L27.8723 43.4543ZM9.01051 22.9962H13.0389C17.7951 22.9962 21.5098 21.118 21.5098 15.5847C21.5098 10.0513 18.1591 8.17306 13.0891 8.17306H9.01051V22.9962ZM9.01051 31.182V43.4543H0V0H13.3652C17.8077 0 22.7271 1.09143 26.1531 3.87078C29.5791 6.65013 30.8591 11.422 30.8591 15.5973C30.8591 19.7727 29.9179 23.8339 26.4668 26.9812C23.0032 30.1286 18.1089 31.182 13.3526 31.182H8.98541H9.01051Z" fill="white"/>
<path fill-rule="evenodd" clip-rule="evenodd" d="M304.877 43.8731C300.761 43.8731 296.682 42.7309 293.833 39.5708C290.847 36.2584 289.956 31.55 289.956 27.2097C289.956 22.6155 291.01 17.8056 294.059 14.2648C296.946 11.0032 301.024 9.5437 305.291 9.5437C308.341 9.5437 311.102 10.0006 314 11.0032V19.5316C311.528 18.0975 308.579 17.0949 305.705 17.0949C304.3 17.0949 302.995 17.3995 301.903 18.1356C299.192 19.9377 298.665 23.7323 298.665 26.7401C298.665 29.5068 299.054 32.8826 301.263 34.8117C302.518 35.9031 304.162 36.2584 305.781 36.2584C308.479 36.2584 311.679 35.0401 313.988 33.7329V41.8552C311.014 43.0989 308.09 43.8858 304.864 43.8858L304.877 43.8731ZM277.456 30.0779H269.375V43.4543H261.217V9.98789H269.375V22.8186H277.456V9.98789H285.601V43.4543H277.456V30.0779ZM243.134 20.9276L240.536 30.2682H245.669L243.146 20.9276H243.134ZM238.503 37.5149L236.846 43.4543H228.652L238.453 9.98789H248.304L258.105 43.4543H249.22L247.614 37.5149H238.503ZM214.91 33.4664H216.905C220.457 33.4664 224.673 32.6796 226.995 30.4713C229.254 28.3265 230.408 26.169 230.396 21.4733C230.396 17.8817 229.681 15.1659 226.769 12.818C224.021 10.5971 220.319 9.98789 216.893 9.98789H206.703V43.4543H214.885V33.4664H214.91ZM220.808 18.3894C221.674 19.1889 221.975 20.1408 221.975 21.4733C221.975 22.8059 221.737 24.1258 220.808 25.0649C219.829 26.0421 218.06 26.2198 216.955 26.2198H214.91V17.2091H216.905C218.273 17.2091 219.729 17.4376 220.808 18.3894ZM194.63 43.4543H185.983V8.18575H174.275V0H206.715V8.18575H194.994V43.4543H194.63ZM31.2109 30.4332L42.4678 36.0046H57.9664L46.7095 30.4332H31.2109ZM34.5491 17.4122L45.806 22.9963H61.3045L50.0477 17.4122H34.5491Z" fill="white"/>
</g>
<defs>
<clipPath id="clip0_1923_164">
<rect width="314" height="50" fill="white"/>
</clipPath>
</defs>
</svg>
